<svg xmlns="http://www.w3.org/2000/svg" width="543.744" height="662.459" viewBox="0 0 543.744 662.459">
  <g id="Grupo_2251" data-name="Grupo 2251" transform="translate(4867 5137.105)">
    <path id="Intersecci贸n_4" data-name="Intersecci贸n 4" d="M150,781V118.895c75.154,48.214,92.768,146.4,263.886,132.454,203.306-16.567,281.02,130.564,279.844,261.9C692.636,635.395,616.155,740.716,454.045,781Z" transform="translate(-5017 -5256)" fill="#fff"/>
    <path id="Intersecci贸n_2" data-name="Intersecci贸n 2" d="M122.052,708.94V524.689a94.651,94.651,0,0,1,9.754-1.2l-.558.037.037-.007.307-.036.958-.113,2.386-.306c1.7-.229,3.518-.5,5.366-.8,3.712-.6,7.548-1.31,11.377-2.108,7.67-1.591,15.32-3.543,22.685-5.768s14.456-4.764,21.123-7.521c3.341-1.372,6.547-2.829,9.638-4.323s6.077-3.027,8.872-4.623,5.479-3.212,7.992-4.857q3.73-2.487,7-5.009c2.17-1.681,4.127-3.381,5.963-5.056q.661-.637,1.341-1.255c.415-.425.827-.846,1.25-1.26.441-.408.8-.84,1.2-1.252s.8-.821,1.141-1.244a57.275,57.275,0,0,0,3.965-4.919,49.772,49.772,0,0,0,3.137-4.857c.22-.409.458-.81.69-1.211q.294-.625.619-1.232c.237-.4.4-.827.592-1.239l.3-.618c.049-.1.105-.2.151-.308l.125-.32c.167-.427.347-.848.537-1.264a6.5,6.5,0,0,0,.243-.649l.241-.65.257-.644c.082-.218.14-.449.215-.672q.215-.672.46-1.334l1.576-4.225a95.65,95.65,0,0,1,179.688,65.624q-1.1,3.071-2.229,6.129c-.38,1.02-.746,2.04-1.146,3.055l-1.229,3.033-1.246,3.027c-.425,1.005-.823,2.019-1.282,3.012q-1.342,2.993-2.716,5.971l-.689,1.488-.725,1.472-1.466,2.935c-.987,1.951-1.958,3.912-3.024,5.82q-1.569,2.878-3.169,5.738c-1.1,1.883-2.221,3.751-3.345,5.618a240.988,240.988,0,0,1-14.663,21.391A248.553,248.553,0,0,1,379.3,607.521c-1.419,1.551-2.875,3.02-4.332,4.5s-2.911,2.968-4.4,4.37q-2.225,2.13-4.465,4.243l-4.531,4.079c-6.076,5.344-12.28,10.384-18.572,15.051s-12.663,9-19.077,13.055c-6.414,4.029-12.868,7.762-19.34,11.25s-12.959,6.681-19.45,9.674-12.985,5.756-19.471,8.294c-12.978,5.09-25.934,9.409-38.88,13.07s-25.884,6.694-38.974,9.169c-6.55,1.24-13.137,2.341-19.887,3.3-3.384.481-6.8.927-10.354,1.338q-2.654.309-5.5.592l-2.989.281-1.669.142-2.5.19q-3.345.235-6.653.234A93.325,93.325,0,0,1,122.052,708.94Z" transform="translate(-4989.052 -5185)" fill="#eff2f3"/>
  </g>
</svg>
