<svg xmlns="http://www.w3.org/2000/svg" width="243.949" height="169.885" viewBox="0 0 243.949 169.885">
  <g id="cbu" transform="translate(-39.106 -16.88)">
    <g id="freepik--background-simple--inject-26" transform="translate(58.871 16.88)">
      <path id="Trazado_2345" data-name="Trazado 2345" d="M286.9,24.989c-17.669-11.308-42.563-10.973-58.938,2.163-13.14,10.541-20.467,27.966-35.574,35.421-19.33,9.541-42.85-1.123-63.91,3.486-17.574,3.846-31.986,19.3-34.621,37.1s9.036,37.976,24.756,46.725h0c20.333,11.057,41.513,14.1,64.655,13.885,28.668-.254,58.109-3.831,83.345-17.447s45.627-38.841,47-67.48C314.612,57.877,304.584,36.3,286.9,24.989Z" transform="translate(-93.485 -16.88)" fill="#ebebeb"/>
    </g>
    <g id="freepik--Floor--inject-26" transform="translate(39.336 181.616)">
      <path id="Trazado_2346" data-name="Trazado 2346" d="M283.459,470.194c0,.051-54.562.095-121.852.095s-121.867-.044-121.867-.095,54.551-.094,121.867-.094S283.459,470.14,283.459,470.194Z" transform="translate(-39.74 -470.1)" fill="#263238"/>
    </g>
    <g id="freepik--Device--inject-26" transform="translate(97.035 34.905)">
      <path id="Trazado_2347" data-name="Trazado 2347" d="M419.1,134.64H280.718a4.318,4.318,0,0,0-4.318,4.322V236.7a4.318,4.318,0,0,0,4.318,4.318h53.111s3.38,10.446-7.1,15.855H376.4s-11.817-4.056-8.785-15.855H419.1a4.318,4.318,0,0,0,4.318-4.318V138.962A4.318,4.318,0,0,0,419.1,134.64Z" transform="translate(-248.078 -109.862)" fill="#263238"/>
      <path id="Trazado_2348" data-name="Trazado 2348" d="M475.7,397.558a2.666,2.666,0,0,1-3.755,3.755.931.931,0,0,1-.229-.233,2.665,2.665,0,0,1,3.755-3.751.979.979,0,0,1,.229.229Z" transform="translate(-372.025 -276.691)" fill="#455a64"/>
      <path id="Trazado_2349" data-name="Trazado 2349" d="M286.508,139.57H421.721a3.526,3.526,0,0,1,3.526,3.526v83.186H283V143.1a3.526,3.526,0,0,1,3.508-3.526Z" transform="translate(-252.279 -113)" fill="#fff"/>
      <rect id="Rectángulo_960" data-name="Rectángulo 960" width="4.667" height="52.108" transform="translate(42.756 46.144)" fill="#ffb300"/>
      <rect id="Rectángulo_961" data-name="Rectángulo 961" width="4.667" height="34.41" transform="translate(51.763 63.841)" fill="#ffb300"/>
      <rect id="Rectángulo_962" data-name="Rectángulo 962" width="4.667" height="45.896" transform="translate(60.77 52.621)" fill="#ffb300"/>
      <rect id="Rectángulo_963" data-name="Rectángulo 963" width="4.667" height="50.095" transform="translate(69.78 48.157)" fill="#ffb300"/>
      <rect id="Rectángulo_964" data-name="Rectángulo 964" width="4.667" height="33.349" transform="translate(78.787 64.903)" fill="#ffb300"/>
      <rect id="Rectángulo_965" data-name="Rectángulo 965" width="4.667" height="26.81" transform="translate(87.794 71.442)" fill="#ffb300"/>
      <rect id="Rectángulo_966" data-name="Rectángulo 966" width="4.667" height="46.758" transform="translate(96.801 51.494)" fill="#ffb300"/>
      <rect id="Rectángulo_967" data-name="Rectángulo 967" width="4.667" height="38.329" transform="translate(105.808 59.923)" fill="#ffb300"/>
      <rect id="Rectángulo_968" data-name="Rectángulo 968" width="4.667" height="45.064" transform="translate(114.819 53.188)" fill="#ffb300"/>
      <rect id="Rectángulo_969" data-name="Rectángulo 969" width="4.667" height="30.703" transform="translate(123.826 67.549)" fill="#ffb300"/>
      <rect id="Rectángulo_970" data-name="Rectángulo 970" width="4.667" height="46.758" transform="translate(141.793 51.494)" fill="#ffb300"/>
      <rect id="Rectángulo_971" data-name="Rectángulo 971" width="4.667" height="16" transform="translate(160.923 81.579)" fill="#ffb300"/>
      <rect id="Rectángulo_972" data-name="Rectángulo 972" width="4.667" height="30.703" transform="translate(151.596 67.549)" fill="#ffb300"/>
      <rect id="Rectángulo_973" data-name="Rectángulo 973" width="4.667" height="36.544" transform="translate(132.833 61.708)" fill="#ffb300"/>
      <path id="Trazado_2350" data-name="Trazado 2350" d="M444.765,209.811a2.907,2.907,0,0,1-.407-.065l-1.189-.244a18.581,18.581,0,0,0-1.941-.309,23.988,23.988,0,0,0-2.672-.222,30.937,30.937,0,0,0-7.306.625,32.247,32.247,0,0,0-9.058,3.431,36.977,36.977,0,0,0-9.178,7.306,69.994,69.994,0,0,0-7.731,11.1c-2.464,4.1-5.023,8.494-8.691,12.289a22.746,22.746,0,0,1-6.4,4.787,13.34,13.34,0,0,1-3.947,1.207,12.649,12.649,0,0,1-4.184-.142,17.074,17.074,0,0,1-7.288-3.82,33.927,33.927,0,0,1-5.4-5.892c-3.133-4.216-5.358-8.76-7.738-12.9a54.941,54.941,0,0,0-7.731-11.072,21.026,21.026,0,0,0-4.78-3.758,20.112,20.112,0,0,0-2.584-1.254,21.025,21.025,0,0,0-2.635-.781,19.173,19.173,0,0,0-9.578.269,21.6,21.6,0,0,0-6.575,3.162,23.947,23.947,0,0,0-3.453,3.1l-.811.9a2.545,2.545,0,0,1-.291.3,2.078,2.078,0,0,1,.247-.331l.767-.945a22.464,22.464,0,0,1,3.413-3.188,21.445,21.445,0,0,1,6.615-3.271,19.355,19.355,0,0,1,9.738-.363,20.207,20.207,0,0,1,10.228,5.852,55.059,55.059,0,0,1,7.84,11.133c2.37,4.158,4.631,8.676,7.731,12.838a33.662,33.662,0,0,0,5.321,5.816,16.568,16.568,0,0,0,7.059,3.707,12.166,12.166,0,0,0,4,.134,12.961,12.961,0,0,0,3.8-1.159,22.3,22.3,0,0,0,6.27-4.685c3.617-3.718,6.146-8.109,8.647-12.176a71.83,71.83,0,0,1,7.822-11.144,37.379,37.379,0,0,1,9.316-7.335,32.179,32.179,0,0,1,9.181-3.391,30.252,30.252,0,0,1,7.371-.545,22.474,22.474,0,0,1,2.686.273,16.409,16.409,0,0,1,1.941.363l1.178.294A2.591,2.591,0,0,1,444.765,209.811Z" transform="translate(-277.867 -157.023)" fill="#263238"/>
      <path id="Trazado_2351" data-name="Trazado 2351" d="M301.663,230.541c-.105,0-.193-14.859-.193-33.186s.087-33.186.193-33.186.193,14.855.193,33.186S301.761,230.541,301.663,230.541Z" transform="translate(-264.035 -128.658)" fill="#263238"/>
      <path id="Trazado_2352" data-name="Trazado 2352" d="M435.036,346.433c0,.105-27.988.189-62.518.189S310,346.538,310,346.433s27.988-.193,62.518-.193S435.036,346.327,435.036,346.433Z" transform="translate(-269.465 -244.55)" fill="#263238"/>
      <path id="Trazado_2353" data-name="Trazado 2353" d="M322.294,357.713a31.209,31.209,0,0,1-6.924,0,31.2,31.2,0,0,1,6.924,0Z" transform="translate(-272.883 -251.73)" fill="#263238"/>
      <path id="Trazado_2354" data-name="Trazado 2354" d="M351.506,358.289a44.54,44.54,0,0,1-8.276,0,22.349,22.349,0,0,1,4.14-.189A22.672,22.672,0,0,1,351.506,358.289Z" transform="translate(-290.617 -252.099)" fill="#263238"/>
      <path id="Trazado_2355" data-name="Trazado 2355" d="M378.506,358.289a44.54,44.54,0,0,1-8.276,0,22.349,22.349,0,0,1,4.14-.189A22.672,22.672,0,0,1,378.506,358.289Z" transform="translate(-307.803 -252.099)" fill="#263238"/>
      <path id="Trazado_2356" data-name="Trazado 2356" d="M405.426,358.289a44.539,44.539,0,0,1-8.276,0,22.348,22.348,0,0,1,4.14-.189A22.672,22.672,0,0,1,405.426,358.289Z" transform="translate(-324.938 -252.099)" fill="#263238"/>
      <path id="Trazado_2357" data-name="Trazado 2357" d="M432.376,358.289a44.54,44.54,0,0,1-8.276,0,22.349,22.349,0,0,1,4.14-.189A22.672,22.672,0,0,1,432.376,358.289Z" transform="translate(-342.092 -252.099)" fill="#263238"/>
      <path id="Trazado_2358" data-name="Trazado 2358" d="M459.336,358.289a44.54,44.54,0,0,1-8.276,0,22.292,22.292,0,0,1,4.136-.189A22.73,22.73,0,0,1,459.336,358.289Z" transform="translate(-359.253 -252.099)" fill="#263238"/>
      <path id="Trazado_2359" data-name="Trazado 2359" d="M486.286,358.289a44.539,44.539,0,0,1-8.276,0,22.292,22.292,0,0,1,4.136-.189A22.729,22.729,0,0,1,486.286,358.289Z" transform="translate(-376.407 -252.099)" fill="#263238"/>
      <path id="Trazado_2360" data-name="Trazado 2360" d="M513.236,358.289a44.54,44.54,0,0,1-8.276,0,22.324,22.324,0,0,1,4.136-.189A22.762,22.762,0,0,1,513.236,358.289Z" transform="translate(-393.561 -252.099)" fill="#263238"/>
      <path id="Trazado_2361" data-name="Trazado 2361" d="M540.186,358.289a44.54,44.54,0,0,1-8.276,0,22.348,22.348,0,0,1,4.14-.189A22.672,22.672,0,0,1,540.186,358.289Z" transform="translate(-410.716 -252.099)" fill="#263238"/>
      <path id="Trazado_2362" data-name="Trazado 2362" d="M567.136,358.289a44.54,44.54,0,0,1-8.276,0A22.349,22.349,0,0,1,563,358.1,22.672,22.672,0,0,1,567.136,358.289Z" transform="translate(-427.87 -252.099)" fill="#263238"/>
      <path id="Trazado_2363" data-name="Trazado 2363" d="M592.206,358.3a44.54,44.54,0,0,1-8.276,0,22.322,22.322,0,0,1,4.136-.189A22.761,22.761,0,0,1,592.206,358.3Z" transform="translate(-443.827 -252.105)" fill="#263238"/>
      <path id="Trazado_2364" data-name="Trazado 2364" d="M617.276,358.309a44.539,44.539,0,0,1-8.276,0,45.4,45.4,0,0,1,8.276,0Z" transform="translate(-459.785 -252.112)" fill="#263238"/>
      <path id="Trazado_2365" data-name="Trazado 2365" d="M642.336,358.313a44.54,44.54,0,0,1-8.276,0,44.547,44.547,0,0,1,8.276,0Z" transform="translate(-475.736 -252.112)" fill="#263238"/>
      <path id="Trazado_2366" data-name="Trazado 2366" d="M429.793,259.781c0-.08.574.12.756.9a1.919,1.919,0,0,1-.145,1.345,1.163,1.163,0,0,1-.68.574,1.25,1.25,0,0,1-.949-.113,1.588,1.588,0,0,1-.811-1.487,1.665,1.665,0,0,1,.651-1.2,1.065,1.065,0,0,1,.891-.218c.218.065.291.171.276.193a1.04,1.04,0,0,0-.931.309,1.371,1.371,0,0,0-.407.938,1.156,1.156,0,0,0,.578,1.01.691.691,0,0,0,.967-.247,1.7,1.7,0,0,0,.2-1.036A2.268,2.268,0,0,0,429.793,259.781Z" transform="translate(-344.55 -189.375)" fill="#263238"/>
      <path id="Trazado_2367" data-name="Trazado 2367" d="M599.034,212.705c0-.029.149-.076.407,0a1.57,1.57,0,0,1,.832.727,2.068,2.068,0,0,1,.2,1.636,1.719,1.719,0,0,1-1.6,1.276,1.359,1.359,0,0,1-1.014-.527,2.181,2.181,0,0,1-.429-.909,2.072,2.072,0,0,1,.262-1.625c.574-.811,1.283-.771,1.258-.727.033.076-.56.189-.941.9a1.818,1.818,0,0,0-.113,1.319c.124.48.494,1.029,1,1.032a1.283,1.283,0,0,0,1.123-.905,1.788,1.788,0,0,0-.076-1.312A1.883,1.883,0,0,0,599.034,212.705Z" transform="translate(-452.385 -159.445)" fill="#263238"/>
      <rect id="Rectángulo_974" data-name="Rectángulo 974" width="93.636" height="72.874" transform="translate(0.073 0.124)" fill="#fff"/>
      <path id="Trazado_2368" data-name="Trazado 2368" d="M292.188,139.467c0-.727-.033-28.9-.087-72.874l.087.087H198.564l.105-.105v72.874l-.095-.095,93.635.095-93.635.095h-.094V66.47h93.828v.087C292.225,110.571,292.192,138.74,292.188,139.467Z" transform="translate(-198.48 -66.47)" fill="#263238"/>
      <rect id="Rectángulo_975" data-name="Rectángulo 975" width="15.157" height="0.843" transform="translate(4.642 9.698)" fill="#263238"/>
      <rect id="Rectángulo_976" data-name="Rectángulo 976" width="7.491" height="0.843" transform="translate(4.642 11.671)" fill="#263238"/>
      <rect id="Rectángulo_977" data-name="Rectángulo 977" width="2.744" height="0.792" transform="translate(13.281 62.525)" fill="#263238"/>
      <rect id="Rectángulo_978" data-name="Rectángulo 978" width="3.511" height="0.792" transform="translate(19.493 66.756)" fill="#263238"/>
      <rect id="Rectángulo_979" data-name="Rectángulo 979" width="3.511" height="0.792" transform="translate(31.717 66.756)" fill="#263238"/>
      <rect id="Rectángulo_980" data-name="Rectángulo 980" width="3.511" height="0.792" transform="translate(43.941 66.756)" fill="#263238"/>
      <rect id="Rectángulo_981" data-name="Rectángulo 981" width="3.511" height="0.792" transform="translate(56.165 66.756)" fill="#263238"/>
      <rect id="Rectángulo_982" data-name="Rectángulo 982" width="3.511" height="0.792" transform="translate(68.388 66.756)" fill="#263238"/>
      <rect id="Rectángulo_983" data-name="Rectángulo 983" width="3.511" height="0.792" transform="translate(80.612 66.756)" fill="#263238"/>
      <rect id="Rectángulo_984" data-name="Rectángulo 984" width="2.744" height="0.792" transform="translate(13.281 51.959)" fill="#263238"/>
      <rect id="Rectángulo_985" data-name="Rectángulo 985" width="2.744" height="0.792" transform="translate(13.281 32.07)" fill="#263238"/>
      <rect id="Rectángulo_986" data-name="Rectángulo 986" width="2.744" height="0.792" transform="translate(13.281 22.074)" fill="#263238"/>
      <rect id="Rectángulo_987" data-name="Rectángulo 987" width="2.744" height="0.792" transform="translate(13.423 42.014)" fill="#263238"/>
      <path id="Trazado_2369" data-name="Trazado 2369" d="M312.918,157.521h-1.159l-3.322.018-12.216.033-40.313.025H246.26V157.5c0-13.481.025-25.345.033-33.843,0-4.245.022-7.633.029-10v0c0,2.348,0,5.75.029,10,0,8.5.018,20.355.033,33.843l-.095-.094h9.618l40.313.029,12.216.029,3.322.018h.865Z" transform="translate(-228.893 -94.203)" fill="#263238"/>
      <path id="Trazado_2370" data-name="Trazado 2370" d="M318.479,182.984c0,.051-14.481.095-32.35.095s-32.35-.044-32.35-.095,14.477-.094,32.35-.094S318.479,182.93,318.479,182.984Z" transform="translate(-233.68 -140.574)" fill="#263238"/>
      <path id="Trazado_2371" data-name="Trazado 2371" d="M318.479,155.624c0,.051-14.481.095-32.35.095s-32.35-.044-32.35-.095,14.477-.094,32.35-.094S318.479,155.574,318.479,155.624Z" transform="translate(-233.68 -123.159)" fill="#263238"/>
      <path id="Trazado_2372" data-name="Trazado 2372" d="M318.479,128.124c0,.055-14.481.094-32.35.094s-32.35-.04-32.35-.094,14.477-.094,32.35-.094S318.479,128.074,318.479,128.124Z" transform="translate(-233.68 -105.654)" fill="#263238"/>
      <path id="Trazado_2373" data-name="Trazado 2373" d="M318.479,210.345c0,.051-14.481.094-32.35.094s-32.35-.044-32.35-.094,14.477-.095,32.35-.095S318.479,210.294,318.479,210.345Z" transform="translate(-233.68 -157.989)" fill="#263238"/>
      <path id="Trazado_2374" data-name="Trazado 2374" d="M255.66,156.7v-8.822l5.5-8.545,3.733,2.864,7.659-11.9,4.518,3.18,6.285-10.977,5.089,4.162,7.688-14.554,8.251,16.273,6.652-8.142,7.855-2.25V156.7Z" transform="translate(-234.876 -95.521)" fill="#455a64"/>
      <path id="Trazado_2375" data-name="Trazado 2375" d="M319.7,119.581a1.015,1.015,0,0,1-.138,0h-2l-6.03.025.04-.022-6.463,8.476-.025.029H288.871l.08-.044-6.8,11.319c-2.315,3.853-4.558,7.579-6.677,11.1l-.069.12-.08-.113-8.767-12.042h.127l-7.967,12.46-2.221,3.446c-.254.393-.451.694-.589.9s-.207.305-.207.305.062-.109.189-.316l.567-.912c.505-.8,1.243-1.977,2.181-3.471l7.924-12.493.062-.094.069.091,8.785,12.027h-.153l6.655-11.093,6.808-11.319.025-.044h.073l16.175.018-.058.029,6.5-8.411v-.022h.025l6.03.025h2Z" transform="translate(-234.902 -100.244)" fill="#263238"/>
      <path id="Trazado_2376" data-name="Trazado 2376" d="M290.824,178.146a.622.622,0,1,1-.622-.6.611.611,0,0,1,.622.6Z" transform="translate(-256.468 -137.175)" fill="#263238"/>
      <path id="Trazado_2377" data-name="Trazado 2377" d="M342.184,148.956a.622.622,0,1,1-.618-.6.607.607,0,0,1,.618.6Z" transform="translate(-289.16 -118.595)" fill="#263238"/>
      <ellipse id="Elipse_405" data-name="Elipse 405" cx="0.622" cy="0.596" rx="0.622" ry="0.596" transform="translate(66.287 27.166)" fill="#263238"/>
      <path id="Trazado_2378" data-name="Trazado 2378" d="M206.9,73.787a.727.727,0,1,1-.727-.727A.727.727,0,0,1,206.9,73.787Z" transform="translate(-202.917 -70.665)" fill="#263238"/>
      <path id="Trazado_2379" data-name="Trazado 2379" d="M212.664,73.787a.727.727,0,1,1-.727-.727A.727.727,0,0,1,212.664,73.787Z" transform="translate(-206.583 -70.665)" fill="#263238"/>
      <path id="Trazado_2380" data-name="Trazado 2380" d="M218.454,73.787a.727.727,0,1,1-.727-.727A.727.727,0,0,1,218.454,73.787Z" transform="translate(-210.268 -70.665)" fill="#263238"/>
      <path id="Trazado_2381" data-name="Trazado 2381" d="M292.443,82.7c0,.051-20.922.095-46.725.095S199,82.752,199,82.7s20.918-.095,46.729-.095S292.443,82.65,292.443,82.7Z" transform="translate(-198.811 -76.743)" fill="#263238"/>
    </g>
    <g id="freepik--money-box--inject-26" transform="translate(39.106 114.769)">
      <path id="Trazado_2382" data-name="Trazado 2382" d="M39.4,322.677l1.966,7.062a8.124,8.124,0,0,0,9.109,5.816h0s3.722,5.307,5.31,6.179l1.432,11.315h8.494l.672-4.583A44.646,44.646,0,0,0,85.705,351.9c10.755-.571,13.332-3.722,13.332-3.722l1.287,4.871h9.6l1.577-12.46s11.74-10.454,8.723-22.626c0,0,8.447-5.768,5.583-13.983l-1.719-.774s-2.722,4.867-5.587,5.87c0,0-7.706-24.775-36.711-22.768a45.1,45.1,0,0,0-18.846,3.864s-10.177-5.3-17.756-1.432c0,0-.142,8.723,4.151,13.75,0,0-3.722,8.305-4,10.025l-1.109.443A8.127,8.127,0,0,0,39.4,322.677Z" transform="translate(-39.106 -286.192)" fill="#ffb300"/>
      <path id="Trazado_2383" data-name="Trazado 2383" d="M88.057,353.134a2.374,2.374,0,1,1-2.374-2.374A2.373,2.373,0,0,1,88.057,353.134Z" transform="translate(-67.243 -327.291)" fill="#263238"/>
      <g id="Grupo_2033" data-name="Grupo 2033" transform="translate(31.748 4.318)" opacity="0.6">
        <path id="Trazado_2384" data-name="Trazado 2384" d="M126.45,300.158l1.065,2.988s12.907-3.842,21.227,0l1.174-2.988S139.782,295.465,126.45,300.158Z" transform="translate(-126.45 -298.072)"/>
      </g>
      <path id="Trazado_2385" data-name="Trazado 2385" d="M148.608,310.379a2,2,0,0,1-.236-.138c-.153-.1-.382-.233-.676-.4a15.886,15.886,0,0,0-2.628-1.192,20.058,20.058,0,0,0-4.165-.96,33.338,33.338,0,0,0-5.241-.2,51.148,51.148,0,0,0-5.238.418,21.247,21.247,0,0,0-4.165.97,13.671,13.671,0,0,0-2.61,1.221c-.585.363-.883.585-.9.567a1.573,1.573,0,0,1,.214-.174,6.838,6.838,0,0,1,.643-.454,12.721,12.721,0,0,1,2.606-1.283,20.448,20.448,0,0,1,4.184-1.018,48.406,48.406,0,0,1,5.26-.425,32.347,32.347,0,0,1,5.267.211,19.811,19.811,0,0,1,4.191,1.007,14.963,14.963,0,0,1,2.617,1.254c.294.182.516.331.658.436A1.72,1.72,0,0,1,148.608,310.379Z" transform="translate(-92.347 -299.617)" fill="#263238"/>
      <g id="Grupo_2034" data-name="Grupo 2034" transform="translate(3.252 32.092)" opacity="0.2">
        <path id="Trazado_2386" data-name="Trazado 2386" d="M50.526,375.736a2.65,2.65,0,0,0-.636-.978,1.007,1.007,0,0,0-1.09-.193h0a1.537,1.537,0,0,0-.545.869,8.582,8.582,0,0,0,1.05,6.321,1.09,1.09,0,0,0,.727.516c.651.113.992-.48,1.152-1.018A8,8,0,0,0,50.526,375.736Z" transform="translate(-48.052 -374.483)"/>
      </g>
      <path id="Trazado_2387" data-name="Trazado 2387" d="M60.83,372.225a2.683,2.683,0,0,1,0-.542,5.616,5.616,0,0,0,0-.636c0-.247,0-.531,0-.843a8,8,0,0,0-.08-1.014q-.071-.545-.174-1.156a14.9,14.9,0,0,0-1.908-4.969,11.329,11.329,0,0,0-.643-.974c-.222-.291-.422-.567-.622-.811s-.389-.447-.552-.632-.313-.338-.436-.462a3.067,3.067,0,0,1-.363-.4,3.042,3.042,0,0,1,.422.345,5.994,5.994,0,0,1,.462.44,7.708,7.708,0,0,1,.578.622c.207.236.429.5.647.8s.436.629.665.978a15.376,15.376,0,0,1,1.207,2.41,15.573,15.573,0,0,1,.727,2.606c.062.411.131.8.156,1.17s.051.727.058,1.025,0,.6,0,.851a5.732,5.732,0,0,1-.047.636A3.46,3.46,0,0,1,60.83,372.225Z" transform="translate(-49.891 -333.039)" fill="#263238"/>
      <path id="Trazado_2388" data-name="Trazado 2388" d="M63.467,366.589c-.036,0-.174-.6-.578-1.519a11.454,11.454,0,0,0-.832-1.545,12.689,12.689,0,0,0-1.33-1.661,12.474,12.474,0,0,0-1.628-1.4,11.2,11.2,0,0,0-1.508-.894c-.9-.44-1.5-.6-1.49-.64a1.738,1.738,0,0,1,.425.1,3.855,3.855,0,0,1,.491.164,6.126,6.126,0,0,1,.632.258,10.265,10.265,0,0,1,1.552.872,11.541,11.541,0,0,1,1.661,1.41,11.37,11.37,0,0,1,1.341,1.723,10.112,10.112,0,0,1,.811,1.585c.1.233.167.454.233.643a4.091,4.091,0,0,1,.138.494A1.643,1.643,0,0,1,63.467,366.589Z" transform="translate(-49.923 -332.491)" fill="#263238"/>
      <path id="Trazado_2389" data-name="Trazado 2389" d="M49.143,375.994a.363.363,0,0,1,.124-.363.727.727,0,0,1,.433-.207.818.818,0,0,1,.607.189,3.486,3.486,0,0,1,.818,1.37,9.7,9.7,0,0,1,.727,3.8,3.166,3.166,0,0,1-.287,1.57.949.949,0,0,1-.945.476c-.269-.051-.363-.2-.342-.2a.9.9,0,0,0,.363.127.88.88,0,0,0,.821-.473,3.122,3.122,0,0,0,.229-1.5,10.239,10.239,0,0,0-.185-1.9,10.5,10.5,0,0,0-.523-1.836,3.541,3.541,0,0,0-.745-1.33.683.683,0,0,0-.9-.029A.585.585,0,0,0,49.143,375.994Z" transform="translate(-45.489 -342.987)" fill="#263238"/>
      <path id="Trazado_2390" data-name="Trazado 2390" d="M93.768,381.61a.974.974,0,0,1,.124.218,2.436,2.436,0,0,1,.16.658,2.781,2.781,0,0,1-2.6,3.1,2.4,2.4,0,0,1-.676-.044c-.156-.036-.236-.069-.236-.084a6.7,6.7,0,0,0,.9,0,2.781,2.781,0,0,0,2.479-2.955A7.438,7.438,0,0,0,93.768,381.61Z" transform="translate(-71.845 -346.928)" fill="#263238"/>
      <path id="Trazado_2391" data-name="Trazado 2391" d="M87.4,339.917a9.286,9.286,0,0,0-2.341-.611,9.038,9.038,0,0,0-2.41.211,1.85,1.85,0,0,1,.676-.262,5.477,5.477,0,0,1,1.748-.138,5.4,5.4,0,0,1,1.7.429A1.963,1.963,0,0,1,87.4,339.917Z" transform="translate(-66.823 -319.869)" fill="#263238"/>
      <path id="Trazado_2392" data-name="Trazado 2392" d="M142.541,291.8l-.091-.029-.265-.1-1.014-.4-.727-.3c-.269-.105-.567-.2-.883-.309-.64-.211-1.352-.491-2.181-.7L136.1,289.6c-.443-.12-.916-.207-1.4-.316-.963-.24-2.017-.385-3.119-.567a41.871,41.871,0,0,0-14.477.534c-1.09.258-2.126.483-3.071.792-.473.145-.941.265-1.374.422l-1.25.451c-.8.265-1.494.6-2.115.854-.309.134-.6.251-.858.363l-.705.363-.981.48-.254.12a.272.272,0,0,1-.091.036s.025,0,.08-.051l.247-.138.967-.513.7-.363c.258-.127.549-.251.854-.389.618-.265,1.309-.607,2.112-.883l1.25-.462c.436-.16.9-.284,1.378-.436.949-.316,1.988-.545,3.079-.811a40.575,40.575,0,0,1,14.506-.531c1.109.185,2.163.338,3.133.582.483.116.96.207,1.4.334l1.279.363c.821.214,1.534.505,2.181.727.316.113.614.214.883.32l.727.316,1,.44.258.12C142.515,291.786,142.544,291.8,142.541,291.8Z" transform="translate(-81.94 -287.439)" fill="#fff"/>
      <path id="Trazado_2393" data-name="Trazado 2393" d="M213.856,303.239a3.911,3.911,0,0,1-1.138-.363,3.787,3.787,0,0,1-1.069-.545,3.97,3.97,0,0,1,1.141.363,3.86,3.86,0,0,1,1.065.545Z" transform="translate(-148.934 -296.464)" fill="#fff"/>
      <path id="Trazado_2394" data-name="Trazado 2394" d="M44.765,364.91c0,.033-.331.171-.832.487a6.586,6.586,0,0,0-2.748,3.584c-.174.567-.218.934-.254.93a.767.767,0,0,1,0-.262,3.893,3.893,0,0,1,.127-.709,5.918,5.918,0,0,1,2.8-3.657,3.756,3.756,0,0,1,.647-.3.775.775,0,0,1,.262-.073Z" transform="translate(-40.26 -336.298)" fill="#fff"/>
      <path id="Trazado_2395" data-name="Trazado 2395" d="M97.38,463.428a1.2,1.2,0,0,0-.218-.2,1.116,1.116,0,0,0-.785-.193,1.374,1.374,0,0,0-1.036.662,2.966,2.966,0,0,0-.363,1.614h-.167a2,2,0,0,0-.534-1.578,1.581,1.581,0,0,0-1.734-.363,1.229,1.229,0,0,0-.727.912,1.2,1.2,0,0,0,.265,1.072l-.149.091a4.638,4.638,0,0,0-1.029-1.868,1.625,1.625,0,0,0-1.512-.473,1.218,1.218,0,0,0-.789.694,1.549,1.549,0,0,0-.08.389.647.647,0,0,1,.025-.407,1.254,1.254,0,0,1,.811-.781,1.734,1.734,0,0,1,1.65.465,4.682,4.682,0,0,1,1.09,1.919l.149.407-.294-.32a1.378,1.378,0,0,1-.316-1.232,1.421,1.421,0,0,1,.847-1.05,1.774,1.774,0,0,1,1.945.407A2.181,2.181,0,0,1,95,465.315h-.167a3.028,3.028,0,0,1,.411-1.687,1.527,1.527,0,0,1,.534-.512,1.545,1.545,0,0,1,.607-.174,1.141,1.141,0,0,1,.825.251A.607.607,0,0,1,97.38,463.428Z" transform="translate(-70.547 -398.694)" fill="#263238"/>
    </g>
    <g id="freepik--Character--inject-26" transform="translate(109.335 64.967)">
      <path id="Trazado_2396" data-name="Trazado 2396" d="M240.763,462.37,240.138,465s-4.307,5.594-5.634,5.318c-.872-.178.2-1.636,1.817-5.885l.363-1.752Z" transform="translate(-233.512 -348.531)" fill="#455a64"/>
      <path id="Trazado_2397" data-name="Trazado 2397" d="M234.567,473.025a.531.531,0,0,0,.229.222.8.8,0,0,0,.825-.116,24.654,24.654,0,0,0,2.141-2.028c.8-.836,1.454-1.643,1.937-2.235l.549-.709c.055-.069.105-.131.149-.193a.442.442,0,0,1,.058-.065.442.442,0,0,1-.058.065l-.138.2c-.12.174-.3.422-.531.727a27.436,27.436,0,0,1-1.926,2.254,21.229,21.229,0,0,1-2.181,2.025,1,1,0,0,1-.487.178.727.727,0,0,1-.382-.084.458.458,0,0,1-.182-.167.243.243,0,0,1,0-.076Z" transform="translate(-233.75 -352.051)" fill="#263238"/>
      <path id="Trazado_2398" data-name="Trazado 2398" d="M236.24,476.914a.683.683,0,0,1,.363-.04,1.846,1.846,0,0,1,.811.28,1.479,1.479,0,0,1,.589.625.756.756,0,0,1,.094.345,1.962,1.962,0,0,0-.142-.32,1.577,1.577,0,0,0-.582-.582,2.007,2.007,0,0,0-.778-.294,3.419,3.419,0,0,0-.356-.015Z" transform="translate(-234.815 -357.758)" fill="#263238"/>
      <path id="Trazado_2399" data-name="Trazado 2399" d="M247.181,468.783a.392.392,0,0,1-.055-.127,2.86,2.86,0,0,1-.084-.363,1.981,1.981,0,0,1,.2-1.2,1.865,1.865,0,0,1,.872-.843,1.261,1.261,0,0,1,.363-.109.418.418,0,0,1,.134,0,2.909,2.909,0,0,0-.469.167,1.908,1.908,0,0,0-.825.832,2.061,2.061,0,0,0-.214,1.156C247.134,468.594,247.192,468.779,247.181,468.783Z" transform="translate(-241.678 -350.928)" fill="#263238"/>
      <path id="Trazado_2400" data-name="Trazado 2400" d="M250.845,463.6s-.08.363-.16.84a2.883,2.883,0,0,1-.225.829s.069-.363.149-.843a2.726,2.726,0,0,1,.236-.825Z" transform="translate(-243.867 -349.314)" fill="#263238"/>
      <path id="Trazado_2401" data-name="Trazado 2401" d="M239.89,469a1.032,1.032,0,0,1,.552,0,.966.966,0,0,1,.5.236c0,.022-.225-.095-.516-.16S239.894,469.03,239.89,469Z" transform="translate(-237.138 -352.73)" fill="#263238"/>
      <path id="Trazado_2402" data-name="Trazado 2402" d="M239.65,470.24a.694.694,0,0,1,.465,0,.658.658,0,0,1,.407.225c0,.018-.185-.095-.425-.149S239.654,470.265,239.65,470.24Z" transform="translate(-236.986 -353.515)" fill="#263238"/>
      <path id="Trazado_2403" data-name="Trazado 2403" d="M238.7,471.716a.592.592,0,0,1,.483-.062.578.578,0,0,1,.407.265,1.869,1.869,0,0,0-.425-.189,1.893,1.893,0,0,0-.465-.015Z" transform="translate(-236.381 -354.425)" fill="#263238"/>
      <path id="Trazado_2404" data-name="Trazado 2404" d="M240.71,466.652a5.068,5.068,0,0,0,.505-.171,4.128,4.128,0,0,0,.52-.251c.091-.055.189-.116.284-.182a.352.352,0,0,0,.182-.262c0-.1-.131-.16-.229-.134a.625.625,0,0,0-.265.178c-.16.149-.294.291-.4.414a3.624,3.624,0,0,1-.363.4.526.526,0,0,1,.073-.124c.051-.076.131-.185.236-.316a5.623,5.623,0,0,1,.4-.429.676.676,0,0,1,.3-.2.251.251,0,0,1,.323.2.433.433,0,0,1-.211.327,2.983,2.983,0,0,1-.3.182,3.271,3.271,0,0,1-.534.24,2.909,2.909,0,0,1-.382.105C240.761,466.656,240.71,466.659,240.71,466.652Z" transform="translate(-237.66 -350.567)" fill="#263238"/>
      <path id="Trazado_2405" data-name="Trazado 2405" d="M239.958,465.934a4.722,4.722,0,0,1-.08-.48,2.076,2.076,0,0,0-.145-.5,1.091,1.091,0,0,0-.16-.254c-.065-.073-.167-.138-.247-.091s-.091.167-.08.265a1.246,1.246,0,0,0,.084.287,1.745,1.745,0,0,0,.28.433,3.641,3.641,0,0,0,.363.338c0,.011-.044,0-.113-.065a1.98,1.98,0,0,1-.276-.233,1.662,1.662,0,0,1-.305-.443,1.334,1.334,0,0,1-.095-.309.327.327,0,0,1,.12-.338.284.284,0,0,1,.338.105,1.115,1.115,0,0,1,.171.276,1.927,1.927,0,0,1,.134.52c.018.149.025.273.029.363A.463.463,0,0,1,239.958,465.934Z" transform="translate(-236.683 -349.904)" fill="#263238"/>
      <path id="Trazado_2406" data-name="Trazado 2406" d="M297.383,459.441l.018-3.511-6.561-.08-.091,5.143.407.033c1.817.124,9.229.494,10.446.142C302.963,460.768,297.383,459.441,297.383,459.441Z" transform="translate(-269.512 -344.381)" fill="#455a64"/>
      <path id="Trazado_2407" data-name="Trazado 2407" d="M290.5,469.57h.113l.327.025,1.192.065c1.01.051,2.406.1,3.947.12s2.937,0,3.947,0l1.2-.033h-5.14c-1.541,0-2.933-.062-3.944-.094l-1.2-.044h-.323Z" transform="translate(-269.353 -353.114)" fill="#263238"/>
      <path id="Trazado_2408" data-name="Trazado 2408" d="M314.861,468.588a2.908,2.908,0,0,1,.229-.567,2.8,2.8,0,0,1,.414-.451.865.865,0,0,0-.48.407.88.88,0,0,0-.164.611Z" transform="translate(-284.856 -351.841)" fill="#263238"/>
      <path id="Trazado_2409" data-name="Trazado 2409" d="M309.563,466.643a.849.849,0,0,0,.207-.251c.094-.149.164-.28.145-.294s-.113.1-.211.251S309.541,466.629,309.563,466.643Z" transform="translate(-281.484 -350.904)" fill="#263238"/>
      <path id="Trazado_2410" data-name="Trazado 2410" d="M308.107,466.159c0,.018.12-.051.233-.149s.2-.2.182-.214-.12.055-.233.153S308.093,466.144,308.107,466.159Z" transform="translate(-280.559 -350.71)" fill="#263238"/>
      <path id="Trazado_2411" data-name="Trazado 2411" d="M307.21,465.017a.785.785,0,0,0,.342.051.8.8,0,0,0,.363-.033.778.778,0,0,0-.363-.047A.8.8,0,0,0,307.21,465.017Z" transform="translate(-279.989 -350.193)" fill="#263238"/>
      <path id="Trazado_2412" data-name="Trazado 2412" d="M306.9,463.88a.727.727,0,0,0,.382.116.658.658,0,0,0,.4-.051,2.243,2.243,0,0,0-.378-.022A2.059,2.059,0,0,0,306.9,463.88Z" transform="translate(-279.792 -349.493)" fill="#263238"/>
      <path id="Trazado_2413" data-name="Trazado 2413" d="M310.2,464.988a1.286,1.286,0,0,0,.422,0,2.18,2.18,0,0,0,.451-.091,1.17,1.17,0,0,0,.258-.105.225.225,0,0,0,.109-.127.167.167,0,0,0-.062-.171.778.778,0,0,0-.963.214.745.745,0,0,0-.142.28.225.225,0,0,0,0,.113,1.18,1.18,0,0,1,.2-.363.763.763,0,0,1,.363-.229.643.643,0,0,1,.505.04c.065.051.04.127-.036.171a1.089,1.089,0,0,1-.24.1,2.823,2.823,0,0,1-.436.109A2.081,2.081,0,0,1,310.2,464.988Z" transform="translate(-281.892 -349.83)" fill="#263238"/>
      <path id="Trazado_2414" data-name="Trazado 2414" d="M309.523,464.645a.411.411,0,0,0,.051-.294.676.676,0,0,0-.109-.309.429.429,0,0,0-.364-.222.175.175,0,0,0-.134.2.487.487,0,0,0,.069.189,1.3,1.3,0,0,0,.2.258.632.632,0,0,0,.24.174,2.194,2.194,0,0,1-.2-.214,1.344,1.344,0,0,1-.174-.254c-.058-.091-.095-.251,0-.269s.214.1.276.182a.7.7,0,0,1,.116.276A1.781,1.781,0,0,1,309.523,464.645Z" transform="translate(-281.106 -349.454)" fill="#263238"/>
      <path id="Trazado_2415" data-name="Trazado 2415" d="M290.94,464.535s.185,0,.483.022a2.061,2.061,0,0,1,1.7,1.4c.1.284.105.473.12.473a.427.427,0,0,0,0-.134,1.561,1.561,0,0,0-.065-.363,2,2,0,0,0-1.752-1.432,1.929,1.929,0,0,0-.363,0A.364.364,0,0,0,290.94,464.535Z" transform="translate(-269.633 -349.879)" fill="#263238"/>
      <path id="Trazado_2416" data-name="Trazado 2416" d="M292.742,457.12a10.977,10.977,0,0,0-.076,1.348,11.5,11.5,0,0,0,0,1.352,11.57,11.57,0,0,0,.073-1.352,11.968,11.968,0,0,0,0-1.349Z" transform="translate(-270.718 -345.19)" fill="#263238"/>
      <path id="Trazado_2417" data-name="Trazado 2417" d="M299.61,468.18a3.914,3.914,0,0,0,.96.105,3.554,3.554,0,0,0,.963-.065c0-.022-.433,0-.96,0S299.614,468.154,299.61,468.18Z" transform="translate(-275.152 -352.226)" fill="#263238"/>
      <path id="Trazado_2418" data-name="Trazado 2418" d="M296.063,468.134c-.018,0,.033.091.076.189s.065.185.087.185.036-.1,0-.218S296.078,468.116,296.063,468.134Z" transform="translate(-272.892 -352.198)" fill="#263238"/>
      <path id="Trazado_2419" data-name="Trazado 2419" d="M294.75,466.453a.41.41,0,0,0,.095.153c.069.069.134.113.149.1s-.025-.084-.091-.153S294.768,466.435,294.75,466.453Z" transform="translate(-272.058 -351.128)" fill="#263238"/>
      <path id="Trazado_2420" data-name="Trazado 2420" d="M292.849,465.605c0,.022.091.022.189.058s.164.087.182.073-.036-.105-.156-.149S292.842,465.587,292.849,465.605Z" transform="translate(-270.848 -350.567)" fill="#263238"/>
      <path id="Trazado_2421" data-name="Trazado 2421" d="M291.49,465.271c0,.018.029.055.084.076s.105.022.113,0-.029-.055-.08-.076S291.5,465.25,291.49,465.271Z" transform="translate(-269.983 -350.368)" fill="#263238"/>
      <path id="Trazado_2422" data-name="Trazado 2422" d="M264.637,280.76l-2.523,65.9-10.243.214,1.7-57.1-11.515,57.535H232.32l12.544-66.418Z" transform="translate(-232.32 -232.933)" fill="#263238"/>
      <path id="Trazado_2423" data-name="Trazado 2423" d="M292.85,287.36a6.467,6.467,0,0,1-.116,1.09c-.095.665-.24,1.588-.411,2.6a11.189,11.189,0,0,1-.291,1.432,2.043,2.043,0,0,1-.669,1.007,1.57,1.57,0,0,1-.745.331.6.6,0,0,1-.3,0,1.952,1.952,0,0,0,.96-.425,1.984,1.984,0,0,0,.592-.96,12.807,12.807,0,0,0,.273-1.41c.171-1.014.334-1.93.462-2.592a6.9,6.9,0,0,1,.244-1.072Z" transform="translate(-269.238 -237.134)" fill="#455a64"/>
      <path id="Trazado_2424" data-name="Trazado 2424" d="M291.192,287.916a.6.6,0,0,0,0,.294.363.363,0,0,0,.171.222.309.309,0,0,0,.4-.363.338.338,0,0,0-.2-.2c-.167-.073-.284,0-.294-.025s.095-.149.334-.1a.462.462,0,0,1,.313.262.466.466,0,0,1-.64.563.458.458,0,0,1-.218-.345C291.039,287.989,291.185,287.894,291.192,287.916Z" transform="translate(-269.71 -237.373)" fill="#455a64"/>
      <path id="Trazado_2425" data-name="Trazado 2425" d="M276.042,287.637a1.93,1.93,0,0,1,.2-1.817c.047.022-.1.411-.149.909A8.094,8.094,0,0,1,276.042,287.637Z" transform="translate(-260.06 -236.153)" fill="#455a64"/>
      <path id="Trazado_2426" data-name="Trazado 2426" d="M279.383,287.258a1.588,1.588,0,0,1-.149-.967,1.628,1.628,0,0,1,.284-.941c.047,0-.069.433-.1.952A9.086,9.086,0,0,1,279.383,287.258Z" transform="translate(-262.169 -235.854)" fill="#455a64"/>
      <path id="Trazado_2427" data-name="Trazado 2427" d="M308.8,287.871a5.613,5.613,0,0,1,.058-.989,6.106,6.106,0,0,1,.044-.992,1.85,1.85,0,0,1,.134,1A1.879,1.879,0,0,1,308.8,287.871Z" transform="translate(-280.997 -236.198)" fill="#455a64"/>
      <path id="Trazado_2428" data-name="Trazado 2428" d="M312.463,287.6c-.051-.022.109-.454.145-1.007s-.058-1,0-1.014a2.137,2.137,0,0,1-.138,2.021Z" transform="translate(-283.326 -236.001)" fill="#455a64"/>
      <path id="Trazado_2429" data-name="Trazado 2429" d="M280.186,176.335l6.324-.505c.04-.727,0-3.591,0-3.591a3.16,3.16,0,0,0,2.664-3.039c.033-2.628-.425-8.669-.425-8.669h0a9.141,9.141,0,0,0-9.211,1.145l-.389.3Z" transform="translate(-262.128 -155.925)" fill="#ffbe9d"/>
      <path id="Trazado_2430" data-name="Trazado 2430" d="M293.338,192.294a6.085,6.085,0,0,1-3.428-.974,3.241,3.241,0,0,0,3.435,1.657Z" transform="translate(-268.977 -176.002)" fill="#eb996e"/>
      <path id="Trazado_2431" data-name="Trazado 2431" d="M301.352,172.6a.364.364,0,1,1-.124-.25.363.363,0,0,1,.124.25Z" transform="translate(-275.782 -163.868)" fill="#263238"/>
      <path id="Trazado_2432" data-name="Trazado 2432" d="M301.519,171.306c-.047.047-.331-.164-.727-.164s-.7.2-.745.156.025-.113.156-.207a1.054,1.054,0,0,1,.6-.182.989.989,0,0,1,.585.189C301.5,171.2,301.541,171.306,301.519,171.306Z" transform="translate(-275.422 -163.011)" fill="#263238"/>
      <path id="Trazado_2433" data-name="Trazado 2433" d="M290.122,172.856a.363.363,0,1,1-.124-.25A.363.363,0,0,1,290.122,172.856Z" transform="translate(-268.634 -164.034)" fill="#263238"/>
      <path id="Trazado_2434" data-name="Trazado 2434" d="M290.589,171.542c-.047.051-.331-.16-.727-.16s-.7.2-.745.153.025-.109.156-.2a1,1,0,0,1,.6-.182.989.989,0,0,1,.585.189C290.571,171.433,290.615,171.52,290.589,171.542Z" transform="translate(-268.464 -163.163)" fill="#263238"/>
      <path id="Trazado_2435" data-name="Trazado 2435" d="M296.905,174.586a2.782,2.782,0,0,1,.654-.12c.105,0,.2-.029.218-.1a.512.512,0,0,0-.069-.305l-.305-.785a13.488,13.488,0,0,1-.683-2.054,13.71,13.71,0,0,1,.851,2c.1.273.2.538.291.789a.6.6,0,0,1,.051.407.262.262,0,0,1-.171.153.65.65,0,0,1-.174.025A2.668,2.668,0,0,1,296.905,174.586Z" transform="translate(-273.312 -163.208)" fill="#263238"/>
      <path id="Trazado_2436" data-name="Trazado 2436" d="M293.851,181.25c.065,0,.065.433.44.745s.843.265.847.324-.105.087-.3.091a1.09,1.09,0,0,1-.705-.244.978.978,0,0,1-.363-.629C293.756,181.355,293.8,181.246,293.851,181.25Z" transform="translate(-271.431 -169.592)" fill="#263238"/>
      <path id="Trazado_2437" data-name="Trazado 2437" d="M290.25,167.347c-.04.109-.443.055-.916.113s-.858.189-.923.087c-.025-.047.04-.149.193-.254a1.61,1.61,0,0,1,1.4-.156C290.181,167.2,290.268,167.292,290.25,167.347Z" transform="translate(-268.02 -160.549)" fill="#263238"/>
      <path id="Trazado_2438" data-name="Trazado 2438" d="M301.272,168.088c-.069.091-.363,0-.683,0s-.618.062-.683-.036,0-.138.142-.225a.93.93,0,0,1,.556-.149.97.97,0,0,1,.545.182C301.265,167.947,301.3,168.041,301.272,168.088Z" transform="translate(-275.323 -160.952)" fill="#263238"/>
      <path id="Trazado_2439" data-name="Trazado 2439" d="M276.935,173.2c-.044-.018-1.817-.534-1.748,1.265a1.356,1.356,0,0,0,1.854,1.319C277.044,175.73,276.935,173.2,276.935,173.2Z" transform="translate(-259.604 -164.413)" fill="#ffbe9d"/>
      <path id="Trazado_2440" data-name="Trazado 2440" d="M277.333,176.121a.571.571,0,0,1-.08.047.312.312,0,0,1-.236,0,.774.774,0,0,1-.363-.683,1.025,1.025,0,0,1,.073-.454.364.364,0,0,1,.225-.247.164.164,0,0,1,.189.08c.025.051,0,.087.025.091s.036-.033.022-.105a.215.215,0,0,0-.076-.113.251.251,0,0,0-.174-.04.436.436,0,0,0-.316.291,1.039,1.039,0,0,0-.094.505.807.807,0,0,0,.483.76.334.334,0,0,0,.284-.055C277.333,176.164,277.34,176.124,277.333,176.121Z" transform="translate(-260.457 -165.419)" fill="#eb996e"/>
      <path id="Trazado_2441" data-name="Trazado 2441" d="M286.176,151.512a2.781,2.781,0,0,0-4.318-.832,2.722,2.722,0,0,0-4.474-.582c-.505.574-.767,1.348-1.356,1.817-.512.418-1.2.556-1.719.967a1.985,1.985,0,0,0,.709,3.46,2.134,2.134,0,0,0,1.05,2.908l.262-.109a3.744,3.744,0,0,0,.545-4.129.828.828,0,0,0,.095,0,2.094,2.094,0,0,0,2.733-.625,2.33,2.33,0,0,0,2.508.105.96.96,0,0,1,.363-.171.894.894,0,0,1,.469.142,2.21,2.21,0,0,0,1.276.254,1.221,1.221,0,0,0,.952-.683h.033a1.41,1.41,0,0,0,1.05-1.018A2.09,2.09,0,0,0,286.176,151.512Z" transform="translate(-258.573 -149.177)" fill="#263238"/>
      <path id="Trazado_2442" data-name="Trazado 2442" d="M273.805,212.091l.233-11.849a8.578,8.578,0,0,0-6.157-3.031l-.8-.091-.251-1.952-7.182-.407.363,2.319h0a17.408,17.408,0,0,0-2.788.534,6.973,6.973,0,0,0-5.358,4.445c-.462,1.545-3.409,13-3.409,13l-.6,3.457,6.594-2.392v11.635h19.991C274.514,225.576,273.805,212.091,273.805,212.091Z" transform="translate(-242.212 -178.192)" fill="#ffb300"/>
      <g id="Grupo_2035" data-name="Grupo 2035" transform="translate(5.648 16.568)" opacity="0.2">
        <path id="Trazado_2443" data-name="Trazado 2443" d="M273.805,212.091l.233-11.849a8.578,8.578,0,0,0-6.157-3.031l-.8-.091-.251-1.952-7.182-.407.363,2.319h0a17.408,17.408,0,0,0-2.788.534,6.973,6.973,0,0,0-5.358,4.445c-.462,1.545-3.409,13-3.409,13l-.6,3.457,6.594-2.392v11.635h19.991C274.514,225.576,273.805,212.091,273.805,212.091Z" transform="translate(-247.86 -194.76)"/>
      </g>
      <path id="Trazado_2444" data-name="Trazado 2444" d="M250.837,248.6l9.861-1.4,1.876,3.359-9.167,4.133a4,4,0,0,1-1.628.363h0a3.958,3.958,0,0,1-3.66-2.475l-.3-.727Z" transform="translate(-242.186 -211.571)" fill="#ffb300"/>
      <g id="Grupo_2036" data-name="Grupo 2036" transform="translate(5.634 35.629)" opacity="0.2">
        <path id="Trazado_2445" data-name="Trazado 2445" d="M250.837,248.6l9.861-1.4,1.876,3.359-9.167,4.133a4,4,0,0,1-1.628.363h0a3.958,3.958,0,0,1-3.66-2.475l-.3-.727Z" transform="translate(-247.82 -247.2)"/>
      </g>
      <path id="Trazado_2446" data-name="Trazado 2446" d="M308.906,203.49a7.27,7.27,0,0,1,3.958,3.635c.763,1.752,1.886,10.177,1.886,10.177l1.414,2.73a4.583,4.583,0,0,1,.516,2.119v.418a4.6,4.6,0,0,1-1.032,2.908h0a4.6,4.6,0,0,1-3.162,1.679c-1.414.127-3.122.182-3.486-.233a17.3,17.3,0,0,1-1.61-2.715l4.118-2.181-1.774-3.271Z" transform="translate(-280.104 -183.749)" fill="#ffb300"/>
      <g id="Grupo_2037" data-name="Grupo 2037" transform="translate(27.286 19.741)" opacity="0.2">
        <path id="Trazado_2447" data-name="Trazado 2447" d="M308.906,203.49a7.27,7.27,0,0,1,3.958,3.635c.763,1.752,1.886,10.177,1.886,10.177l1.414,2.73a4.583,4.583,0,0,1,.516,2.119v.418a4.6,4.6,0,0,1-1.032,2.908h0a4.6,4.6,0,0,1-3.162,1.679c-1.414.127-3.122.182-3.486-.233a17.3,17.3,0,0,1-1.61-2.715l4.118-2.181-1.774-3.271Z" transform="translate(-307.39 -203.49)"/>
      </g>
      <path id="Trazado_2448" data-name="Trazado 2448" d="M258.868,254.27a1.315,1.315,0,0,1,.16-.091l.473-.229,1.77-.829,6.041-2.759-.04.127-1.156-2.072-.727-1.287.087.044-7.226.709-2.145.193-.582.044a.665.665,0,0,1-.2,0,1.159,1.159,0,0,1,.2-.036l.578-.073,2.141-.247,7.226-.763h.058l.029.051.727,1.287,1.152,2.072.047.084-.087.04-6.066,2.7-1.792.778-.487.2A1,1,0,0,1,258.868,254.27Z" transform="translate(-246.96 -211.444)" fill="#263238"/>
      <path id="Trazado_2449" data-name="Trazado 2449" d="M269.741,234.583c-.051,0-.091-1.763-.091-3.936s.04-3.936.091-3.936.091,1.763.091,3.936S269.777,234.583,269.741,234.583Z" transform="translate(-256.081 -198.529)" fill="#263238"/>
      <path id="Trazado_2450" data-name="Trazado 2450" d="M312.393,255.516a1.486,1.486,0,0,1,.3-.047,2.791,2.791,0,0,1,.832.047.982.982,0,0,1,.52.3,1.319,1.319,0,0,1,.273.625,1.454,1.454,0,0,1-.065.752,1.4,1.4,0,0,1-.5.64,3.708,3.708,0,0,1-1.428.509,6.575,6.575,0,0,1-1.225.12,2.21,2.21,0,0,1-1.109-.193,5.934,5.934,0,0,0,1.109.065,7.268,7.268,0,0,0,1.192-.156,3.685,3.685,0,0,0,1.356-.491,1.247,1.247,0,0,0,.505-1.218,1.228,1.228,0,0,0-.222-.56.891.891,0,0,0-.44-.269,3.4,3.4,0,0,0-.8-.1A1.3,1.3,0,0,1,312.393,255.516Z" transform="translate(-281.759 -216.827)" fill="#263238"/>
      <path id="Trazado_2451" data-name="Trazado 2451" d="M314,265.382a2.054,2.054,0,0,1-.727.084,4.471,4.471,0,0,1-1.7-.28,3.671,3.671,0,0,1-.847-.454,1.984,1.984,0,0,1-.523-.589,1.559,1.559,0,0,1-.254-.672c.029,0,.124.247.363.6a2.126,2.126,0,0,0,.516.527,3.874,3.874,0,0,0,.814.414,5.189,5.189,0,0,0,1.639.324,5.091,5.091,0,0,1,.723.044Z" transform="translate(-281.727 -221.927)" fill="#263238"/>
      <path id="Trazado_2452" data-name="Trazado 2452" d="M320.168,245.23a3.719,3.719,0,0,1-.487.585c-.316.345-.763.818-1.265,1.33s-.96.974-1.3,1.3a3.233,3.233,0,0,1-.574.5,3.151,3.151,0,0,1,.483-.589c.316-.363.763-.821,1.261-1.334A16.948,16.948,0,0,1,320.168,245.23Z" transform="translate(-285.928 -210.317)" fill="#263238"/>
      <path id="Trazado_2453" data-name="Trazado 2453" d="M313.981,232.283a27.946,27.946,0,0,1,0-4.5,27.946,27.946,0,0,1,0,4.5Z" transform="translate(-284.234 -199.21)" fill="#263238"/>
      <path id="Trazado_2454" data-name="Trazado 2454" d="M283.484,207.525c0,.051-4.438.094-9.912.094s-9.912-.044-9.912-.094,4.438-.094,9.912-.094S283.484,207.47,283.484,207.525Z" transform="translate(-252.269 -186.256)" fill="#fafafa"/>
      <path id="Trazado_2455" data-name="Trazado 2455" d="M288.237,201.213a31.186,31.186,0,0,1-3.42.076,30,30,0,0,1-3.417-.116,63.091,63.091,0,0,1,6.837.04Z" transform="translate(-263.561 -182.217)" fill="#263238"/>
      <path id="Trazado_2456" data-name="Trazado 2456" d="M281.973,218.538c0,.051-5.387.095-12.035.095s-12.038-.044-12.038-.095,5.39-.1,12.038-.1S281.973,218.484,281.973,218.538Z" transform="translate(-248.602 -193.265)" fill="#fafafa"/>
      <path id="Trazado_2457" data-name="Trazado 2457" d="M280.618,229.835c0,.055-5.816.095-13.009.095s-13.009-.04-13.009-.095,5.816-.094,13.009-.094S280.618,229.795,280.618,229.835Z" transform="translate(-246.502 -200.457)" fill="#fafafa"/>
      <path id="Trazado_2458" data-name="Trazado 2458" d="M279.377,240.885c0,.051-6.146.094-13.729.094s-13.729-.044-13.729-.094,6.146-.095,13.729-.095S279.377,240.83,279.377,240.885Z" transform="translate(-244.796 -207.491)" fill="#fafafa"/>
      <path id="Trazado_2459" data-name="Trazado 2459" d="M279.1,258.835c0,.051-6.83.095-15.266.095s-15.266-.044-15.266-.095,6.83-.095,15.266-.095S279.1,258.776,279.1,258.835Z" transform="translate(-242.663 -218.916)" fill="#fafafa"/>
      <path id="Trazado_2460" data-name="Trazado 2460" d="M285.269,271.4c0,.051-4.507.095-10.065.095s-10.065-.044-10.065-.095,4.5-.095,10.065-.095S285.269,271.35,285.269,271.4Z" transform="translate(-253.211 -226.917)" fill="#fafafa"/>
      <path id="Trazado_2461" data-name="Trazado 2461" d="M292.277,240.753l-.214-.16a4.921,4.921,0,0,0-3.882-.9h0a6.757,6.757,0,0,0-3.02,1.418l-1.69,1.392,1.8,3.22,1.225-1.712s1.141,1.548,1.345,1.385a2.623,2.623,0,0,0,.447-.651l-.814-1.141,1.956.407,2.853-1.3-1.225-1.548,1.225.407Z" transform="translate(-264.878 -206.738)" fill="#ffbe9d"/>
      <path id="Trazado_2462" data-name="Trazado 2462" d="M288.417,239.4,282.14,247l.483.52,10.185-1.552,5.052-7.6-.469-.422Z" transform="translate(-264.032 -205.683)" fill="#263238"/>
      <path id="Trazado_2463" data-name="Trazado 2463" d="M300.686,247.47h0a.967.967,0,0,0-.905.618,2.119,2.119,0,0,1-.618.985,2.2,2.2,0,0,1-1.647.244c-.411-.2-2.057-1.683-2.344-1.519s-.534.534-.247.865,1.817,1.316,1.523,1.647-3.5-1.12-4-.992-.781.429-.494.629a18.549,18.549,0,0,1,2.592,1.309s-3.293-.865-3.417-.658-.327.534,0,.658,3.17.865,3.417.989a5.987,5.987,0,0,0,1.269.363,13.616,13.616,0,0,1,1.327.418,2.879,2.879,0,0,0,2.046-.055l.334-.134a1.309,1.309,0,0,0,.811-1.29l-.065-1.12.363-.927Z" transform="translate(-269.641 -211.743)" fill="#ffbe9d"/>
      <path id="Trazado_2464" data-name="Trazado 2464" d="M298.782,239.294a.792.792,0,0,1-.189.047l-.545.094-2.006.323-2.981.454-1.759.265a3.38,3.38,0,0,0-1.7.691,11.19,11.19,0,0,0-1.239,1.428c-.389.48-.76.945-1.116,1.388l-1.894,2.344-1.29,1.577-.363.422a.848.848,0,0,1-.134.138,1.2,1.2,0,0,1,.105-.16l.331-.443,1.243-1.607,1.865-2.374,1.09-1.4a11.313,11.313,0,0,1,1.265-1.454,3.551,3.551,0,0,1,1.792-.727l1.763-.254,2.988-.418,2.017-.265.549-.062A.647.647,0,0,1,298.782,239.294Z" transform="translate(-264.935 -206.537)" fill="#455a64"/>
      <path id="Trazado_2465" data-name="Trazado 2465" d="M311.738,243.88a.916.916,0,0,0-.284.229.294.294,0,0,0,0,.342.32.32,0,0,0,.422,0,.4.4,0,0,0,.16-.244.291.291,0,0,0-.084-.273.225.225,0,0,0-.276,0" transform="translate(-282.656 -209.458)" fill="#fafafa"/>
    </g>
    <g id="freepik--speech-bubble--inject-26" transform="translate(90.686 65.73)">
      <path id="Trazado_2466" data-name="Trazado 2466" d="M199.012,167.844l-1.846-3.271a8.723,8.723,0,1,0-2.086,2.323h0Z" transform="translate(-181.014 -151.275)" fill="#ffb300"/>
      <path id="Trazado_2467" data-name="Trazado 2467" d="M196.73,170.213a1.15,1.15,0,1,1,1.145,1.287A1.152,1.152,0,0,1,196.73,170.213Zm1.625,0c0-.5-.193-.727-.48-.727s-.48.247-.48.727.2.727.48.727S198.355,170.715,198.355,170.213Zm2.261-1.232h.781l-3.14,4.663h-.781Zm-.756,3.431A1.148,1.148,0,1,1,201,173.7,1.154,1.154,0,0,1,199.86,172.412Zm1.617,0c0-.494-.193-.727-.48-.727s-.48.24-.48.727.2.727.48.727S201.477,172.906,201.477,172.412Z" transform="translate(-191.018 -162.513)" fill="#fff"/>
    </g>
  </g>
</svg>
