<svg xmlns="http://www.w3.org/2000/svg" xmlns:xlink="http://www.w3.org/1999/xlink" width="308.395" height="238.864" viewBox="0 0 308.395 238.864">
  <defs>
    <linearGradient id="linear-gradient" x1="0.343" y1="0.043" x2="0.705" y2="0.959" gradientUnits="objectBoundingBox">
      <stop offset="0" stop-color="#ffb300"/>
      <stop offset="1" stop-color="#78d64b"/>
    </linearGradient>
  </defs>
  <g id="Grupo_1997" data-name="Grupo 1997" transform="translate(-519.171 -1078.871)">
    <g id="freepik--Shadow--inject-73" transform="translate(569.457 1286.447)" opacity="0.34">
      <ellipse id="Elipse_371" data-name="Elipse 371" cx="109.772" cy="15.644" rx="109.772" ry="15.644" transform="translate(0 0)" fill="#d4d6d7"/>
      <ellipse id="Elipse_372" data-name="Elipse 372" cx="109.772" cy="15.644" rx="109.772" ry="15.644" transform="translate(0 0)" fill="#d4d6d7" opacity="0.5" style="isolation: isolate"/>
    </g>
    <g id="freepik--background-simple--inject-73" transform="translate(519.171 1078.871)" opacity="0.25">
      <path id="Trazado_1429" data-name="Trazado 1429" d="M320.3,78.5c-26.407-22.178-70.863-25.6-103.542-13.766-24.343,8.833-43.194,28.526-66.535,39.768-16.458,7.9-34.629,11.349-52.173,16.435-19.02,5.514-37.275,12.634-49.771,28.832-13.835,17.926-17.513,41.6-11.166,63.162,6.646,22.568,23.157,41.45,43.11,53.909s43.179,18.9,66.535,21.9c31.593,4.053,64.34,1.965,94.281-8.948,32.885-12.014,60.616-34.713,77.395-65.678,14.867-27.448,27.631-66.5,23.157-98.005C339.461,101.135,331.8,88.164,320.3,78.5Z" transform="translate(-34.099 -58.04)" fill="url(#linear-gradient)"/>
      <path id="Trazado_1430" data-name="Trazado 1430" d="M320.3,78.5c-26.407-22.178-70.863-25.6-103.542-13.766-24.343,8.833-43.194,28.526-66.535,39.768-16.458,7.9-34.629,11.349-52.173,16.435-19.02,5.514-37.275,12.634-49.771,28.832-13.835,17.926-17.513,41.6-11.166,63.162,6.646,22.568,23.157,41.45,43.11,53.909s43.179,18.9,66.535,21.9c31.593,4.053,64.34,1.965,94.281-8.948,32.885-12.014,60.616-34.713,77.395-65.678,14.867-27.448,27.631-66.5,23.157-98.005C339.461,101.135,331.8,88.164,320.3,78.5Z" transform="translate(-34.099 -58.04)" opacity="0.7" fill="url(#linear-gradient)" style="isolation: isolate"/>
    </g>
    <path id="Trazado_1638" data-name="Trazado 1638" d="M251.363,98.642V204a4.7,4.7,0,0,1-4.535,4.882H55.99A4.711,4.711,0,0,1,51.45,204V98.642a4.711,4.711,0,0,1,4.54-4.882H246.845A4.7,4.7,0,0,1,251.363,98.642Z" transform="translate(521.962 1038.301)" fill="#fff" stroke="#394250" stroke-linecap="round" stroke-linejoin="round" stroke-width="1"/>
    <path id="Trazado_1639" data-name="Trazado 1639" d="M251.363,98.316v7.052H51.45V98.316a4.546,4.546,0,0,1,4.54-4.546H246.845A4.535,4.535,0,0,1,251.363,98.316Z" transform="translate(521.962 1038.296)" fill="#394250"/>
    <ellipse id="Elipse_382" data-name="Elipse 382" cx="1.817" cy="1.817" rx="1.817" ry="1.817" transform="translate(747.572 1136.037)" fill="#fff"/>
    <path id="Trazado_1641" data-name="Trazado 1641" d="M391.63,102.907a1.817,1.817,0,1,1-1.817-1.817h0A1.817,1.817,0,0,1,391.63,102.907Z" transform="translate(367.968 1034.947)" fill="#fff"/>
    <path id="Trazado_1640" data-name="Trazado 1640" d="M406.91,102.907a1.817,1.817,0,1,1-1.817-1.817h0A1.817,1.817,0,0,1,406.91,102.907Z" transform="translate(360.977 1034.947)" fill="#fff"/>
    <line id="Línea_120" data-name="Línea 120" y2="3.189" transform="translate(717.845 1136.2)" fill="none" stroke="#263238" stroke-linecap="round" stroke-linejoin="round" stroke-width="1.069"/>
    <path id="Trazado_1642" data-name="Trazado 1642" d="M6.29,0H45.013A6.29,6.29,0,0,1,51.3,6.29V75.536a6.29,6.29,0,0,1-6.29,6.29H6.29A6.29,6.29,0,0,1,0,75.536V6.29A6.29,6.29,0,0,1,6.29,0Z" transform="translate(712.123 1150.52)" fill="#e2e3e5"/>
    <rect id="Rectángulo_879" data-name="Rectángulo 879" width="39.983" height="12.834" rx="5.35" transform="translate(717.746 1192.183)" fill="#fff"/>
    <rect id="Rectángulo_880" data-name="Rectángulo 880" width="39.983" height="12.834" rx="5.35" transform="translate(717.746 1175.081)" fill="#fff"/>
    <rect id="Rectángulo_884" data-name="Rectángulo 884" width="120.229" height="81.826" rx="6.29" transform="translate(581.016 1150.52)" fill="#eff2f3"/>
    <rect id="Rectángulo_882" data-name="Rectángulo 882" width="20.006" height="2.489" transform="translate(728.048 1160.342)" fill="#394250"/>
    <rect id="Rectángulo_883" data-name="Rectángulo 883" width="39.359" height="2.489" transform="translate(718.371 1164.841)" fill="#394250"/>
    <g id="freepik--Character--inject-73" transform="translate(565.519 1202.867)">
      <path id="Trazado_1437" data-name="Trazado 1437" d="M250.172,400.594s2.381-1.508,4.621-.586,10.219.944,10.219.944,6.314-.792,9,.542a4.434,4.434,0,0,1,2.777,4.914c-.212,1.568-4.182,5.75-9.395,5.967s-5.641-.955-9.927-1.182c0,0-5.75-.363-7.41-1.085s-3.83-1.318-3.764-4.421S250.172,400.594,250.172,400.594Z" transform="translate(-132.714 -304.56)" fill="#fff"/>
      <path id="Trazado_1438" data-name="Trazado 1438" d="M250.351,400.805s2.414-1.367,6.677-.087,11.776-.613,15.031.515,3.7,3.255,3.287,4.074-3.189,4.133-6.271,4.659-10.03.206-13.214.786c0,0-6.58.38-8.679-2.907S250.351,400.805,250.351,400.805Z" transform="translate(-132.893 -304.771)" fill="#78d64b" opacity="0.25"/>
      <path id="Trazado_1435" data-name="Trazado 1435" d="M164.623,389.24s1.264,4.339.841,6.992c0,0-.5,4.415-1.085,6.77s-1.172,3.987,2.143,4.92,11.456-1.047,13.365-.38,12.78-.825,14.4-1.54,1.877-5.679-1.627-7.4S164.623,389.24,164.623,389.24Z" transform="translate(-95.024 -299.769)" fill="#fff"/>
      <path id="Trazado_1436" data-name="Trazado 1436" d="M165.326,403.09s-.944,5.3-.917,6.27a21.12,21.12,0,0,1,4.942-.792,114.981,114.981,0,0,0,11.592-.315c2.658-.4,7.768-2.273,10.133-2.284a25.37,25.37,0,0,1,4.475.4s.277-1.893-3.455-2.88-17.331-3.846-17.331-3.846S171.727,402.905,165.326,403.09Z" transform="translate(-95.244 -304.528)" fill="#78d64b" opacity="0.25"/>
      <path id="Trazado_1445" data-name="Trazado 1445" d="M166.176,397.688a19.283,19.283,0,0,0,0-7.594c-.857-3.862,5.788-.5,5.788-.5l3.575,3.857-.439.933" transform="translate(-96.018 -299.311)" fill="none" stroke="#394250" stroke-linecap="round" stroke-linejoin="round" stroke-width="1.069"/>
      <path id="Trazado_1440" data-name="Trazado 1440" d="M73.15,380.057s.3,13.989,9.373,15.5,41.436-14.233,41.436-14.233,12.053,6.26,21.122,7.052,22.24,2.479,23.585,3.987,6.379-4.817,3.477-8.614c0,0-9.823-.624-16.018-3.71s-26.449-14.8-30.528-15.519-27.664,10.464-27.664,10.464L90.828,376.5Z" transform="translate(-53.487 -288.444)" fill="#394250"/>
      <path id="Trazado_1439" data-name="Trazado 1439" d="M85.034,381.124l-4.014-7.48L91.966,362.35l9.878,1.177,5.592,8.522-1.394,4.887Z" transform="translate(-57.088 -287.465)" fill="#394250"/>
      <path id="Trazado_1441" data-name="Trazado 1441" d="M121.151,353.958l-1.741-5.56s17.428-19.37,24.843-19.11,8.722,6.818,9.221,11.934a98.263,98.263,0,0,1,0,12.715l-17.043,2.132-12.85,5.739-2.457-7.849" transform="translate(-74.654 -272.336)" fill="#394250"/>
      <path id="Trazado_1442" data-name="Trazado 1442" d="M157.48,357.885c0,.3.6-8.831,3.217-12.915" transform="translate(-92.074 -279.513)" fill="none" stroke="#fff" stroke-linecap="round" stroke-linejoin="round" stroke-width="1.069"/>
      <path id="Trazado_1443" data-name="Trazado 1443" d="M168.429,344.69a25.085,25.085,0,0,0,.033,5.424" transform="translate(-97.024 -279.384)" fill="none" stroke="#fff" stroke-linecap="round" stroke-linejoin="round" stroke-width="1.069"/>
      <path id="Trazado_1446" data-name="Trazado 1446" d="M165.209,418.85a1.66,1.66,0,0,1,1.275-1.682,11.542,11.542,0,0,1,3.119-.054c1.7.054,3.4.125,5.093.141,5.717.049,11.266-1.763,16.978-1.98,1-.038,2.8-.3,3.689.32,1.432,1-1.21,2.973-2.2,3.374a20.556,20.556,0,0,1-7.594,1.2c-3.352-.157-8.6-.136-10.876-.108S168.154,420.96,165.209,418.85Z" transform="translate(-95.61 -311.642)" fill="#394250"/>
      <path id="Trazado_1447" data-name="Trazado 1447" d="M164.82,414.595a12.094,12.094,0,0,1,4.719-.792c5.934-.027,12.476.325,18.139-1.779,2.506-.933,6.6-1.432,8.093,0" transform="translate(-95.432 -309.784)" fill="none" stroke="#394250" stroke-linecap="round" stroke-linejoin="round" stroke-width="1.069"/>
      <path id="Trazado_1448" data-name="Trazado 1448" d="M247.43,407.414s.212,2.43,4.285,3.005,12.3,1.627,15.014,2,10.512-2.577,10.583-6.4-3.287-4.969-5.365-5.039-11.934.358-14.581-.358-4.15-1-5.723-.07" transform="translate(-133.232 -304.675)" fill="none" stroke="#394250" stroke-linecap="round" stroke-linejoin="round" stroke-width="1.069"/>
      <path id="Trazado_1449" data-name="Trazado 1449" d="M279.9,402.13s2.316,1.774,2.533,3.558-4.432,5.289-8.581,5.647-9.465-.374-11.847.542" transform="translate(-139.904 -305.667)" fill="none" stroke="#394250" stroke-linecap="round" stroke-linejoin="round" stroke-width="1.069"/>
      <path id="Trazado_1450" data-name="Trazado 1450" d="M66.726,293.408s3.168,2.349,4.7,1.34a42.247,42.247,0,0,0,4.882-4.828l4.838,2.636,5.077,16.3,3.4,14.407,5.424,2.652v2.305s-3.189,3.3-6.509,4.285-6.943,1.936-9.677,1.3-7.974-18.746-7.974-18.746L57.7,295.794Z" transform="translate(-46.418 -254.323)" fill="#394250"/>
      <path id="Trazado_1451" data-name="Trazado 1451" d="M133.757,351.978l-23.487-5.967,23.487-10.881,22.413,5.717Z" transform="translate(-70.472 -275.01)" fill="#fff" stroke="#394250" stroke-linecap="round" stroke-linejoin="round" stroke-width="1.069"/>
      <path id="Trazado_1452" data-name="Trazado 1452" d="M153.57,338.8l5.251-24.106,21.936-8.37-4.508,21.5Z" transform="translate(-90.285 -261.828)" fill="#fff"/>
      <path id="Trazado_1453" data-name="Trazado 1453" d="M110.27,350.4v1.318l23.628,6.33,22.777-11.413.125-1.313L133.9,356.4Z" transform="translate(-70.472 -279.673)" fill="#394250"/>
      <path id="Trazado_1454" data-name="Trazado 1454" d="M89.25,289.456A37.14,37.14,0,0,1,95.515,300.3c2.1,6.07,6.059,18.915,5.717,23.867l8.37-6.509a51.005,51.005,0,0,1-.906-12.606c.461-6.184.928-16.034-4.48-16.842-5.652-1.21-13.192-3.054-13.192-3.054Z" transform="translate(-60.854 -252.145)" fill="#fff"/>
      <path id="Trazado_1455" data-name="Trazado 1455" d="M53.18,288.62s-8.489,4.546-9.541,6.379-1.665,1.291-1.269,4.188,2.5,12.34,3.01,15.53,2.24,16.962,2.24,16.962a30.234,30.234,0,0,0,4.822,1.627L41.35,347.8s4.182,9.086,12.172,9.368,11.695-7.491,15.15-12.964a64.393,64.393,0,0,0,5.771-12.872l1.676-.309-.624-7.865-1.052.163s-.222-10.968-4.882-19.235S53.18,288.62,53.18,288.62Z" transform="translate(-38.936 -253.729)" fill="#fff"/>
      <path id="Trazado_1456" data-name="Trazado 1456" d="M94.154,287.71s3.694,1.888,4.074,4.263-.835,5.321.938,6.482,3.857,1.4,4.882,4.5.716,17.39,0,19.842-1.736,0-1.736,0l-1.177-6.249L98.716,307.6l-2.392-6.715-2.17-4.654-2.6-5.3Z" transform="translate(-61.906 -253.312)" fill="#78d64b" opacity="0.2" style="isolation: isolate"/>
      <path id="Trazado_1457" data-name="Trazado 1457" d="M104.732,353.169s3.455.456,4.611-.043a4.2,4.2,0,0,0,2.983-3.027,4.183,4.183,0,0,1,3.965-3.086c1.633-.109,5.327-.83,5.967-2.609l-1.6-.114a3.8,3.8,0,0,0,1.486-.814h-.673a31.885,31.885,0,0,0-4.849-2.094c-1.638-.407-3.39-.83-4.936.5s-2.376,4.209-3.005,4.958a6.132,6.132,0,0,1-4.48,1.671Z" transform="translate(-67.695 -277.687)" fill="#fff"/>
      <path id="Trazado_1459" data-name="Trazado 1459" d="M128.251,345.395a2.37,2.37,0,0,0,1.269-.743l-3.206-.613a14.824,14.824,0,0,0-3.406-.542,4,4,0,0,0-2.658,1.47" transform="translate(-75.039 -278.836)" fill="none" stroke="#394250" stroke-linecap="round" stroke-linejoin="round" stroke-width="1.069"/>
      <path id="Trazado_1461" data-name="Trazado 1461" d="M58.042,260.809s4.714,1.844,6.672,4.193c0,0,4.725,3.211,6.688-.32s2.17-10.642,2.17-10.642l1.828-4.063-.705-10.9-5.11-7.675-4.849-3.564-5.267,10.165-6.119,4.166.7,11.391Z" transform="translate(-44.427 -225.918)" fill="#fff"/>
      <path id="Trazado_1462" data-name="Trazado 1462" d="M68.406,236s.228,8.744-6.889,11.966c0,0-2.072,10.615,4.79,12.861,0,0,1.161,4.963-3.77,5.755-6.363-3.119-5.24-6.455-5.24-6.455l-2.2-9.4-.7-6.319,8.136-6.384Z" transform="translate(-44.908 -229.651)" fill="#78d64b"/>
      <path id="Trazado_1463" data-name="Trazado 1463" d="M68.406,236s.228,8.744-6.889,11.966c0,0-2.072,10.615,4.79,12.861,0,0,1.161,4.963-3.77,5.755-6.363-3.119-5.24-6.455-5.24-6.455l-2.2-9.4-.7-6.319,8.136-6.384Z" transform="translate(-44.908 -229.651)" fill="#fff" opacity="0.5" style="isolation: isolate"/>
      <path id="Trazado_1464" data-name="Trazado 1464" d="M74.552,244.49a11.752,11.752,0,0,1,0,3.938c-.3,2.951.423,6.721-.542,9.368s-2.6,6.683-7.1,6.894c-3.45,0-7.052-4.882-7.5-8.088,0,0-4.16-1.953-3.667-4.719s3.162-2.023,3.862,0" transform="translate(-45.505 -233.536)" fill="none" stroke="#394250" stroke-linecap="round" stroke-linejoin="round" stroke-width="1.069"/>
      <path id="Trazado_1465" data-name="Trazado 1465" d="M82.209,254.61a10.273,10.273,0,0,0,.157,4.92,1.7,1.7,0,0,1,.081,1.117,1.042,1.042,0,0,1-.808.57,2.719,2.719,0,0,1-1.02-.087" transform="translate(-56.905 -238.167)" fill="none" stroke="#394250" stroke-linecap="round" stroke-linejoin="round" stroke-width="1.069"/>
      <path id="Trazado_1466" data-name="Trazado 1466" d="M77.557,269.447a3.177,3.177,0,0,1-3.157-.8" transform="translate(-54.059 -244.591)" fill="none" stroke="#394250" stroke-linecap="round" stroke-linejoin="round" stroke-width="1.069"/>
      <path id="Trazado_1467" data-name="Trazado 1467" d="M62.281,278.3c1.2-3.059-1.041-12.232-1.041-12.232" transform="translate(-48.037 -243.41)" fill="none" stroke="#394250" stroke-linecap="round" stroke-linejoin="round" stroke-width="1.069"/>
      <path id="Trazado_1468" data-name="Trazado 1468" d="M73.527,251.11s-2.8-2.441-4.117,1.172" transform="translate(-51.776 -236.196)" fill="none" stroke="#394250" stroke-linecap="round" stroke-linejoin="round" stroke-width="1.069"/>
      <path id="Trazado_1469" data-name="Trazado 1469" d="M84.48,250.4a2.628,2.628,0,0,1,.971-1.117,1.269,1.269,0,0,1,1.41.065" transform="translate(-58.671 -235.647)" fill="none" stroke="#394250" stroke-linecap="round" stroke-linejoin="round" stroke-width="1.069"/>
      <ellipse id="Elipse_374" data-name="Elipse 374" cx="0.466" cy="1.052" rx="0.466" ry="1.052" transform="translate(20.439 17.241)" fill="#394250"/>
      <path id="Trazado_1470" data-name="Trazado 1470" d="M85.413,256.272c0,.58-.206,1.052-.466,1.052s-.466-.472-.466-1.052.206-1.052.466-1.052S85.413,255.692,85.413,256.272Z" transform="translate(-58.671 -238.446)" fill="#394250"/>
      <path id="Trazado_1472" data-name="Trazado 1472" d="M50.1,241.07s10.48-3.884,10.306-10.447a14.462,14.462,0,0,0,5.685,6.422s-1.128-6-2.441-8.608-9.145-4.659-12.145-4.025-8.782,1.839-9.981,11.5,0,16.935-2.821,20.813-2.4,10.583,1.7,11.5a8.614,8.614,0,0,1,2.061-3.4c1.481-1.41,8.825-5.5,8.825-5.5s.32-7.345-1.177-12.373a4.332,4.332,0,0,1-2.967-4.312C47.451,240.039,50.1,241.07,50.1,241.07Z" transform="translate(-36.901 -224.296)" fill="#394250"/>
      <path id="Trazado_1477" data-name="Trazado 1477" d="M52.91,308.1a19.616,19.616,0,0,1,8.348,9.634" transform="translate(-44.226 -262.642)" fill="none" stroke="#78d64b" stroke-linecap="round" stroke-linejoin="round" stroke-width="1.069"/>
      <path id="Trazado_1478" data-name="Trazado 1478" d="M65.52,314.69l1.383,2.658" transform="translate(-49.996 -265.657)" fill="none" stroke="#78d64b" stroke-linecap="round" stroke-linejoin="round" stroke-width="1.069"/>
      <path id="Trazado_1481" data-name="Trazado 1481" d="M61.427,231.44a28.753,28.753,0,0,1-3.8,10.057" transform="translate(-46.386 -227.565)" fill="none" stroke="#78d64b" stroke-linecap="round" stroke-linejoin="round" stroke-width="1.069" opacity="0.5" style="isolation: isolate"/>
      <path id="Trazado_1482" data-name="Trazado 1482" d="M49.461,234.41c-1.964,4.584-1.031,9.818-1.237,14.8a31.6,31.6,0,0,1-3.374,12.9" transform="translate(-40.538 -228.924)" fill="none" stroke="#78d64b" stroke-linecap="round" stroke-linejoin="round" stroke-width="1.069" opacity="0.5" style="isolation: isolate"/>
      <path id="Trazado_1483" data-name="Trazado 1483" d="M74.448,367.36s-6.911,18.7-13.561,23.487-14.033,2.224-19.528-7.014l11.087-14.472" transform="translate(-38.941 -289.757)" fill="none" stroke="#78d64b" stroke-linecap="round" stroke-linejoin="round" stroke-width="2"/>
      <path id="Trazado_1487" data-name="Trazado 1487" d="M75.44,292.594s4.079,2.712,6.091-.792.542-4.692.542-4.692" transform="translate(-54.535 -253.038)" fill="none" stroke="#394250" stroke-linecap="round" stroke-linejoin="round" stroke-width="1.069"/>
      <path id="Trazado_1488" data-name="Trazado 1488" d="M86,284.726a7.1,7.1,0,0,1,3.748.727,14.283,14.283,0,0,1,3.971,2.246,6.087,6.087,0,0,1,2.208,3.884c.168,1.676-.542,3.531.331,4.979.976,1.627,3.4,1.774,4.546,3.282a5.486,5.486,0,0,1,.857,2.571,61.069,61.069,0,0,1,.071,16.067" transform="translate(-59.367 -251.923)" fill="none" stroke="#78d64b" stroke-linecap="round" stroke-linejoin="round" stroke-width="1.069"/>
      <path id="Trazado_1493" data-name="Trazado 1493" d="M153.57,338.8l27.187-32.475-4.508,21.5Z" transform="translate(-90.285 -261.828)" fill="#263238"/>
      <path id="Trazado_1494" data-name="Trazado 1494" d="M153.57,338.8l27.187-32.475-4.508,21.5Z" transform="translate(-90.285 -261.828)" fill="#fff" opacity="0.8" style="isolation: isolate"/>
      <path id="Trazado_1495" data-name="Trazado 1495" d="M183.32,331.9c-.374,1.465-1.465,2.446-2.436,2.2s-1.443-1.627-1.085-3.1,1.47-2.446,2.436-2.2S183.7,330.435,183.32,331.9Z" transform="translate(-102.232 -272.094)" fill="#78d64b"/>
      <path id="Trazado_1496" data-name="Trazado 1496" d="M153.57,338.8l5.251-24.106,21.936-8.37-4.508,21.5Z" transform="translate(-90.285 -261.828)" fill="none" stroke="#394250" stroke-linecap="round" stroke-linejoin="round" stroke-width="1.069"/>
      <path id="Trazado_1497" data-name="Trazado 1497" d="M151.93,337.982l5.142-23.948,22.218-8.353.819.206L158.07,314.4,152.82,338.5Z" transform="translate(-89.534 -261.535)" fill="#394250"/>
      <path id="Trazado_1498" data-name="Trazado 1498" d="M62.758,288.62s-1.931,5.321,1.985,9.292,9.921,5.017,9.921,5.017v.542s-2.6,3.531-1.871,5.348,7.458,15.139,7.458,15.139l3.8-.635a38.62,38.62,0,0,0-4.166-17.9C75.148,296.42,62.758,288.62,62.758,288.62Z" transform="translate(-48.514 -253.729)" fill="#78d64b" opacity="0.2" style="isolation: isolate"/>
      <path id="Trazado_1499" data-name="Trazado 1499" d="M59.77,370.871s.271,3.938,1.768,6.238c0,0,.174-2.9.412-5.451,0,0,2.219,5.674,6.6,7.675a80.434,80.434,0,0,1-3.417-7.675,29.716,29.716,0,0,0,17.266-2.891V367.53s-13.083,3.835-21.524,1.909Z" transform="translate(-47.365 -289.835)" opacity="0.2" style="isolation: isolate"/>
      <path id="Trazado_1500" data-name="Trazado 1500" d="M67.125,324.83l5.424,13.821,6.553,2.17-7.2-.277a13.293,13.293,0,0,0-7.54,1.779,3.644,3.644,0,0,1,1.926-2.251s-.624-.608-3.255.244a14.809,14.809,0,0,1,4.339-2.978Z" transform="translate(-48.856 -270.297)" fill="#78d64b" opacity="0.2" style="isolation: isolate"/>
      <path id="Trazado_1501" data-name="Trazado 1501" d="M114.847,304.737c-1.307-1.41,3.119,2.311,3.727,4.133a17.735,17.735,0,0,1,.629,5.712,22.1,22.1,0,0,0,.434,5.739c.325,1.242,1.031,2.978,1.416,4.2,0,0-3.564-.494-4.518.369l.8-9.015S120.245,310.595,114.847,304.737Z" transform="translate(-72.457 -260.96)" fill="#78d64b" opacity="0.2" style="isolation: isolate"/>
      <path id="Trazado_1502" data-name="Trazado 1502" d="M137.51,343.378l9.259-4.638,2.012.45" transform="translate(-82.936 -276.662)" fill="none" stroke="#394250" stroke-linecap="round" stroke-linejoin="round" stroke-width="1.069"/>
      <path id="Trazado_1503" data-name="Trazado 1503" d="M139.346,357.166l-16.376-4.318,4.7-1.828" transform="translate(-76.283 -282.281)" fill="none" stroke="#394250" stroke-linecap="round" stroke-linejoin="round" stroke-width="1.069"/>
      <line id="Línea_108" data-name="Línea 108" x1="15.275" y2="7.659" transform="translate(50.348 63.814)" fill="none" stroke="#394250" stroke-linecap="round" stroke-linejoin="round" stroke-width="1.069"/>
      <line id="Línea_109" data-name="Línea 109" x1="11.375" y2="5.706" transform="translate(54.015 66.716)" fill="none" stroke="#394250" stroke-linecap="round" stroke-linejoin="round" stroke-width="1.069"/>
      <line id="Línea_110" data-name="Línea 110" x1="7.572" y2="3.797" transform="translate(57.324 69.574)" fill="none" stroke="#394250" stroke-linecap="round" stroke-linejoin="round" stroke-width="1.069"/>
      <line id="Línea_111" data-name="Línea 111" x2="14.749" y2="3.824" transform="translate(49.139 69.227)" fill="none" stroke="#394250" stroke-linecap="round" stroke-linejoin="round" stroke-width="1.069"/>
      <line id="Línea_112" data-name="Línea 112" x2="11.272" y2="2.929" transform="translate(53.326 68.018)" fill="none" stroke="#394250" stroke-linecap="round" stroke-linejoin="round" stroke-width="1.069"/>
      <line id="Línea_113" data-name="Línea 113" x2="9.286" y2="2.408" transform="translate(55.61 66.201)" fill="none" stroke="#394250" stroke-linecap="round" stroke-linejoin="round" stroke-width="1.069"/>
      <line id="Línea_114" data-name="Línea 114" x2="6.954" y2="1.806" transform="translate(58.436 64.785)" fill="none" stroke="#394250" stroke-linecap="round" stroke-linejoin="round" stroke-width="1.069"/>
      <line id="Línea_115" data-name="Línea 115" x2="4.513" y2="1.166" transform="translate(61.332 63.445)" fill="none" stroke="#394250" stroke-linecap="round" stroke-linejoin="round" stroke-width="1.069"/>
      <path id="Trazado_1504" data-name="Trazado 1504" d="M181.39,370.5c2.994,1.041,5.424,2.17,5.424,2.17" transform="translate(-103.014 -291.194)" fill="none" stroke="#78d64b" stroke-linecap="round" stroke-linejoin="round" stroke-width="1"/>
      <path id="Trazado_1506" data-name="Trazado 1506" d="M119.41,377.979a19.432,19.432,0,0,0,2.354-2.8" transform="translate(-74.654 -293.336)" fill="none" stroke="#78d64b" stroke-linecap="round" stroke-linejoin="round" stroke-width="1"/>
      <path id="Trazado_1484" data-name="Trazado 1484" d="M65.47,372.09a18.714,18.714,0,0,0,6.949,10.36" transform="translate(-49.973 -291.922)" fill="none" stroke="#78d64b" stroke-linecap="round" stroke-linejoin="round" stroke-width="1.069"/>
      <path id="Trazado_1485" data-name="Trazado 1485" d="M62.756,371.82a21.619,21.619,0,0,0,.45,9.129" transform="translate(-48.599 -291.798)" fill="none" stroke="#78d64b" stroke-linecap="round" stroke-linejoin="round" stroke-width="1.069"/>
      <path id="Trazado_1475" data-name="Trazado 1475" d="M61.09,352.952c3.065-1.508,5.837-2.17,8.679-.911" transform="translate(-47.969 -282.445)" fill="none" stroke="#78d64b" stroke-linecap="round" stroke-linejoin="round" stroke-width="1.069"/>
      <path id="Trazado_1480" data-name="Trazado 1480" d="M62.645,288.62c-1.459,3.135-.1,6.8,1.985,9.292,2.17,2.6,5.723,4.014,9.015,4.529.358.054.787.141.906.483a.866.866,0,0,1,0,.542c-.494,1.627-2.012,2.918-1.98,4.611a5.229,5.229,0,0,0,.58,1.991,118.849,118.849,0,0,0,6.222,12.015" transform="translate(-48.401 -253.729)" fill="none" stroke="#78d64b" stroke-linecap="round" stroke-linejoin="round" stroke-width="1.069"/>
      <path id="Trazado_1489" data-name="Trazado 1489" d="M113.16,303.5a16.041,16.041,0,0,1,3.548,4.443,7.69,7.69,0,0,1,.667,5.544c-.206.673-.542,1.307-.705,1.985a10.611,10.611,0,0,0-.277,1.985l-.542,7.052" transform="translate(-71.794 -260.537)" fill="none" stroke="#78d64b" stroke-linecap="round" stroke-linejoin="round" stroke-width="1.069"/>
      <path id="Trazado_1490" data-name="Trazado 1490" d="M89.25,283.64c2.663.8,5.289,1.823,8,2.4s5.278.727,7.86,1.741a5.137,5.137,0,0,1,1.085.542c2.219,1.551,2.2,4.676,2.452,7.052.759,7.242-1.231,12.655.8,19.647" transform="translate(-60.854 -251.45)" fill="none" stroke="#78d64b" stroke-linecap="round" stroke-linejoin="round" stroke-width="1"/>
      <path id="Trazado_1476" data-name="Trazado 1476" d="M73.442,339c-1.774-4.79-2.208-10.339-3.032-15.617" transform="translate(-52.233 -269.634)" fill="none" stroke="#78d64b" stroke-linecap="round" stroke-linejoin="round" stroke-width="1.069"/>
      <path id="Trazado_1479" data-name="Trazado 1479" d="M63.16,288.62s13.664,7.854,17.689,18.161S84.326,323.2,84.326,323.2" transform="translate(-48.916 -253.729)" fill="none" stroke="#78d64b" stroke-linecap="round" stroke-linejoin="round" stroke-width="2"/>
      <path id="Trazado_1486" data-name="Trazado 1486" d="M84.48,285.69a53.346,53.346,0,0,1,10.143,18.388c3.84,11.662,4.426,18.068,4.426,18.068" transform="translate(-58.671 -252.388)" fill="none" stroke="#78d64b" stroke-linecap="round" stroke-linejoin="round" stroke-width="1"/>
      <path id="Trazado_1458" data-name="Trazado 1458" d="M105.59,355.918s4.687.819,6.249-1.02,1.02-4.443,4.491-5.045,6.412-1.356,6.574-2.712c0,0-7.138-.678-8.679.542" transform="translate(-68.331 -280.42)" fill="none" stroke="#394250" stroke-linecap="round" stroke-linejoin="round" stroke-width="1.069"/>
      <path id="Trazado_1460" data-name="Trazado 1460" d="M121.531,343.12l-3.716-1.416c-1.709-.651-3.721-1.28-5.278-.32A5.254,5.254,0,0,0,111,343.05a18.357,18.357,0,0,0-1.2,2.17,8.1,8.1,0,0,1-.879,1.627c-1.014,1.28-2.582,1.6-4.215,1.671" transform="translate(-67.928 -277.647)" fill="none" stroke="#394250" stroke-linecap="round" stroke-linejoin="round" stroke-width="1.069"/>
      <path id="Trazado_1473" data-name="Trazado 1473" d="M83.485,231a23.531,23.531,0,0,1,3.873,5.278c2.273,3.976,4.784,8.462,5.923,12.9a13.614,13.614,0,0,1-1.589,10.431A9.548,9.548,0,0,0,90.9,261a7.308,7.308,0,0,0-.412,1.871,10.005,10.005,0,0,1-1.2,4.182,3.494,3.494,0,0,1-3.727,1.682,5.772,5.772,0,0,1-3.086-2.956c-1.085-2.956-1.768-4.838-1.291-7.952,0,0,4.963-4.372,4.925-9.4s.857-8.494-1.183-10.99S83.485,231,83.485,231Z" transform="translate(-57.09 -227.363)" fill="#394250"/>
      <path id="Trazado_1492" data-name="Trazado 1492" d="M91.445,278.583a8.934,8.934,0,0,1-1.774-6.211,14.275,14.275,0,0,1,1.519-3.992,20.711,20.711,0,0,0,1.882-5.251,9.728,9.728,0,0,0-.456-5.495,15.3,15.3,0,0,0-2.2-3.374" transform="translate(-61.015 -238.007)" fill="none" stroke="#78d64b" stroke-linecap="round" stroke-linejoin="round" stroke-width="1.069" opacity="0.5" style="isolation: isolate"/>
      <path id="Trazado_1471" data-name="Trazado 1471" d="M81.058,280.44s-.966,1.931.575,6.157" transform="translate(-56.969 -249.986)" fill="none" stroke="#394250" stroke-linecap="round" stroke-linejoin="round" stroke-width="1.069"/>
      <path id="Trazado_1505" data-name="Trazado 1505" d="M111.34,375.832s25.993-8.814,30.919-8.489a20,20,0,0,1,3.564.624" transform="translate(-70.962 -289.746)" fill="none" stroke="#78d64b" stroke-linecap="round" stroke-linejoin="round" stroke-width="1"/>
      <path id="Trazado_1444" data-name="Trazado 1444" d="M165.4,402.878s-1.286,6.721-.933,8.136c.45,1.8,5.148,1.833,6.482,1.893,2.951.125,5.9-.168,8.847-.119,2.246.038,4.486.277,6.737.244a15,15,0,0,0,6.542-1.351c1.725-.862,2.853-2.088,2.636-4.1-.288-2.647-1.172-3.314-4.828-3.732s-16.56-4.274-16.56-4.274S172.323,403.095,165.4,402.878Z" transform="translate(-95.243 -304.5)" fill="none" stroke="#394250" stroke-linecap="round" stroke-linejoin="round" stroke-width="1.069"/>
      <path id="Trazado_1474" data-name="Trazado 1474" d="M54.176,288.88s-6.878,3.591-9.677,6.238-.266,8.766.9,14.971,2.061,12.118,3.086,21.7c10.057,4.676,19.528.879,28.5-.662l-.624-7.844c-1.307.07-8.136,2.088-14.1.325-3.081-.917-5.592.418-7.713,2.832" transform="translate(-39.796 -253.848)" fill="none" stroke="#78d64b" stroke-linecap="round" stroke-linejoin="round" stroke-width="2"/>
    </g>
    <rect id="Rectángulo_928" data-name="Rectángulo 928" width="41.022" height="9.668" rx="2.586" transform="translate(717.236 1210.706)" fill="#78d64b"/>
    <rect id="Rectángulo_929" data-name="Rectángulo 929" width="17" height="2" transform="translate(729 1214.871)" fill="#fff"/>
  </g>
</svg>
