<svg xmlns="http://www.w3.org/2000/svg" xmlns:xlink="http://www.w3.org/1999/xlink" width="320.146" height="257.775" viewBox="0 0 320.146 257.775">
  <defs>
    <linearGradient id="linear-gradient" x1="0.343" y1="0.043" x2="0.705" y2="0.959" gradientUnits="objectBoundingBox">
      <stop offset="0" stop-color="#ffb300"/>
      <stop offset="1" stop-color="#78d64b"/>
    </linearGradient>
    <clipPath id="clip-path">
      <path id="Trazado_2100" data-name="Trazado 2100" d="M278.533,279.66s-2.121,5.549-3.75,8.807-4.4,17.145-5.064,24-1.629,15.508-1.629,15.508-3.758,6.855-5.549,9.468-4.4,4.081-2.936,5.872,5.064-.653,7.677-2.121,2.936-4.081,4.4-4.734,4.573-.169,4.081-4.4-2.774-6.363-2.283-7.508,3.912-12.4,5.38-15.339,4.734-6.371,6.04-10.936a38.056,38.056,0,0,0,1.145-9.96s3.1-6.2,3.589-6.532S280.331,280.966,278.533,279.66Z" transform="translate(-259.173 -279.66)" fill="#fff" stroke="#263238" stroke-linecap="round" stroke-linejoin="round" stroke-width="1"/>
    </clipPath>
    <clipPath id="clip-path-2">
      <path id="Trazado_2107" data-name="Trazado 2107" d="M342.94,279.586,346.7,285.3a64.458,64.458,0,0,0,4.081,12.4c2.451,4.9,8.492,13.211,11.428,16.815s3.919,10.613,3.919,10.613-1.468,3.1-.492,5.387,3.758,3.919,4.25,6.04,3.428,7.185,5.71,6.855,3.758-3.259,1.96-7.508-5.226-7.508-6.2-11.919-4.081-22.694-6.694-28.4a66.661,66.661,0,0,0-5.226-9.468l-2.451-9.8S347.843,281.223,342.94,279.586Z" transform="translate(-342.94 -276.32)" fill="#fff" stroke="#263238" stroke-linecap="round" stroke-linejoin="round" stroke-width="1"/>
    </clipPath>
    <clipPath id="clip-path-3">
      <path id="Trazado_2115" data-name="Trazado 2115" d="M347.951,210.646s.323.323-1.145,1.3-5.057,1.8-4.242,3.1,1.629,1.96.976,2.451-1.629.492-2.444,1.138-3.266-7.178-3.266-7.178S343.87,208.5,347.951,210.646Z" transform="translate(-337.83 -209.864)" fill="#fff" stroke="#263238" stroke-linecap="round" stroke-linejoin="round" stroke-width="1"/>
    </clipPath>
    <clipPath id="clip-path-4">
      <path id="Trazado_2124" data-name="Trazado 2124" d="M331.039,214.326l-1.057-3.626-29.358,5.556-.264,1.512a33.762,33.762,0,0,0,14.8.932A75.385,75.385,0,0,0,331.039,214.326Z" transform="translate(-300.36 -210.7)" fill="#fff" stroke="#263238" stroke-linecap="round" stroke-linejoin="round" stroke-width="1"/>
    </clipPath>
    <clipPath id="clip-path-5">
      <path id="Trazado_2130" data-name="Trazado 2130" d="M338.731,117.917a100.861,100.861,0,0,0-6.356-16.925c-1.989-4.235-3.963-9.541-7.031-13.116-1.96-2.283-5.556-4.081-6.371-3.75s-4.4,1.791-4.4,3.75,1.306,1.96,1.306,1.96-.33,2.451.653,3.428,6.04.653,6.04.653a21.4,21.4,0,0,1,2.238,4.25c.976,3.259,1.842,3.912,2.5,9.791a117.86,117.86,0,0,0,2.774,13.879,6.15,6.15,0,0,0-1.637,1.468c-.976,1.145-7.178,7.339-7.178,7.339a38.118,38.118,0,0,1-5.556,2.121,27.435,27.435,0,0,0-4.829,2.026c-1.006-.117-2.018-.228-2.561-.228-1.145,0-9.138,1.468-9.138,1.468a27.339,27.339,0,0,0-5.872-2.613,38.114,38.114,0,0,1-5.556-2.121s-6.2-6.2-7.178-7.34a6.151,6.151,0,0,0-1.637-1.468,117.856,117.856,0,0,0,2.774-13.879c.528-4.741,1.894-10.129,4.741-14.04,0,0,5.057.33,6.04-.653s.646-3.428.646-3.428,1.306,0,1.306-1.96-3.589-3.428-4.4-3.75-4.4,1.468-6.371,3.75-1.791,4.573-3.75,7.839-8.807,19.083-9.637,22.2-1.791,4.9-1.629,6.371,8,9.952,9.96,12.242,9.468,10.121,9.468,10.121,2.774,13.71,3.589,18.613.33,18.444.33,18.444,8.976-1.96,17.468-2.936,17.791-4.242,18.936-4.242h1.145s-6.371-7.839-6.371-8.984c0-.91.213-17.541.294-24.22,2.371-2.5,5.725-6.048,6.936-7.464,1.96-2.29,9.8-10.774,9.96-12.242S339.546,121.021,338.731,117.917Z" transform="translate(-268.636 -84.087)" fill="#fff" stroke="#263238" stroke-linecap="round" stroke-linejoin="round" stroke-width="1"/>
    </clipPath>
    <clipPath id="clip-path-6">
      <path id="Trazado_2149" data-name="Trazado 2149" d="M326.715,141.7s.888-2.517,2.077-1.328.587,3.67-.154,4.741-1.328.448-1.776-.734a5.622,5.622,0,0,1-.147-2.679Z" transform="translate(-326.618 -140.055)" fill="#fff" stroke="#263238" stroke-linecap="round" stroke-linejoin="round" stroke-width="1"/>
    </clipPath>
    <clipPath id="clip-path-7">
      <path id="Trazado_2153" data-name="Trazado 2153" d="M305.7,143.851s-1.534-2.2-2.356-.734.426,3.736,1.424,4.528,1.4.073,1.512-1.189a5.636,5.636,0,0,0-.58-2.605Z" transform="translate(-303.076 -142.613)" fill="#fff" stroke="#263238" stroke-linecap="round" stroke-linejoin="round" stroke-width="1"/>
    </clipPath>
    <clipPath id="clip-path-8">
      <path id="Trazado_2159" data-name="Trazado 2159" d="M312,155.741s3.861,10.084,5.938,9.343,2.672-9.644,2.672-9.644S314.2,156.776,312,155.741Z" transform="translate(-312 -155.44)" fill="#fff" stroke="#263238" stroke-linecap="round" stroke-linejoin="round" stroke-width="1"/>
    </clipPath>
    <clipPath id="clip-path-9">
      <path id="Trazado_2164" data-name="Trazado 2164" d="M305.073,135.515a75.635,75.635,0,0,0,1.637,9.49c.9,2.965,4.33,5.659,8.925,4.917s6.231-7.435,6.231-7.883-.294-8.455-2.077-11.42-5.189-5.784-9.938-3.56A7.9,7.9,0,0,0,305.073,135.515Z" transform="translate(-304.943 -126.261)" fill="#fff" stroke="#263238" stroke-linecap="round" stroke-linejoin="round" stroke-width="1"/>
    </clipPath>
    <clipPath id="clip-path-10">
      <path id="Trazado_2202" data-name="Trazado 2202" d="M161.315,165.367a62.316,62.316,0,0,0-1.2,9.042c0,3.171,3.193,9.974,4.257,13.035s2.393,17.292,2.393,17.7c0,.11.051.9.132,1.967,4.7,1.314,14.407,1.761,25.974-10.363-2.1-2.136-4.4-4.125-6.29-6.437-1.336-1.622-2.356-2.826-2.261-3.523.154-1.079,1.417-6.51,2.562-11.134l3.567-6.84c.881-.917,4.815-5.872,5.182-6.5,2.128-3.6,12.639-14.239,13.7-15.171s3.457-6.246,5.321-14.231c.683-2.936,1.468-6.378,2.253-9.541a17,17,0,0,1-4.316-1.527c-1.284,2.51-2.547,5.02-3.259,6.547-1.864,3.993-6.789,13.571-6.789,13.571l-12.367,12.9s-1.864.932-5.057,2.789c-.3.176-.617.374-.932.572l-5.872,1.292-5.035-.925a84.543,84.543,0,0,0-7.45-5.189c-3.193-1.857-5.057-2.789-5.057-2.789l-12.367-12.9s-4.925-9.541-6.789-13.571c-.859-1.835-2.5-5.086-4.029-8.073a40.043,40.043,0,0,1-3.934,1.417c.859,3.567,1.835,7.7,2.642,11.156,1.864,7.985,4.257,13.306,5.321,14.239s11.574,11.567,13.7,15.163A42.66,42.66,0,0,0,161.315,165.367Z" transform="translate(-133.66 -116.06)" fill="#92e3a9" stroke="#ffb300" stroke-linecap="round" stroke-linejoin="round" stroke-width="1"/>
    </clipPath>
    <clipPath id="clip-path-11">
      <path id="Trazado_2207" data-name="Trazado 2207" d="M184.489,159.85s.132,8.382-.536,10.378-4.4,5.872-2.789,9.05,7.45-.4,9.541-4.257,1.072-5.057,1.072-5.057v-5.872Z" transform="translate(-180.763 -159.85)" fill="#ffb300" stroke="#263238" stroke-linecap="round" stroke-linejoin="round" stroke-width="1"/>
    </clipPath>
    <clipPath id="clip-path-12">
      <path id="Trazado_2212" data-name="Trazado 2212" d="M182.628,148.377s-2.525-2.393-3.193-.661,1.064,4.257,2,4.521l.932.264a10.7,10.7,0,0,0,2.664,5.057c2.128,2.128,4.521,3.193,7.178,1.864s4.793-4.661,5.453-8.646a22.458,22.458,0,0,0,.4-5.989c0-.668-1.2-5.453-4.661-6.65s-3.061.264-5.717,3.325A63.461,63.461,0,0,0,182.628,148.377Z" transform="translate(-179.286 -137.722)" fill="rgba(255,179,0,0.25)" stroke="#263238" stroke-linecap="round" stroke-linejoin="round" stroke-width="1"/>
    </clipPath>
  </defs>
  <g id="Young_and_happy-bro" data-name="Young and happy-bro" transform="translate(-35.009 -43.092)">
    <g id="freepik--Shadow--inject-73" transform="translate(82.761 270.957)" opacity="0.25">
      <ellipse id="Elipse_371" data-name="Elipse 371" cx="104.939" cy="14.955" rx="104.939" ry="14.955" transform="translate(0 0)" fill="rgba(57,66,80,0.22)"/>
      <ellipse id="Elipse_372" data-name="Elipse 372" cx="104.939" cy="14.955" rx="104.939" ry="14.955" transform="translate(0 0)" fill="rgba(57,66,80,0.22)" opacity="0" style="isolation: isolate"/>
    </g>
    <g id="freepik--background-simple--inject-73" transform="translate(355.155 275.392) rotate(177)" opacity="0.25">
      <path id="Trazado_1429" data-name="Trazado 1429" d="M320.3,78.5c-26.407-22.178-70.863-25.6-103.542-13.766-24.343,8.833-43.194,28.526-66.535,39.768-16.458,7.9-34.629,11.349-52.173,16.435-19.02,5.514-37.275,12.634-49.771,28.832-13.835,17.926-17.513,41.6-11.166,63.162,6.646,22.568,23.157,41.45,43.11,53.909s43.179,18.9,66.535,21.9c31.593,4.053,64.34,1.965,94.281-8.948,32.885-12.014,60.616-34.713,77.395-65.678,14.867-27.448,27.631-66.5,23.157-98.005C339.461,101.135,331.8,88.164,320.3,78.5Z" transform="translate(-34.099 -58.04)" fill="url(#linear-gradient)"/>
      <path id="Trazado_1430" data-name="Trazado 1430" d="M320.3,78.5c-26.407-22.178-70.863-25.6-103.542-13.766-24.343,8.833-43.194,28.526-66.535,39.768-16.458,7.9-34.629,11.349-52.173,16.435-19.02,5.514-37.275,12.634-49.771,28.832-13.835,17.926-17.513,41.6-11.166,63.162,6.646,22.568,23.157,41.45,43.11,53.909s43.179,18.9,66.535,21.9c31.593,4.053,64.34,1.965,94.281-8.948,32.885-12.014,60.616-34.713,77.395-65.678,14.867-27.448,27.631-66.5,23.157-98.005C339.461,101.135,331.8,88.164,320.3,78.5Z" transform="translate(-34.099 -58.04)" opacity="0.7" fill="url(#linear-gradient)" style="isolation: isolate"/>
    </g>
    <g id="freepik--Clouds--inject-2" transform="translate(71.964 81.142)" opacity="0.55">
      <path id="Trazado_2057" data-name="Trazado 2057" d="M274.235,115.915c-.653-3.492-2.056-8.85-4.641-10.665-3.916-2.761-7.9,3.159-12.636,3.916s2.761-14.607-5.528-17.374S240.766,99.3,238,104.037s-6.71-1.958-10.267-.79-1.579,7.5-5.13,8.289-9.477-3.949-12.244-1.181c-2.611,2.611-2.761,3.12-6.527,5.528Z" transform="translate(-120.058 -91.327)" fill="#fff"/>
      <path id="Trazado_2058" data-name="Trazado 2058" d="M121.573,263c-.431-2.284-1.345-5.8-3.042-6.984-2.611-1.808-5.169,2.069-8.276,2.611s1.808-9.575-3.622-11.383-6.984,4.915-8.792,8.015-4.4-1.305-6.729-.516-1.031,4.915-3.361,5.43-6.207-2.611-8.021-.77a18.12,18.12,0,0,1-4.249,3.616Z" transform="translate(-75.48 -145.375)" fill="#fff"/>
      <path id="Trazado_2059" data-name="Trazado 2059" d="M361.166,213.753c-1.305-7.036-4.158-17.857-9.366-21.539-7.969-5.574-15.932,6.37-25.455,7.963s5.574-29.462-11.148-35.036-21.506,15.129-27.08,24.685-13.556-3.949-20.736-1.56S264.2,203.4,257.03,204.994s-19.124-7.969-24.7-2.415c-5.293,5.293-5.574,6.285-13.093,11.148Z" transform="translate(-125.41 -116.638)" fill="#fff"/>
      <path id="Trazado_2060" data-name="Trazado 2060" d="M274.235,115.915c-.653-3.492-2.056-8.85-4.641-10.665-3.916-2.761-7.9,3.159-12.636,3.916s2.761-14.607-5.528-17.374S240.766,99.3,238,104.037s-6.71-1.958-10.267-.79-1.579,7.5-5.13,8.289-9.477-3.949-12.244-1.181c-2.611,2.611-2.761,3.12-6.527,5.528Z" transform="translate(-120.058 -91.327)" fill="#fff" opacity="0.4"/>
      <path id="Trazado_2061" data-name="Trazado 2061" d="M121.573,263c-.431-2.284-1.345-5.8-3.042-6.984-2.611-1.808-5.169,2.069-8.276,2.611s1.808-9.575-3.622-11.383-6.984,4.915-8.792,8.015-4.4-1.305-6.729-.516-1.031,4.915-3.361,5.43-6.207-2.611-8.021-.77a18.12,18.12,0,0,1-4.249,3.616Z" transform="translate(-75.48 -145.375)" fill="#fff" opacity="0.4"/>
      <path id="Trazado_2062" data-name="Trazado 2062" d="M361.166,213.753c-1.305-7.036-4.158-17.857-9.366-21.539-7.969-5.574-15.932,6.37-25.455,7.963s5.574-29.462-11.148-35.036-21.506,15.129-27.08,24.685-13.556-3.949-20.736-1.56S264.2,203.4,257.03,204.994s-19.124-7.969-24.7-2.415c-5.293,5.293-5.574,6.285-13.093,11.148Z" transform="translate(-125.41 -116.638)" fill="#fff" opacity="0.4"/>
    </g>
    <g id="freepik--character-2--inject-2" transform="translate(181.123 76.416)">
      <path id="Trazado_2097" data-name="Trazado 2097" d="M278.533,279.66s-2.121,5.549-3.75,8.807-4.4,17.145-5.064,24-1.629,15.508-1.629,15.508-3.758,6.855-5.549,9.468-4.4,4.081-2.936,5.872,5.064-.653,7.677-2.121,2.936-4.081,4.4-4.734,4.573-.169,4.081-4.4-2.774-6.363-2.283-7.508,3.912-12.4,5.38-15.339,4.734-6.371,6.04-10.936a38.056,38.056,0,0,0,1.145-9.96s3.1-6.2,3.589-6.532S280.331,280.966,278.533,279.66Z" transform="translate(-259.167 -136.119)" fill="#fff"/>
      <g id="Grupo_2014" data-name="Grupo 2014" transform="translate(0.007 143.541)" clip-path="url(#clip-path)">
        <path id="Trazado_2098" data-name="Trazado 2098" d="M278.533,279.66s-2.121,5.549-3.75,8.807-4.4,17.145-5.064,24-1.629,15.508-1.629,15.508-3.758,6.855-5.549,9.468-4.4,4.081-2.936,5.872,5.064-.653,7.677-2.121,2.936-4.081,4.4-4.734,4.573-.169,4.081-4.4-2.774-6.363-2.283-7.508,3.912-12.4,5.38-15.339,4.734-6.371,6.04-10.936a38.056,38.056,0,0,0,1.145-9.96s3.1-6.2,3.589-6.532S280.331,280.966,278.533,279.66Z" transform="translate(-259.173 -279.66)" fill="#fff" stroke="#263238" stroke-linecap="round" stroke-linejoin="round" stroke-width="1"/>
        <path id="Trazado_2099" data-name="Trazado 2099" d="M279.734,285.407c1.424.734,4.154,2.084,5.828,2.084H287.9s1.82,4.162-1.3,11.185-8.587,15.34-9.886,20.8c-.734,3.046-2.657,12.543-4.228,20.36,1.189-1.365,1.659-2.884,2.73-3.361,1.468-.653,4.573-.169,4.081-4.4s-2.774-6.363-2.283-7.508,3.919-12.418,5.387-15.354,4.734-6.371,6.04-10.936a38.058,38.058,0,0,0,1.145-9.96s3.1-6.2,3.589-6.532-9.306-.815-11.1-2.121C282.075,279.66,280.938,282.566,279.734,285.407Z" transform="translate(-262.716 -279.66)" fill="#e5e5e5" opacity="0.93"/>
      </g>
      <path id="Trazado_2101" data-name="Trazado 2101" d="M278.533,279.66s-2.121,5.549-3.75,8.807-4.4,17.145-5.064,24-1.629,15.508-1.629,15.508-3.758,6.855-5.549,9.468-4.4,4.081-2.936,5.872,5.064-.653,7.677-2.121,2.936-4.081,4.4-4.734,4.573-.169,4.081-4.4-2.774-6.363-2.283-7.508,3.912-12.4,5.38-15.339,4.734-6.371,6.04-10.936a38.056,38.056,0,0,0,1.145-9.96s3.1-6.2,3.589-6.532S280.331,280.966,278.533,279.66Z" transform="translate(-259.167 -136.119)" fill="none" stroke="#263238" stroke-linecap="round" stroke-linejoin="round" stroke-width="1"/>
      <path id="Trazado_2102" data-name="Trazado 2102" d="M259.594,359.759c1.468,1.8,5.064-.653,7.677-2.121s2.936-4.081,4.4-4.734,4.573-.169,4.081-4.4c-.433-3.773-2.283-5.872-2.349-7.09a5.732,5.732,0,0,1-2.055,3.009c-2.121,1.8-3.266,0-3.266,0s-3.758,6.855-5.549,9.468S258.126,357.99,259.594,359.759Z" transform="translate(-259.165 -152.548)" fill="#263238" stroke="#263238" stroke-linecap="round" stroke-linejoin="round" stroke-width="1"/>
      <path id="Trazado_2103" data-name="Trazado 2103" d="M275.775,351.12a12.11,12.11,0,0,1-2.62,1.754c-2.774,1.306-3.428,3.75-7.34,6.855a7.919,7.919,0,0,1-6.606,1.85,1.886,1.886,0,0,0,.389.734c1.468,1.8,5.064-.653,7.677-2.121s2.936-4.081,4.4-4.734S276.23,355.311,275.775,351.12Z" transform="translate(-259.177 -155.131)" fill="#fff" stroke="#263238" stroke-linecap="round" stroke-linejoin="round" stroke-width="1"/>
      <path id="Trazado_2104" data-name="Trazado 2104" d="M342.94,279.586,346.7,285.3a64.458,64.458,0,0,0,4.081,12.4c2.451,4.9,8.492,13.211,11.428,16.815s3.919,10.613,3.919,10.613-1.468,3.1-.492,5.387,3.758,3.919,4.25,6.04,3.428,7.185,5.71,6.855,3.758-3.259,1.96-7.508-5.226-7.508-6.2-11.919-4.081-22.694-6.694-28.4a66.661,66.661,0,0,0-5.226-9.468l-2.451-9.8S347.843,281.223,342.94,279.586Z" transform="translate(-281.453 -135.23)" fill="#fff"/>
      <g id="Grupo_2015" data-name="Grupo 2015" transform="translate(61.487 141.09)" clip-path="url(#clip-path-2)">
        <path id="Trazado_2105" data-name="Trazado 2105" d="M342.94,279.586,346.7,285.3a64.458,64.458,0,0,0,4.081,12.4c2.451,4.9,8.492,13.211,11.428,16.815s3.919,10.613,3.919,10.613-1.468,3.1-.492,5.387,3.758,3.919,4.25,6.04,3.428,7.185,5.71,6.855,3.758-3.259,1.96-7.508-5.226-7.508-6.2-11.919-4.081-22.694-6.694-28.4a66.661,66.661,0,0,0-5.226-9.468l-2.451-9.8S347.843,281.223,342.94,279.586Z" transform="translate(-342.94 -276.32)" fill="#fff" stroke="#263238" stroke-linecap="round" stroke-linejoin="round" stroke-width="1"/>
        <path id="Trazado_2106" data-name="Trazado 2106" d="M364.658,295.586a66.655,66.655,0,0,0-5.226-9.468l-2.451-9.8s-9.138,4.9-14.04,3.266l3.736,5.681c.639,0,1.343.037,2.1.037a16.4,16.4,0,0,0,5.982-1.3s6.239,9.879,9.358,18.2c2.165,5.776,4.962,14.547,6.811,19.729C369.656,315.513,366.962,300.636,364.658,295.586Z" transform="translate(-342.94 -276.32)" fill="#e5e5e5"/>
      </g>
      <path id="Trazado_2108" data-name="Trazado 2108" d="M342.94,279.586,346.7,285.3a64.458,64.458,0,0,0,4.081,12.4c2.451,4.9,8.492,13.211,11.428,16.815s3.919,10.613,3.919,10.613-1.468,3.1-.492,5.387,3.758,3.919,4.25,6.04,3.428,7.185,5.71,6.855,3.758-3.259,1.96-7.508-5.226-7.508-6.2-11.919-4.081-22.694-6.694-28.4a66.661,66.661,0,0,0-5.226-9.468l-2.451-9.8S347.843,281.223,342.94,279.586Z" transform="translate(-281.453 -135.23)" fill="none" stroke="#394250" stroke-linecap="round" stroke-linejoin="round" stroke-width="1"/>
      <path id="Trazado_2109" data-name="Trazado 2109" d="M385.658,353.6c-1.549-3.67-4.308-6.605-5.666-10.151a4.4,4.4,0,0,1-1.189,1.828c-1.8,1.468-4.572-2.451-4.572-2.451s-1.468,3.1-.492,5.387,3.758,3.919,4.25,6.04,3.428,7.185,5.71,6.855S387.456,357.854,385.658,353.6Z" transform="translate(-289.558 -152.925)" fill="#263238" stroke="#78d64b" stroke-linecap="round" stroke-linejoin="round" stroke-width="1"/>
      <path id="Trazado_2110" data-name="Trazado 2110" d="M377.986,355.165a10.138,10.138,0,0,0,.881,2.2,4.649,4.649,0,0,1-.228-.572c-.822-2.613-1.306-5.872-3.1-7.516a9.218,9.218,0,0,1-2.048-3.039,5.373,5.373,0,0,0,.25,2.877C374.72,351.414,377.509,353.044,377.986,355.165Z" transform="translate(-289.555 -153.833)" fill="#fff" stroke="#263238" stroke-linecap="round" stroke-linejoin="round" stroke-width="1"/>
      <path id="Trazado_2111" data-name="Trazado 2111" d="M388.422,360.37a6.872,6.872,0,0,1-1.468,3.78c-1.519,1.519-4.323-.235-5.644-2.4,1.182,2.1,2.987,4.25,4.5,4.029C387.688,365.515,389.016,363.46,388.422,360.37Z" transform="translate(-291.661 -157.592)" fill="#fff" stroke="#263238" stroke-linecap="round" stroke-linejoin="round" stroke-width="1"/>
      <path id="Trazado_2112" data-name="Trazado 2112" d="M347.951,210.646s.323.323-1.145,1.3-5.057,1.8-4.242,3.1,1.629,1.96.976,2.451-1.629.492-2.444,1.138-3.266-7.178-3.266-7.178S343.87,208.5,347.951,210.646Z" transform="translate(-280.093 -117.55)" fill="#fff"/>
      <g id="Grupo_2016" data-name="Grupo 2016" transform="translate(57.736 92.314)" clip-path="url(#clip-path-3)">
        <path id="Trazado_2113" data-name="Trazado 2113" d="M347.951,210.646s.323.323-1.145,1.3-5.057,1.8-4.242,3.1,1.629,1.96.976,2.451-1.629.492-2.444,1.138-3.266-7.178-3.266-7.178S343.87,208.5,347.951,210.646Z" transform="translate(-337.83 -209.864)" fill="#92e3a9"/>
        <path id="Trazado_2114" data-name="Trazado 2114" d="M347.951,210.646s.323.323-1.145,1.3-5.057,1.8-4.242,3.1,1.629,1.96.976,2.451-1.629.492-2.444,1.138-3.266-7.178-3.266-7.178S343.87,208.5,347.951,210.646Z" transform="translate(-337.83 -209.864)" opacity="0.25"/>
      </g>
      <path id="Trazado_2116" data-name="Trazado 2116" d="M347.951,210.646s.323.323-1.145,1.3-5.057,1.8-4.242,3.1,1.629,1.96.976,2.451-1.629.492-2.444,1.138-3.266-7.178-3.266-7.178S343.87,208.5,347.951,210.646Z" transform="translate(-280.093 -117.55)" fill="none" stroke="#263238" stroke-linecap="round" stroke-linejoin="round" stroke-width="1"/>
      <path id="Trazado_2117" data-name="Trazado 2117" d="M295.3,216.256l-1.468,8.484s-6.04,13.064-8.161,19.758-5.226,18.444-5.226,18.444,2.283,1.8,9.145,2.936,15.486-3.259,15.486-3.259,2.613-14.04,3.428-15.839,3.1-6.532,3.1-6.532h2.128l5.549,21.556s5.057,1.306,8,1.791,7.339.815,11.266-1.96a22.9,22.9,0,0,0,6.2-7.178s-6.2-14.679-8.984-20.734-9.138-16.33-9.138-16.33l-1.96-6.694Z" transform="translate(-264.825 -117.772)" fill="#263238" stroke="#263238" stroke-linecap="round" stroke-linejoin="round" stroke-width="1"/>
      <line id="Línea_127" data-name="Línea 127" x2="6.855" y2="6.532" transform="translate(30.801 110.234)" fill="none" stroke="#78d64b" stroke-linecap="round" stroke-linejoin="round" stroke-width="1"/>
      <line id="Línea_128" data-name="Línea 128" x2="1.138" y2="0.829" transform="translate(39.131 118.873)" fill="none" stroke="#78d64b" stroke-linecap="round" stroke-linejoin="round" stroke-width="1"/>
      <line id="Línea_129" data-name="Línea 129" x2="6.87" y2="5.064" transform="translate(30.962 112.847)" fill="none" stroke="#78d64b" stroke-linecap="round" stroke-linejoin="round" stroke-width="1"/>
      <path id="Trazado_2118" data-name="Trazado 2118" d="M309.26,280.537a23.6,23.6,0,0,0,2.848-1.277" transform="translate(-272.492 -136.013)" fill="none" stroke="#78d64b" stroke-linecap="round" stroke-linejoin="round" stroke-width="1"/>
      <path id="Trazado_2119" data-name="Trazado 2119" d="M282.89,280.1a27.692,27.692,0,0,0,15.494,1.7" transform="translate(-265.477 -136.236)" fill="none" stroke="#78d64b" stroke-linecap="round" stroke-linejoin="round" stroke-width="1"/>
      <path id="Trazado_2120" data-name="Trazado 2120" d="M334.27,275.732s11.266,7.185,23.486-6.532" transform="translate(-279.146 -133.336)" fill="none" stroke="#78d64b" stroke-linecap="round" stroke-linejoin="round" stroke-width="1"/>
      <line id="Línea_130" data-name="Línea 130" x1="3.266" y2="6.202" transform="translate(60.511 105.5)" fill="none" stroke="#78d64b" stroke-linecap="round" stroke-linejoin="round" stroke-width="1"/>
      <path id="Trazado_2121" data-name="Trazado 2121" d="M309.8,223.756a31.963,31.963,0,0,0,17.615-3.266" transform="translate(-272.636 -120.377)" fill="none" stroke="#78d64b" stroke-linecap="round" stroke-linejoin="round" stroke-width="1"/>
      <path id="Trazado_2122" data-name="Trazado 2122" d="M331.039,214.326l-1.057-3.626-29.358,5.556-.264,1.512a33.762,33.762,0,0,0,14.8.932A75.385,75.385,0,0,0,331.039,214.326Z" transform="translate(-270.125 -117.772)" fill="#fff"/>
      <g id="Grupo_2017" data-name="Grupo 2017" transform="translate(30.235 92.928)" clip-path="url(#clip-path-4)">
        <path id="Trazado_2123" data-name="Trazado 2123" d="M331.039,214.326l-1.057-3.626-29.358,5.556-.264,1.512a33.762,33.762,0,0,0,14.8.932A75.385,75.385,0,0,0,331.039,214.326Z" transform="translate(-300.36 -210.7)" fill="#e5e5e5" stroke="#263238" stroke-linecap="round" stroke-linejoin="round" stroke-width="1"/>
      </g>
      <path id="Trazado_2125" data-name="Trazado 2125" d="M331.039,214.326l-1.057-3.626-29.358,5.556-.264,1.512a33.762,33.762,0,0,0,14.8.932A75.385,75.385,0,0,0,331.039,214.326Z" transform="translate(-270.125 -117.772)" fill="none" stroke="#263238" stroke-linecap="round" stroke-linejoin="round" stroke-width="1"/>
      <path id="Trazado_2126" data-name="Trazado 2126" d="M338.731,117.917a100.861,100.861,0,0,0-6.356-16.925c-1.989-4.235-3.963-9.541-7.031-13.116-1.96-2.283-5.556-4.081-6.371-3.75s-4.4,1.791-4.4,3.75,1.306,1.96,1.306,1.96-.33,2.451.653,3.428,6.04.653,6.04.653a21.4,21.4,0,0,1,2.238,4.25c.976,3.259,1.842,3.912,2.5,9.791a117.86,117.86,0,0,0,2.774,13.879,6.15,6.15,0,0,0-1.637,1.468c-.976,1.145-7.178,7.339-7.178,7.339a38.118,38.118,0,0,1-5.556,2.121,27.435,27.435,0,0,0-4.829,2.026c-1.006-.117-2.018-.228-2.561-.228-1.145,0-9.138,1.468-9.138,1.468a27.339,27.339,0,0,0-5.872-2.613,38.114,38.114,0,0,1-5.556-2.121s-6.2-6.2-7.178-7.34a6.151,6.151,0,0,0-1.637-1.468,117.856,117.856,0,0,0,2.774-13.879c.528-4.741,1.894-10.129,4.741-14.04,0,0,5.057.33,6.04-.653s.646-3.428.646-3.428,1.306,0,1.306-1.96-3.589-3.428-4.4-3.75-4.4,1.468-6.371,3.75-1.791,4.573-3.75,7.839-8.807,19.083-9.637,22.2-1.791,4.9-1.629,6.371,8,9.952,9.96,12.242,9.468,10.121,9.468,10.121,2.774,13.71,3.589,18.613.33,18.444.33,18.444,8.976-1.96,17.468-2.936,17.791-4.242,18.936-4.242h1.145s-6.371-7.839-6.371-8.984c0-.91.213-17.541.294-24.22,2.371-2.5,5.725-6.048,6.936-7.464,1.96-2.29,9.8-10.774,9.96-12.242S339.546,121.021,338.731,117.917Z" transform="translate(-261.684 -84.087)" fill="#fff"/>
      <g id="Grupo_2018" data-name="Grupo 2018" transform="translate(6.951 0)" clip-path="url(#clip-path-5)">
        <path id="Trazado_2127" data-name="Trazado 2127" d="M338.731,117.917a100.861,100.861,0,0,0-6.356-16.925c-1.989-4.235-3.963-9.541-7.031-13.116-1.96-2.283-5.556-4.081-6.371-3.75s-4.4,1.791-4.4,3.75,1.306,1.96,1.306,1.96-.33,2.451.653,3.428,6.04.653,6.04.653a21.4,21.4,0,0,1,2.238,4.25c.976,3.259,1.842,3.912,2.5,9.791a117.86,117.86,0,0,0,2.774,13.879,6.15,6.15,0,0,0-1.637,1.468c-.976,1.145-7.178,7.339-7.178,7.339a38.118,38.118,0,0,1-5.556,2.121,27.435,27.435,0,0,0-4.829,2.026c-1.006-.117-2.018-.228-2.561-.228-1.145,0-9.138,1.468-9.138,1.468a27.339,27.339,0,0,0-5.872-2.613,38.114,38.114,0,0,1-5.556-2.121s-6.2-6.2-7.178-7.34a6.151,6.151,0,0,0-1.637-1.468,117.856,117.856,0,0,0,2.774-13.879c.528-4.741,1.894-10.129,4.741-14.04,0,0,5.057.33,6.04-.653s.646-3.428.646-3.428,1.306,0,1.306-1.96-3.589-3.428-4.4-3.75-4.4,1.468-6.371,3.75-1.791,4.573-3.75,7.839-8.807,19.083-9.637,22.2-1.791,4.9-1.629,6.371,8,9.952,9.96,12.242,9.468,10.121,9.468,10.121,2.774,13.71,3.589,18.613.33,18.444.33,18.444,8.976-1.96,17.468-2.936,17.791-4.242,18.936-4.242h1.145s-6.371-7.839-6.371-8.984c0-.91.213-17.541.294-24.22,2.371-2.5,5.725-6.048,6.936-7.464,1.96-2.29,9.8-10.774,9.96-12.242S339.546,121.021,338.731,117.917Z" transform="translate(-268.636 -84.087)" fill="#fff" stroke="#263238" stroke-linecap="round" stroke-linejoin="round" stroke-width="1"/>
        <path id="Trazado_2128" data-name="Trazado 2128" d="M292.646,174.531c-.492-2.29-1.145-15.516-1.96-19.758s-2.774-5.872-3.919-7.67-4.4-4.4-8.492-8.807-7.831-8.154-7.171-11.42c.448-2.268,4.851-15.039,7.494-22.606-2.738,5.615-7.633,17.079-8.316,19.67-.815,3.1-1.791,4.9-1.629,6.371s8,9.952,9.96,12.242,9.468,10.121,9.468,10.121,2.774,13.71,3.589,18.613a60.03,60.03,0,0,1,.462,7.912A16.683,16.683,0,0,0,292.646,174.531Z" transform="translate(-268.636 -89.456)" fill="#e5e5e5" opacity="0.76"/>
        <path id="Trazado_2129" data-name="Trazado 2129" d="M356.91,124.839c0,2.451-11.919,11.266-14.679,15.839s-1.96,15.839-1.96,20.4a48.1,48.1,0,0,1-.161,5.556l2.128,2.584c0-2.613.205-17.615.286-23.853,2.371-2.5,5.725-6.048,6.936-7.464,1.96-2.29,9.8-10.774,9.96-12.242s-.815-3.266-1.629-6.371a100.856,100.856,0,0,0-6.356-16.925c-1.989-4.235-3.963-9.541-7.031-13.116,0,0,5.174,12.573,8.279,20.9S356.91,122.4,356.91,124.839Z" transform="translate(-287.651 -85.46)" fill="#e5e5e5" opacity="0.76"/>
      </g>
      <path id="Trazado_2131" data-name="Trazado 2131" d="M338.731,117.917a100.861,100.861,0,0,0-6.356-16.925c-1.989-4.235-3.963-9.541-7.031-13.116-1.96-2.283-5.556-4.081-6.371-3.75s-4.4,1.791-4.4,3.75,1.306,1.96,1.306,1.96-.33,2.451.653,3.428,6.04.653,6.04.653a21.4,21.4,0,0,1,2.238,4.25c.976,3.259,1.842,3.912,2.5,9.791a117.86,117.86,0,0,0,2.774,13.879,6.15,6.15,0,0,0-1.637,1.468c-.976,1.145-7.178,7.339-7.178,7.339a38.118,38.118,0,0,1-5.556,2.121,27.435,27.435,0,0,0-4.829,2.026c-1.006-.117-2.018-.228-2.561-.228-1.145,0-9.138,1.468-9.138,1.468a27.339,27.339,0,0,0-5.872-2.613,38.114,38.114,0,0,1-5.556-2.121s-6.2-6.2-7.178-7.34a6.151,6.151,0,0,0-1.637-1.468,117.856,117.856,0,0,0,2.774-13.879c.528-4.741,1.894-10.129,4.741-14.04,0,0,5.057.33,6.04-.653s.646-3.428.646-3.428,1.306,0,1.306-1.96-3.589-3.428-4.4-3.75-4.4,1.468-6.371,3.75-1.791,4.573-3.75,7.839-8.807,19.083-9.637,22.2-1.791,4.9-1.629,6.371,8,9.952,9.96,12.242,9.468,10.121,9.468,10.121,2.774,13.71,3.589,18.613.33,18.444.33,18.444,8.976-1.96,17.468-2.936,17.791-4.242,18.936-4.242h1.145s-6.371-7.839-6.371-8.984c0-.91.213-17.541.294-24.22,2.371-2.5,5.725-6.048,6.936-7.464,1.96-2.29,9.8-10.774,9.96-12.242S339.546,121.021,338.731,117.917Z" transform="translate(-261.684 -84.087)" fill="none" stroke="#263238" stroke-linecap="round" stroke-linejoin="round" stroke-width="1"/>
      <path id="Trazado_2132" data-name="Trazado 2132" d="M300.394,91.967s-4.081-3.428-4.4-1.96,2.451,3.428,2.451,3.428" transform="translate(-268.955 -85.565)" fill="none" stroke="#263238" stroke-linecap="round" stroke-linejoin="round" stroke-width="1"/>
      <path id="Trazado_2133" data-name="Trazado 2133" d="M293.386,92.37a3.273,3.273,0,0,1-2.936,3.589" transform="translate(-267.488 -86.29)" fill="none" stroke="#263238" stroke-linecap="round" stroke-linejoin="round" stroke-width="1"/>
      <path id="Trazado_2134" data-name="Trazado 2134" d="M296.386,92.3l-3.266-1.637.161-1.138.976-.492" transform="translate(-268.198 -85.402)" fill="none" stroke="#263238" stroke-linecap="round" stroke-linejoin="round" stroke-width="1"/>
      <path id="Trazado_2135" data-name="Trazado 2135" d="M298,86.46a19.955,19.955,0,0,1,.3,2.738" transform="translate(-269.497 -84.718)" fill="none" stroke="#263238" stroke-linecap="round" stroke-linejoin="round" stroke-width="1"/>
      <path id="Trazado_2136" data-name="Trazado 2136" d="M300.48,87.08a10.4,10.4,0,0,1,0,3.347" transform="translate(-270.156 -84.883)" fill="none" stroke="#263238" stroke-linecap="round" stroke-linejoin="round" stroke-width="1"/>
      <path id="Trazado_2137" data-name="Trazado 2137" d="M302.374,88.12a2.994,2.994,0,0,1-1.064,2.738" transform="translate(-270.377 -85.16)" fill="none" stroke="#263238" stroke-linecap="round" stroke-linejoin="round" stroke-width="1"/>
      <path id="Trazado_2138" data-name="Trazado 2138" d="M333,91.7s5.666-1.468,4.851.161-3.428,2.128-3.428,2.128" transform="translate(-278.808 -85.951)" fill="none" stroke="#263238" stroke-linecap="round" stroke-linejoin="round" stroke-width="1"/>
      <path id="Trazado_2139" data-name="Trazado 2139" d="M343.1,93.251a13.579,13.579,0,0,0-2.29-1.468c-.815-.33-.976-1.468-.976-1.468s1.8-.323,1.8-1.138-1.306-1.468-1.306-1.468l-.169.822" transform="translate(-280.626 -85.051)" fill="none" stroke="#263238" stroke-linecap="round" stroke-linejoin="round" stroke-width="1"/>
      <path id="Trazado_2140" data-name="Trazado 2140" d="M337.342,86s-.646,3.237,1.806,3.824" transform="translate(-279.943 -84.596)" fill="none" stroke="#263238" stroke-linecap="round" stroke-linejoin="round" stroke-width="1"/>
      <path id="Trazado_2141" data-name="Trazado 2141" d="M334.857,86.25s-.455,2.437,1.064,3.67" transform="translate(-279.285 -84.662)" fill="none" stroke="#263238" stroke-linecap="round" stroke-linejoin="round" stroke-width="1"/>
      <path id="Trazado_2142" data-name="Trazado 2142" d="M332.964,87.5s-.462,2.128.6,2.884" transform="translate(-278.772 -84.995)" fill="none" stroke="#263238" stroke-linecap="round" stroke-linejoin="round" stroke-width="1"/>
      <path id="Trazado_2143" data-name="Trazado 2143" d="M315.068,197.773c8.492-.983,17.791-4.242,18.936-4.242h1.145s-6.371-7.839-6.371-8.984c0-.91.213-17.541.294-24.22l3.67-3.9c-1.8-.536-3.743-1.468-4.462-3.075-.9-1.989-.462-5.431,0-7.824L326.811,147a38.115,38.115,0,0,1-5.556,2.121,27.433,27.433,0,0,0-4.829,2.026c-1.006-.117-2.018-.228-2.561-.228-1.145,0-9.138,1.468-9.138,1.468a27.337,27.337,0,0,0-5.872-2.613,38.114,38.114,0,0,1-5.556-2.121l-.235-.235a40.961,40.961,0,0,1,.235,8.073,5.1,5.1,0,0,1-3.589,4.044c2.092,2.2,3.919,4.117,3.919,4.117s2.774,13.71,3.589,18.613.33,18.444.33,18.444S306.576,198.719,315.068,197.773Z" transform="translate(-267.291 -100.434)" fill="rgba(255,255,255,0.49)" stroke="#78d64b" stroke-linecap="round" stroke-linejoin="round" stroke-width="2"/>
      <path id="Trazado_2144" data-name="Trazado 2144" d="M318.755,174.525a19.269,19.269,0,0,1-1.835-2.3" transform="translate(-274.53 -107.534)" fill="none" stroke="#78d64b" stroke-linecap="round" stroke-linejoin="round" stroke-width="1"/>
      <path id="Trazado_2145" data-name="Trazado 2145" d="M337.544,193.385a95.87,95.87,0,0,0-10.275-10.444c-1.886-1.607-3.405-3-4.609-4.191" transform="translate(-276.057 -109.272)" fill="none" stroke="#78d64b" stroke-linecap="round" stroke-linejoin="round" stroke-width="1"/>
      <path id="Trazado_2146" data-name="Trazado 2146" d="M304.437,138.141s-.888-1.783-2.818-5.343-.3-9.784,6.973-12.162,11.868,2.077,12.9,5.042.147,6.231-.448,8.015a11.523,11.523,0,0,0-.587,3.259,5.873,5.873,0,0,0-1.336-1.182c-1.042-.734-2.818-8.609-5.2-9.2s-7.413.756-7.824,4.426S305.626,140.364,304.437,138.141Z" transform="translate(-270.261 -93.631)" fill="#263238" stroke="#263238" stroke-linecap="round" stroke-linejoin="round" stroke-width="1"/>
      <path id="Trazado_2147" data-name="Trazado 2147" d="M326.715,141.7s.888-2.517,2.077-1.328.587,3.67-.154,4.741-1.328.448-1.776-.734a5.622,5.622,0,0,1-.147-2.679Z" transform="translate(-277.11 -98.977)" fill="#fff"/>
      <g id="Grupo_2019" data-name="Grupo 2019" transform="translate(49.507 41.078)" clip-path="url(#clip-path-6)">
        <path id="Trazado_2148" data-name="Trazado 2148" d="M326.715,141.7s.888-2.517,2.077-1.328.587,3.67-.154,4.741-1.328.448-1.776-.734a5.622,5.622,0,0,1-.147-2.679Z" transform="translate(-326.618 -140.055)" fill="#d9d9d9" stroke="#263238" stroke-linecap="round" stroke-linejoin="round" stroke-width="1"/>
      </g>
      <path id="Trazado_2150" data-name="Trazado 2150" d="M326.715,141.7s.888-2.517,2.077-1.328.587,3.67-.154,4.741-1.328.448-1.776-.734a5.622,5.622,0,0,1-.147-2.679Z" transform="translate(-277.11 -98.977)" fill="none" stroke="#263238" stroke-linecap="round" stroke-linejoin="round" stroke-width="1"/>
      <path id="Trazado_2151" data-name="Trazado 2151" d="M305.7,143.851s-1.534-2.2-2.356-.734.426,3.736,1.424,4.528,1.4.073,1.512-1.189a5.636,5.636,0,0,0-.58-2.605Z" transform="translate(-270.847 -99.657)" fill="#fff"/>
      <g id="Grupo_2020" data-name="Grupo 2020" transform="translate(32.229 42.955)" clip-path="url(#clip-path-7)">
        <path id="Trazado_2152" data-name="Trazado 2152" d="M305.7,143.851s-1.534-2.2-2.356-.734.426,3.736,1.424,4.528,1.4.073,1.512-1.189a5.636,5.636,0,0,0-.58-2.605Z" transform="translate(-303.076 -142.613)" fill="#d9d9d9" stroke="#263238" stroke-linecap="round" stroke-linejoin="round" stroke-width="1"/>
      </g>
      <path id="Trazado_2154" data-name="Trazado 2154" d="M305.7,143.851s-1.534-2.2-2.356-.734.426,3.736,1.424,4.528,1.4.073,1.512-1.189a5.636,5.636,0,0,0-.58-2.605Z" transform="translate(-270.847 -99.657)" fill="none" stroke="#263238" stroke-linecap="round" stroke-linejoin="round" stroke-width="1"/>
      <path id="Trazado_2155" data-name="Trazado 2155" d="M309.364,153.088a31.914,31.914,0,0,0,.44,6.378,42.951,42.951,0,0,0,1.336,5.637l5.343-5.042,6.672,3.56s1.042-6.818-1.035-9.791-8.9-3.259-10.679-2.2A7.406,7.406,0,0,0,309.364,153.088Z" transform="translate(-272.516 -101.907)" fill="#fff" stroke="#78d64b" stroke-linecap="round" stroke-linejoin="round" stroke-width="1"/>
      <path id="Trazado_2156" data-name="Trazado 2156" d="M312,155.741s3.861,10.084,5.938,9.343,2.672-9.644,2.672-9.644S314.2,156.776,312,155.741Z" transform="translate(-273.221 -103.07)" fill="#fff"/>
      <g id="Grupo_2021" data-name="Grupo 2021" transform="translate(38.779 52.37)" clip-path="url(#clip-path-8)">
        <path id="Trazado_2157" data-name="Trazado 2157" d="M312,155.741s3.861,10.084,5.938,9.343,2.672-9.644,2.672-9.644S314.2,156.776,312,155.741Z" transform="translate(-312 -155.44)" fill="#d9d9d9" stroke="#263238" stroke-linecap="round" stroke-linejoin="round" stroke-width="1"/>
        <path id="Trazado_2158" data-name="Trazado 2158" d="M312,155.741s3.861,10.084,5.938,9.343,2.672-9.644,2.672-9.644S314.2,156.776,312,155.741Z" transform="translate(-312 -155.44)" fill="#ebebeb" opacity="0.49"/>
      </g>
      <path id="Trazado_2160" data-name="Trazado 2160" d="M312,155.741s3.861,10.084,5.938,9.343,2.672-9.644,2.672-9.644S314.2,156.776,312,155.741Z" transform="translate(-273.221 -103.07)" fill="none" stroke="#263238" stroke-linecap="round" stroke-linejoin="round" stroke-width="1"/>
      <path id="Trazado_2161" data-name="Trazado 2161" d="M305.073,135.515a75.635,75.635,0,0,0,1.637,9.49c.9,2.965,4.33,5.659,8.925,4.917s6.231-7.435,6.231-7.883-.294-8.455-2.077-11.42-5.189-5.784-9.938-3.56A7.9,7.9,0,0,0,305.073,135.515Z" transform="translate(-271.344 -95.307)" fill="#fff"/>
      <g id="Grupo_2022" data-name="Grupo 2022" transform="translate(33.599 30.954)" clip-path="url(#clip-path-9)">
        <path id="Trazado_2162" data-name="Trazado 2162" d="M305.073,135.515a75.635,75.635,0,0,0,1.637,9.49c.9,2.965,4.33,5.659,8.925,4.917s6.231-7.435,6.231-7.883-.294-8.455-2.077-11.42-5.189-5.784-9.938-3.56A7.9,7.9,0,0,0,305.073,135.515Z" transform="translate(-304.943 -126.261)" fill="#fff" stroke="#263238" stroke-linecap="round" stroke-linejoin="round" stroke-width="1"/>
        <path id="Trazado_2163" data-name="Trazado 2163" d="M321.878,143.014c0-.448-.294-8.455-2.077-11.42a11.437,11.437,0,0,0-1.218-1.673c.433,1.85,2.679,11.809.9,15.207-1.96,3.758-6.2,4.088-10.121,2.128-2.936-1.468-3.743-9.989-3.985-14.312a6.738,6.738,0,0,0-.264,3.545,75.615,75.615,0,0,0,1.637,9.49c.9,2.965,4.33,5.659,8.925,4.917S321.878,143.461,321.878,143.014Z" transform="translate(-304.956 -127.235)" fill="#ebebeb" opacity="0.86"/>
      </g>
      <path id="Trazado_2165" data-name="Trazado 2165" d="M305.073,135.515a75.635,75.635,0,0,0,1.637,9.49c.9,2.965,4.33,5.659,8.925,4.917s6.231-7.435,6.231-7.883-.294-8.455-2.077-11.42-5.189-5.784-9.938-3.56A7.9,7.9,0,0,0,305.073,135.515Z" transform="translate(-271.344 -95.307)" fill="none" stroke="#263238" stroke-linecap="round" stroke-linejoin="round" stroke-width="1"/>
      <path id="Trazado_2166" data-name="Trazado 2166" d="M310.87,143.413a7.75,7.75,0,0,0,7.508-1.813c.661.22.411,4.206-3.237,4.785a3.772,3.772,0,0,1-4.272-2.972Z" transform="translate(-272.921 -99.388)" fill="#fff" stroke="#263238" stroke-linecap="round" stroke-linejoin="round" stroke-width="1"/>
      <path id="Trazado_2167" data-name="Trazado 2167" d="M313.529,139.031s-.91,1.27-.455,1.717a2.719,2.719,0,0,0,3.171-.448c.91-.991-.543-1.9-.543-1.9" transform="translate(-273.473 -98.537)" fill="none" stroke="#263238" stroke-linecap="round" stroke-linejoin="round" stroke-width="1"/>
      <path id="Trazado_2168" data-name="Trazado 2168" d="M309,139.548s.448-1.468,2.818-1.468" transform="translate(-272.423 -98.452)" fill="none" stroke="#263238" stroke-linecap="round" stroke-linejoin="round" stroke-width="1"/>
      <path id="Trazado_2169" data-name="Trazado 2169" d="M318.46,136.934a2.657,2.657,0,0,1,3.486-.4" transform="translate(-274.94 -97.914)" fill="none" stroke="#263238" stroke-linecap="round" stroke-linejoin="round" stroke-width="1"/>
      <path id="Trazado_2170" data-name="Trazado 2170" d="M311.019,133.977s-3.391-.675-3.809,2.4" transform="translate(-271.947 -97.343)" fill="none" stroke="#263238" stroke-linecap="round" stroke-linejoin="round" stroke-width="2"/>
      <path id="Trazado_2171" data-name="Trazado 2171" d="M317.3,133.182a3.534,3.534,0,0,1,4.617.139" transform="translate(-274.631 -96.93)" fill="none" stroke="#263238" stroke-linecap="round" stroke-linejoin="round" stroke-width="2"/>
      <path id="Trazado_2220" data-name="Trazado 2220" d="M308.907,183.6s6.6.949,7.5.949l15.947.706s-15.438,1.106-24.224,3.379-11.558,9.415-10.918,5.712.26-13.931.26-13.931Z" transform="translate(-78.457 430.893) rotate(-103)" fill="#78d64b" opacity="0.31"/>
    </g>
    <g id="freepik--character-1--inject-2" transform="translate(82.761 80.509)">
      <path id="Trazado_2172" data-name="Trazado 2172" d="M184.535,135.122a7.821,7.821,0,0,0-3.721-5.982c-3.721-2.525-12.639-1.064-15.963,3.193s-3.6,7.339-7.45,8.514-12.639,2.539-18.745,8.91-3.457,19.42-.661,20.485-.668-.932-.272-4.4a5.189,5.189,0,0,1,3.193-4.4s-3.589,5.717,3.993,13.167,15.963,5.725,23.017,4.257,15.692-6.65,16.36-12.771-1.6-9.578,0-12.367,7.45-2.4,8.25-7.714S191.184,133.661,184.535,135.122Z" transform="translate(-127.754 -99.836)" fill="#263238" stroke="#263238" stroke-linecap="round" stroke-linejoin="round" stroke-width="1"/>
      <path id="Trazado_2173" data-name="Trazado 2173" d="M237.42,265.489s3.714-4.7,5.138-4.851,3.538,3.075,4.462,5.541,3.075,7.53,3.075,10c0,4.308-1.85,5.688-2.613,4.917s-2.774-5.534-3.846-6.459A6.335,6.335,0,0,0,241.3,273.4S238.939,267.42,237.42,265.489Z" transform="translate(-155.017 -135.15)" fill="#fff" stroke="#263238" stroke-linecap="round" stroke-linejoin="round" stroke-width="1"/>
      <path id="Trazado_2174" data-name="Trazado 2174" d="M242.55,262.24s4.5,4.5,6.1,8.807,2.092,8.514.646,10.275" transform="translate(-156.382 -135.577)" fill="none" stroke="#263238" stroke-linecap="round" stroke-linejoin="round" stroke-width="1"/>
      <path id="Trazado_2175" data-name="Trazado 2175" d="M225.4,312.62s4.455.308,6,.462,1.541,3.846.925,6.459-1.387,4.308-.734,7.229-1.079,6.15-2,7.538-2.936,1.079-3.075,0,.462-7.384-1.688-10.921S222.936,315.1,225.4,312.62Z" transform="translate(-151.279 -148.981)" fill="#fff" stroke="#263238" stroke-linecap="round" stroke-linejoin="round" stroke-width="1"/>
      <path id="Trazado_2176" data-name="Trazado 2176" d="M231.364,313a8.756,8.756,0,0,1,.961,5.622c-.484,3.369.161,8.675.161,9.96s-1.769,6.261-2.407,6.422" transform="translate(-153.065 -149.082)" fill="none" stroke="#263238" stroke-linecap="round" stroke-linejoin="round" stroke-width="1"/>
      <path id="Trazado_2177" data-name="Trazado 2177" d="M219.44,95.449c-.8,0-3.993.8-4.257,1.732s-.661,9.974-.661,9.974-5.593,10.642-7.45,14.635-6.789,13.571-6.789,13.571l-12.367,12.9s-1.864.932-5.057,2.789c-.3.176-.617.374-.932.572l-5.872,1.292-5.035-.954a84.534,84.534,0,0,0-7.45-5.189c-3.193-1.857-5.057-2.789-5.057-2.789l-12.367-12.9s-4.925-9.541-6.789-13.571-7.45-14.635-7.45-14.635-.4-9.042-.661-9.974-3.464-1.732-4.257-1.732-2.261,4.257-1.732,5.189,1.982.925,1.982.925a25.11,25.11,0,0,0,0,3.193c.132.668,2.128,2,2.128,2s2.8,11.574,4.653,19.552,4.257,13.307,5.321,14.239,11.574,11.567,13.7,15.163a42.658,42.658,0,0,0,5.989,7.34,62.31,62.31,0,0,0-1.2,9.042c0,3.171,3.193,9.974,4.257,13.035s2.393,17.292,2.393,17.7.661,9.174.661,9.174-7.178,15.7-9.439,26.87-1.2,17.563,3.985,19.956,28.734,5.717,29.4,6.517,1.2,1.328,2.128,1.328,2.128-.528,2.936,0,.793.932,1.725.932a2.855,2.855,0,0,1,2.128,1.468c.264.528,1.864-.536,2.393-4.528s-.264-5.872-1.064-5.982-.661-1.468-1.989-1.468a34.852,34.852,0,0,0-4.257.536,10.01,10.01,0,0,0-2.128-.4,9.077,9.077,0,0,1-2.268-.8c-.536-.132-9.306-3.728-9.306-3.728l-.338-.176c8.881-5.064,21.475-14.026,21.475-14.026s3.618-.228,5.2-1.585a23.262,23.262,0,0,0,2.936-3.163l2.716-1.13a9.16,9.16,0,0,0-1.585-4.976c-1.578-2.033-2.261-2.936-2.261-2.936s-4.294,2.033-5.651,2.488-3.391.675-4.521,1.806-4.066,3.391-4.066,3.391l-9.945,5.2s12.661-16.272,14.239-23.053c1.358-5.813-.734-12.235-4.2-16.925-2.62-3.523-6.3-6.209-9.086-9.622-1.336-1.622-2.356-2.826-2.261-3.523.154-1.079,1.417-6.51,2.561-11.134l3.567-6.84c.881-.917,4.815-5.872,5.182-6.5,2.128-3.6,12.639-14.239,13.7-15.171s3.457-6.246,5.321-14.231,4.653-19.552,4.653-19.552,2-1.328,2.128-2a25.1,25.1,0,0,0,0-3.193s1.468,0,2-.932S220.24,95.449,219.44,95.449Z" transform="translate(-125.147 -90.064)" fill="#fff" stroke="#263238" stroke-linecap="round" stroke-linejoin="round" stroke-width="1"/>
      <path id="Trazado_2178" data-name="Trazado 2178" d="M218.218,255.711s-4.294,2.033-5.651,2.488-3.391.675-4.521,1.805-4.066,3.391-4.066,3.391l-9.945,5.2s12.661-16.272,14.239-23.053c1.358-5.813-.734-12.235-4.2-16.925a39.028,39.028,0,0,0-4.36-4.734,54.311,54.311,0,0,1-9.006,6.371,25.27,25.27,0,0,1-15.56,3.317v.257c0,.4.661,9.174.661,9.174s-7.178,15.7-9.439,26.87-1.2,17.563,3.985,19.956,28.734,5.717,29.4,6.517,1.2,1.328,2.128,1.328,2.128-.528,2.936,0,.793.932,1.725.932a2.855,2.855,0,0,1,2.128,1.468c.264.528,1.864-.536,2.393-4.528s-.264-5.872-1.064-5.982-.661-1.468-1.989-1.468a34.855,34.855,0,0,0-4.257.536,10.008,10.008,0,0,0-2.128-.4,9.074,9.074,0,0,1-2.268-.8c-.536-.132-9.306-3.728-9.306-3.728l-.338-.176c8.881-5.064,21.475-14.026,21.475-14.026s3.618-.228,5.2-1.585a23.26,23.26,0,0,0,2.936-3.163l2.716-1.13a9.16,9.16,0,0,0-1.585-4.976C218.9,256.614,218.218,255.711,218.218,255.711Z" transform="translate(-135.816 -125.371)" fill="#263238" stroke="#263238" stroke-linecap="round" stroke-linejoin="round" stroke-width="1"/>
      <path id="Trazado_2179" data-name="Trazado 2179" d="M187.36,248.69l2.613,1.233s-10.921,26.3-12.477,33.842.308,11.229,3.229,11.229,11.229-4.308,11.229-4.308" transform="translate(-138.925 -131.972)" fill="none" stroke="#ffb300" stroke-linecap="round" stroke-linejoin="round" stroke-width="1"/>
      <path id="Trazado_2180" data-name="Trazado 2180" d="M201.418,284.8s-6.554,9.688-8.418,11.956" transform="translate(-143.199 -141.579)" fill="none" stroke="#ffb300" stroke-linecap="round" stroke-linejoin="round" stroke-width="1"/>
      <path id="Trazado_2181" data-name="Trazado 2181" d="M130.435,94.358s-2.664-3.728-3.061-4.528-1.2,1.468-.536,2.8a9.732,9.732,0,0,0,1.6,2.261s-1.064,3.193.528,4.521" transform="translate(-125.53 -89.663)" fill="#fff" stroke="#263238" stroke-linecap="round" stroke-linejoin="round" stroke-width="1"/>
      <path id="Trazado_2182" data-name="Trazado 2182" d="M248.42,101.151s2.657-3.721,3.061-4.521,1.2,1.468.528,2.8a9.834,9.834,0,0,1-1.593,2.261s1.064,3.193-.536,4.521" transform="translate(-157.944 -91.472)" fill="#fff" stroke="#263238" stroke-linecap="round" stroke-linejoin="round" stroke-width="1"/>
      <path id="Trazado_2183" data-name="Trazado 2183" d="M161.315,165.367a62.316,62.316,0,0,0-1.2,9.042c0,3.171,3.193,9.974,4.257,13.035s2.393,17.292,2.393,17.7c0,.11.051.9.132,1.967,4.7,1.314,14.407,1.761,25.974-10.363-2.1-2.136-4.4-4.125-6.29-6.437-1.336-1.622-2.356-2.826-2.261-3.523.154-1.079,1.417-6.51,2.562-11.134l3.567-6.84c.881-.917,4.815-5.872,5.182-6.5,2.128-3.6,12.639-14.239,13.7-15.171s3.457-6.246,5.321-14.231c.683-2.936,1.468-6.378,2.253-9.541a17,17,0,0,1-4.316-1.527c-1.284,2.51-2.547,5.02-3.259,6.547-1.864,3.993-6.789,13.571-6.789,13.571l-12.367,12.9s-1.864.932-5.057,2.789c-.3.176-.617.374-.932.572l-5.872,1.292-5.035-.925a84.543,84.543,0,0,0-7.45-5.189c-3.193-1.857-5.057-2.789-5.057-2.789l-12.367-12.9s-4.925-9.541-6.789-13.571c-.859-1.835-2.5-5.086-4.029-8.073a40.043,40.043,0,0,1-3.934,1.417c.859,3.567,1.835,7.7,2.642,11.156,1.864,7.985,4.257,13.306,5.321,14.239s11.574,11.567,13.7,15.163A42.66,42.66,0,0,0,161.315,165.367Z" transform="translate(-127.412 -96.686)" fill="#fff"/>
      <g id="Grupo_2023" data-name="Grupo 2023" transform="translate(6.248 19.374)" clip-path="url(#clip-path-10)">
        <path id="Trazado_2186" data-name="Trazado 2186" d="M167.711,176.672Z" transform="translate(-142.404 -129.86)" fill="#263238"/>
        <path id="Trazado_2190" data-name="Trazado 2190" d="M140.528,122.7l-5.138,1.9c.154.668.316,1.328.47,1.989l5.571-2.055Z" transform="translate(-134.12 -117.827)" fill="#ffb300"/>
        <path id="Trazado_2194" data-name="Trazado 2194" d="M235.2,135.422a70.813,70.813,0,0,0,6.026,3.941c.154-.587.3-1.189.448-1.806a.459.459,0,0,1,.059-.272,65.929,65.929,0,0,1-5.629-3.736C235.846,134.108,235.538,134.739,235.2,135.422Z" transform="translate(-160.675 -120.713)" fill="#ffb300"/>
        <path id="Trazado_2199" data-name="Trazado 2199" d="M217.99,160.826Z" transform="translate(-156.096 -127.629)" fill="#263238"/>
        <path id="Trazado_2201" data-name="Trazado 2201" d="M216.721,123.832c-3.141,6.928-9.145,20.169-10.334,22.8-1.622,3.611-14.429,16.595-16.595,17.857s-3.428,4.33-4.33,7.574c-.859,3.09-3.347,5.527-3.582,8.866-1.233-.939-3.67-1.725-7.061-2.011-6.5-.543-12.624,1.086-12.624-4.866s3.787-11.743,3.971-13.534-3.428,1.468-5.233.183-14.07-15.332-17.681-19.817c-2.3-2.877-6.378-14.782-9.035-23.039l-.558.176c.859,3.567,1.835,7.7,2.642,11.156,1.864,7.985,4.257,13.307,5.321,14.231s11.574,11.574,13.7,15.171a42.658,42.658,0,0,0,5.989,7.34,62.312,62.312,0,0,0-1.2,9.042c0,3.171,3.193,9.974,4.257,13.035s2.393,17.292,2.393,17.7c0,.11.051.9.132,1.967a17.96,17.96,0,0,0,1.974.426c-.125-5.578-1.05-17.2.536-19.743,1.725-2.76,10.048-2.884,12.477-4.462a13.651,13.651,0,0,0,3,8.073c1.314,1.725,4.308,4.081,7.178,6.143l.778-.793c-2.1-2.136-4.4-4.125-6.29-6.437-1.336-1.622-2.356-2.826-2.261-3.523.154-1.079,1.417-6.51,2.561-11.134l3.567-6.84c.881-.917,4.815-5.872,5.182-6.5,2.128-3.6,12.639-14.239,13.7-15.171s3.457-6.246,5.321-14.231c.683-2.936,1.468-6.378,2.253-9.541Z" transform="translate(-133.66 -116.536)" fill="#ffb300" opacity="0.25"/>
      </g>
      <path id="Trazado_2203" data-name="Trazado 2203" d="M161.315,165.367a62.316,62.316,0,0,0-1.2,9.042c0,3.171,3.193,9.974,4.257,13.035s2.393,17.292,2.393,17.7c0,.11.051.9.132,1.967,4.7,1.314,14.407,1.761,25.974-10.363-2.1-2.136-4.4-4.125-6.29-6.437-1.336-1.622-2.356-2.826-2.261-3.523.154-1.079,1.417-6.51,2.562-11.134l3.567-6.84c.881-.917,4.815-5.872,5.182-6.5,2.128-3.6,12.639-14.239,13.7-15.171s3.457-6.246,5.321-14.231c.683-2.936,1.468-6.378,2.253-9.541a17,17,0,0,1-4.316-1.527c-1.284,2.51-2.547,5.02-3.259,6.547-1.864,3.993-6.789,13.571-6.789,13.571l-12.367,12.9s-1.864.932-5.057,2.789c-.3.176-.617.374-.932.572l-5.872,1.292-5.035-.925a84.543,84.543,0,0,0-7.45-5.189c-3.193-1.857-5.057-2.789-5.057-2.789l-12.367-12.9s-4.925-9.541-6.789-13.571c-.859-1.835-2.5-5.086-4.029-8.073a40.043,40.043,0,0,1-3.934,1.417c.859,3.567,1.835,7.7,2.642,11.156,1.864,7.985,4.257,13.306,5.321,14.239s11.574,11.567,13.7,15.163A42.66,42.66,0,0,0,161.315,165.367Z" transform="translate(-127.412 -96.686)" fill="none" stroke="#ffb300" stroke-linecap="round" stroke-linejoin="round" stroke-width="2"/>
      <path id="Trazado_2204" data-name="Trazado 2204" d="M184.489,159.85s.132,8.382-.536,10.378-4.4,5.872-2.789,9.05,7.45-.4,9.541-4.257,1.072-5.057,1.072-5.057v-5.872Z" transform="translate(-139.944 -108.336)" fill="#fff"/>
      <g id="Grupo_2024" data-name="Grupo 2024" transform="translate(40.819 51.514)" opacity="0.23" clip-path="url(#clip-path-11)">
        <path id="Trazado_2205" data-name="Trazado 2205" d="M192.825,164.107l-7.339-4.257s.132,8.382-.536,10.378a5.232,5.232,0,0,1-.36.8,7.508,7.508,0,0,0,4.3.1,11.3,11.3,0,0,0,3.912-2.745Z" transform="translate(-181.781 -159.85)" fill="#ffb300"/>
        <path id="Trazado_2206" data-name="Trazado 2206" d="M192.825,164.107l-7.339-4.257s.132,8.382-.536,10.378a5.232,5.232,0,0,1-.36.8,7.508,7.508,0,0,0,4.3.1,11.3,11.3,0,0,0,3.912-2.745Z" transform="translate(-181.781 -159.85)" fill="#ffb300" opacity="0.5"/>
      </g>
      <path id="Trazado_2208" data-name="Trazado 2208" d="M184.489,159.85s.132,8.382-.536,10.378-4.4,5.872-2.789,9.05,7.45-.4,9.541-4.257,1.072-5.057,1.072-5.057v-5.872Z" transform="translate(-139.944 -108.336)" fill="none" stroke="#263238" stroke-linecap="round" stroke-linejoin="round" stroke-width="1"/>
      <path id="Trazado_2209" data-name="Trazado 2209" d="M182.628,148.377s-2.525-2.393-3.193-.661,1.064,4.257,2,4.521l.932.264a10.7,10.7,0,0,0,2.664,5.057c2.128,2.128,4.521,3.193,7.178,1.864s4.793-4.661,5.453-8.646a22.458,22.458,0,0,0,.4-5.989c0-.668-1.2-5.453-4.661-6.65s-3.061.264-5.717,3.325A63.461,63.461,0,0,0,182.628,148.377Z" transform="translate(-139.551 -102.449)" fill="#fff"/>
      <g id="Grupo_2025" data-name="Grupo 2025" transform="translate(39.735 35.273)" clip-path="url(#clip-path-12)">
        <path id="Trazado_2210" data-name="Trazado 2210" d="M197.556,144c.22,2.2.587,7.912-1,10.65-1.982,3.42-3.971,6.672-7.934,5.05a9.9,9.9,0,0,1-5.233-5.776s-1.079.183-2.708-1.262a1.871,1.871,0,0,0-.572-.367,3.5,3.5,0,0,0,1.541,1.622l.932.264a10.7,10.7,0,0,0,2.664,5.057c2.128,2.128,4.521,3.193,7.178,1.864s4.793-4.661,5.453-8.646a22.458,22.458,0,0,0,.4-5.989,8.647,8.647,0,0,0-.727-2.466Z" transform="translate(-179.505 -139.392)" fill="rgba(255,179,0,0.25)"/>
        <path id="Trazado_2211" data-name="Trazado 2211" d="M197.556,144c.22,2.2.587,7.912-1,10.65-1.982,3.42-3.971,6.672-7.934,5.05a9.9,9.9,0,0,1-5.233-5.776s-1.079.183-2.708-1.262a1.871,1.871,0,0,0-.572-.367,3.5,3.5,0,0,0,1.541,1.622l.932.264a10.7,10.7,0,0,0,2.664,5.057c2.128,2.128,4.521,3.193,7.178,1.864s4.793-4.661,5.453-8.646a22.458,22.458,0,0,0,.4-5.989,8.647,8.647,0,0,0-.727-2.466Z" transform="translate(-179.505 -139.392)" fill="rgba(255,179,0,0.25)" opacity="0.5"/>
      </g>
      <path id="Trazado_2213" data-name="Trazado 2213" d="M182.628,148.377s-2.525-2.393-3.193-.661,1.064,4.257,2,4.521l.932.264a10.7,10.7,0,0,0,2.664,5.057c2.128,2.128,4.521,3.193,7.178,1.864s4.793-4.661,5.453-8.646a22.458,22.458,0,0,0,.4-5.989c0-.668-1.2-5.453-4.661-6.65s-3.061.264-5.717,3.325A63.461,63.461,0,0,0,182.628,148.377Z" transform="translate(-139.551 -102.449)" fill="none" stroke="#263238" stroke-linecap="round" stroke-linejoin="round" stroke-width="1"/>
      <path id="Trazado_2214" data-name="Trazado 2214" d="M198.358,148.62s-.932,1.725-.536,2.128,1.732,1.2,1.064,1.593a4.925,4.925,0,0,1-2,.4" transform="translate(-144.234 -105.348)" fill="none" stroke="#263238" stroke-linecap="round" stroke-linejoin="round" stroke-width="1"/>
      <path id="Trazado_2215" data-name="Trazado 2215" d="M191.64,155s1.593,1.864,6.65,1.2c0,0-3.061,3.061-4.4,3.061S191.64,155,191.64,155Z" transform="translate(-142.838 -107.046)" fill="none" stroke="#263238" stroke-linecap="round" stroke-linejoin="round" stroke-width="1"/>
      <path id="Trazado_2216" data-name="Trazado 2216" d="M190.37,149.087s1.864-.661,2.936.4" transform="translate(-142.5 -105.419)" fill="none" stroke="#263238" stroke-linecap="round" stroke-linejoin="round" stroke-width="1"/>
      <path id="Trazado_2217" data-name="Trazado 2217" d="M199.43,150.556s2.128-.661,2.525.8" transform="translate(-144.91 -105.824)" fill="none" stroke="#263238" stroke-linecap="round" stroke-linejoin="round" stroke-width="1"/>
      <path id="Trazado_2218" data-name="Trazado 2218" d="M190.19,145.7a3,3,0,0,1,3.457-.793" transform="translate(-142.452 -104.297)" fill="none" stroke="#263238" stroke-linecap="round" stroke-linejoin="round" stroke-width="1"/>
      <path id="Trazado_2219" data-name="Trazado 2219" d="M199.79,146.842s1.732-1.6,2.936,1.328" transform="translate(-145.006 -104.759)" fill="none" stroke="#263238" stroke-linecap="round" stroke-linejoin="round" stroke-width="1"/>
    </g>
  </g>
</svg>
