<svg xmlns="http://www.w3.org/2000/svg" width="157.563" height="877.639" viewBox="0 0 157.563 877.639">
  <path id="Intersección_1" data-name="Intersección 1" d="M361.287,33.711a191.734,191.734,0,0,1,58.551,20.975c92.764,51.378,126.313,168.23,74.935,260.995l.561-1-.029.072-.281.569-.876,1.775-2.139,4.45c-1.5,3.177-3.072,6.617-4.626,10.13-3.118,7.058-6.184,14.458-9.09,21.941-5.836,14.982-11.026,30.334-15.43,45.5-4.407,15.181-7.961,30.21-10.669,44.771-1.371,7.287-2.448,14.432-3.333,21.424s-1.583,13.844-1.96,20.443c-.4,6.607-.6,13.022-.572,19.187.072,6.134.349,12.026.8,17.653.468,5.615,1.208,10.886,2.039,15.918q.355,1.852.661,3.712c.267,1.191.532,2.371.771,3.561.209,1.215.553,2.312.819,3.457s.517,2.3.865,3.356a117.763,117.763,0,0,0,4.035,12.324,102.188,102.188,0,0,0,4.856,10.831c.459.837.882,1.694,1.313,2.542q.747,1.207,1.428,2.444c.418.85.982,1.606,1.472,2.4l.732,1.2c.123.2.233.408.361.6l.414.572q.821,1.15,1.576,2.339a13.549,13.549,0,0,0,.844,1.144l.85,1.142.822,1.164c.283.383.616.742.916,1.12q.918,1.121,1.782,2.283l5.513,7.436c64.576,87.1,46.311,210.066-40.793,274.643a195.356,195.356,0,0,1-77.116,34.558Z" transform="translate(-361.287 -33.711)" fill="#eff2f3"/>
</svg>
