<svg xmlns="http://www.w3.org/2000/svg" xmlns:xlink="http://www.w3.org/1999/xlink" width="248.608" height="238.864" viewBox="0 0 248.608 238.864">
  <defs>
    <linearGradient id="linear-gradient" x1="0.5" x2="0.5" y2="1" gradientUnits="objectBoundingBox">
      <stop offset="0" stop-color="#ffb300"/>
      <stop offset="1" stop-color="#78d64b"/>
    </linearGradient>
  </defs>
  <g id="Grupo_2026" data-name="Grupo 2026" transform="translate(-125.695 -149.769)">
    <g id="Grupo_1996" data-name="Grupo 1996" transform="translate(125.695 149.769)">
      <g id="Grupo_1995" data-name="Grupo 1995">
        <g id="freepik--background-simple--inject-2" opacity="0.25">
          <path id="Trazado_1507" data-name="Trazado 1507" d="M284.4,159.8c-12.333,7.335-22.161,18.207-33.856,26.521-14.9,10.581-32.485,16.745-50.234,21.195-22.09,5.513-46.653,9.557-61.511,26.8-12.777,14.813-15.031,36.31-11.773,55.618C142.12,379.309,286.014,374.3,331.4,315.358c24.164-31.364,71.112-130.233,19.965-159.021a41.728,41.728,0,0,0-7.2-3.156C325.208,146.777,301.548,149.611,284.4,159.8Z" transform="translate(-125.695 -149.769)" fill="url(#linear-gradient)"/>
          <path id="Trazado_1508" data-name="Trazado 1508" d="M284.4,159.8c-12.333,7.335-22.161,18.207-33.856,26.521-14.9,10.581-32.485,16.745-50.234,21.195-22.09,5.513-46.653,9.557-61.511,26.8-12.777,14.813-15.031,36.31-11.773,55.618C142.12,379.309,286.014,374.3,331.4,315.358c24.164-31.364,71.112-130.233,19.965-159.021a41.728,41.728,0,0,0-7.2-3.156C325.208,146.777,301.548,149.611,284.4,159.8Z" transform="translate(-125.695 -149.769)" opacity="0.7" fill="url(#linear-gradient)" style="isolation: isolate"/>
        </g>
        <g id="freepik--Shadow--inject-2" transform="translate(2.367 209.278)">
          <ellipse id="Elipse_375" data-name="Elipse 375" cx="110.848" cy="14.793" rx="110.848" ry="14.793" opacity="0.1" style="isolation: isolate"/>
          <ellipse id="Elipse_376" data-name="Elipse 376" cx="110.848" cy="14.793" rx="110.848" ry="14.793" fill="#fff" opacity="0.7" style="isolation: isolate"/>
        </g>
        <g id="freepik--character-2--inject-2" transform="translate(91.585 16.821)">
          <path id="Trazado_1509" data-name="Trazado 1509" d="M366.75,234s-3.941,18.136-9.113,26.727l-5.906-2.087-2.937,2.46-12.488,10.51s-18.9-6.3-22.406-12.449,1.359-14.259,1.359-14.259l12.333-29.689.109-.058,5.3-2.827s.96-.122,2.415-.225c.5-.039,1.056-.064,1.655-.09,2.956-.122,6.859-.045,9.4.915a17.52,17.52,0,0,0,8.321,1.082s5.281,7.084,8.565,12.017S366.75,234,366.75,234Z" transform="translate(-217.282 -166.59)" fill="#fff"/>
          <path id="Trazado_1514" data-name="Trazado 1514" d="M348.794,261.1l-12.488,10.51s-18.9-6.3-22.406-12.449,1.359-14.259,1.359-14.259l12.333-29.689.109-.058c2.576-.728,5.152-2.177,7.728-3.053a15.1,15.1,0,0,1,1.732-.5,2.224,2.224,0,0,1-.077.406,50.741,50.741,0,0,0,7.02,35.936c1.346,2.112,1.861,4.65,2.9,6.923a20.453,20.453,0,0,1,1.6,4.4A10.451,10.451,0,0,1,348.794,261.1Z" transform="translate(-217.282 -166.59)" fill="#78d64b"/>
          <path id="Trazado_1514-2" data-name="Trazado 1514" d="M348.794,261.1l-12.488,10.51s-18.9-6.3-22.406-12.449,1.359-14.259,1.359-14.259l12.333-29.689.109-.058c2.576-.728,5.152-2.177,7.728-3.053a15.1,15.1,0,0,1,1.732-.5,2.224,2.224,0,0,1-.077.406,50.741,50.741,0,0,0,7.02,35.936c1.346,2.112,1.861,4.65,2.9,6.923a20.453,20.453,0,0,1,1.6,4.4A10.451,10.451,0,0,1,348.794,261.1Z" transform="translate(-217.282 -166.59)" fill="#fff" opacity="0.7" style="isolation: isolate"/>
          <path id="Trazado_1528" data-name="Trazado 1528" d="M313.618,257.3s11.309,11.554,23.6,13.524c0,0,3.446,6.144,1.72,12.043s-8.372,31.461-8.372,31.461l-12.5-1.5v-31.19s-4.16,10.6-8,15.779l-12.391-6.44S301.836,266.887,313.618,257.3Z" transform="translate(-217.282 -166.591)" fill="#394250"/>
          <path id="Trazado_1510" data-name="Trazado 1510" d="M297.666,290.974s-4.251,11.238-4.92,17.93,7.58,18.091,7.58,18.091-3.993,7.136-2.66,9.371,5.152-3.349,7.046-10.71-1.481-17.389-1.481-17.389,5.455-7.728,5.738-11.116S297.666,290.974,297.666,290.974Z" transform="translate(-217.282 -166.591)" fill="#fff"/>
          <path id="Trazado_1511" data-name="Trazado 1511" d="M297.743,290.974s-4.315,11.238-5,17.93,7.728,18.071,7.728,18.071-4.057,7.136-2.711,9.371,5.275-3.349,7.168-10.71-1.507-17.389-1.507-17.389,5.551-7.728,5.835-11.116S297.743,290.974,297.743,290.974Z" transform="translate(-217.282 -166.591)" fill="none" stroke="#394250" stroke-linecap="round" stroke-linejoin="round" stroke-width="1"/>
          <path id="Trazado_1512" data-name="Trazado 1512" d="M299.166,328.578s-1.095-2.009-.457-2.576,3.008.818,3.375,1.823,2.183-.612,2.183-.612l1.05-3.774A17.838,17.838,0,0,1,306.463,327c.09,1.095-1.932,3.169-2.19,5.751-.3,3.033-4.012,6.022-6.2,5.745S297.157,331.682,299.166,328.578Z" transform="translate(-217.282 -166.591)" fill="#394250"/>
          <path id="Trazado_1513" data-name="Trazado 1513" d="M305.819,326.55a33.2,33.2,0,0,0-3.053,5.577c-.547,1.23-.754,2.576-1.79,3.458a7.521,7.521,0,0,1-3.31,1.539" transform="translate(-217.282 -166.591)" fill="none" stroke="#fff" stroke-linecap="round" stroke-linejoin="round" stroke-width="1"/>
          <path id="Trazado_1515" data-name="Trazado 1515" d="M348.009,217.626s.361,2.525,4.077,3a6.438,6.438,0,0,0,5.8-2.331,19.1,19.1,0,0,1,.045-6.6c.644-3.5,1.713-4.553,1.713-4.553s4.315.052,4.579-3.323-3.974-5.217-5.371-3.787-3.22-3.78-3.22-3.78l-4.94-2.847-3.626-3.22-2.821,2.724s-.927,3.22-1.146,4.766-1.288,4.27-1.288,5.616.386,8.752,1.224,11.084a3.985,3.985,0,0,0,4,2.8C348.009,216.988,348.009,217.626,348.009,217.626Z" transform="translate(-217.282 -166.59)" fill="#fff"/>
          <path id="Trazado_1516" data-name="Trazado 1516" d="M309.435,363.7a14.67,14.67,0,0,1,.985-7.818c1.836-4.888,3.484-36.9,8.134-40.573,3-2.37,10.414.811,10.414.811a80.081,80.081,0,0,1,0,11.213c-.406,6.93-13.035,29.76-13.138,31.8a4,4,0,0,0,.715,1.752Z" transform="translate(-217.282 -166.591)" fill="#fff"/>
          <path id="Trazado_1517" data-name="Trazado 1517" d="M309.435,363.7a14.67,14.67,0,0,1,.985-7.818c1.836-4.888,3.484-36.9,8.134-40.573,3-2.37,10.414.811,10.414.811a80.081,80.081,0,0,1,0,11.213c-.406,6.93-13.035,29.76-13.138,31.8a4,4,0,0,0,.715,1.752Z" transform="translate(-217.282 -166.591)" fill="none" stroke="#394250" stroke-linecap="round" stroke-linejoin="round" stroke-width="1"/>
          <path id="Trazado_1518" data-name="Trazado 1518" d="M309.671,358.287s-1.591,4.83-1.333,7.587,2.248,1.256,6.176,5.8,7.477,5.036,8.765,4.148.522-3.188-3.471-9.944-2.512-3.793-2.512-3.793.811-2.814-.728-3.22c-2.228-.58-3.549,2.66-4.946,2.66S309.671,358.287,309.671,358.287Z" transform="translate(-217.282 -166.591)" fill="#394250"/>
          <path id="Trazado_1519" data-name="Trazado 1519" d="M308.781,364.547a4.931,4.931,0,0,0,1.256,1.288c.966.7,2.087,1.134,3.085,1.79a21.933,21.933,0,0,1,3.375,3.091c.747.76,1.533,1.481,2.344,2.17a6.962,6.962,0,0,0,2.112,1.351,2.692,2.692,0,0,0,2.421-.206" transform="translate(-217.282 -166.592)" fill="none" stroke="#fff" stroke-linecap="round" stroke-linejoin="round" stroke-width="1"/>
          <path id="Trazado_1521" data-name="Trazado 1521" d="M349.232,200.765c1.018-1.076,2.067-.747,3.278,0" transform="translate(-217.282 -166.59)" fill="none" stroke="#394250" stroke-linecap="round" stroke-linejoin="round" stroke-width="1"/>
          <path id="Trazado_1522" data-name="Trazado 1522" d="M346.63,201.474a5.7,5.7,0,0,1-1.043,4.386,2.343,2.343,0,0,0-.612,1.108,1.62,1.62,0,0,0,.644,1.243" transform="translate(-217.282 -166.59)" fill="none" stroke="#394250" stroke-linecap="round" stroke-linejoin="round" stroke-width="1"/>
          <path id="Trazado_1523" data-name="Trazado 1523" d="M346.54,210.948a3.088,3.088,0,0,0,3.272-1.43" transform="translate(-217.282 -166.59)" fill="none" stroke="#394250" stroke-linecap="round" stroke-linejoin="round" stroke-width="1"/>
          <path id="Trazado_1524" data-name="Trazado 1524" d="M350.824,203.638c-.045.547-.309.972-.58.953s-.457-.489-.406-1.037.309-.979.58-.953S350.875,203.091,350.824,203.638Z" transform="translate(-217.283 -166.59)" fill="#394250"/>
          <path id="Trazado_1525" data-name="Trazado 1525" d="M344.924,202.858c-.052.547-.309.972-.586.953s-.451-.489-.406-1.043.309-.972.586-.947S344.966,202.311,344.924,202.858Z" transform="translate(-217.282 -166.59)" fill="#394250"/>
          <path id="Trazado_1526" data-name="Trazado 1526" d="M343.3,199.942a1.289,1.289,0,0,1,1.818.113c.019.022.038.045.056.068" transform="translate(-217.282 -166.59)" fill="none" stroke="#394250" stroke-linecap="round" stroke-linejoin="round" stroke-width="1"/>
          <path id="Trazado_1529" data-name="Trazado 1529" d="M313.9,272.722l3.761,4.3.4,4.611" transform="translate(-217.282 -166.591)" fill="none" stroke="#78d64b" stroke-linecap="round" stroke-linejoin="round" stroke-width="1"/>
          <path id="Trazado_1530" data-name="Trazado 1530" d="M315.981,306.088a27.123,27.123,0,0,0,.818,10.085s8.726,2.318,14.046.683c0,0,2.576-5.455,2.995-7.632C333.84,309.225,325.255,304.176,315.981,306.088Z" transform="translate(-217.282 -166.591)" fill="#394250"/>
          <path id="Trazado_1531" data-name="Trazado 1531" d="M295.521,293.543a33.977,33.977,0,0,0,13.228,6,31.1,31.1,0,0,0,5.152-4.36s-8.012-8.05-17.421-8.05Z" transform="translate(-217.282 -166.591)" fill="#394250"/>
          <path id="Trazado_1532" data-name="Trazado 1532" d="M349.477,240.747s1.887-7.187,8.16-8.894" transform="translate(-217.283 -166.59)" fill="none" stroke="#78d64b" stroke-linecap="round" stroke-linejoin="round" stroke-width="2"/>
          <path id="Trazado_1533" data-name="Trazado 1533" d="M359.775,201.873c-.586.464-.412,1.455-.863,2.061a2.3,2.3,0,0,1-1.668.947.228.228,0,0,1-.174,0,.257.257,0,0,1-.084-.167,13.751,13.751,0,0,1,0-2.911,4.135,4.135,0,0,0-1.752-3.394c-.844-.8-.818-2.222-1.623-3.066a3.221,3.221,0,0,0-2.293-.818,14.519,14.519,0,0,1-2.492-.109,3.984,3.984,0,0,1-3.033-3.22C344.5,192.22,343.4,195.7,343.4,195.7l-.811-.708a6.162,6.162,0,0,1-.979-7.393,7.139,7.139,0,0,1,7.02-3.265c1.8.251,3.478,1.146,5.294,1.288,2.209.2,4.508-.7,6.614,0s3.407,2.821,4.025,4.946.734,4.373,1.4,6.485a11.665,11.665,0,0,1,.6,2.112,4.3,4.3,0,0,1-2.222,4.238S363.7,198.784,359.775,201.873Z" transform="translate(-217.282 -166.59)" fill="#394250"/>
          <path id="Trazado_1534" data-name="Trazado 1534" d="M343.391,192.986a4.593,4.593,0,0,1-.522-4.238,3.679,3.679,0,0,1,3.491-2.28,5.568,5.568,0,0,1,3.664,2.364,14.975,14.975,0,0,0,3,3.3c1.365.908,3.072,1.133,4.508,1.887a6.982,6.982,0,0,1,3.665,6.324" transform="translate(-217.282 -166.59)" fill="none" stroke="#78d64b" stroke-linecap="round" stroke-linejoin="round" stroke-width="1" opacity="0.5"/>
          <path id="Trazado_1535" data-name="Trazado 1535" d="M352.569,187.917a5.054,5.054,0,0,0,3.22,2.151,19.323,19.323,0,0,1,3.8,1.159,5.686,5.686,0,0,1,2.975,5.03" transform="translate(-217.283 -166.59)" fill="none" stroke="#78d64b" stroke-linecap="round" stroke-linejoin="round" stroke-width="1" opacity="0.5"/>
          <rect id="Rectángulo_851" data-name="Rectángulo 851" width="134.665" height="77.458" rx="7.366" transform="translate(0 124.465) rotate(-67.557)" fill="#fff" stroke="#394250" stroke-miterlimit="9.954" stroke-width="0.995"/>
          <path id="Trazado_1536" data-name="Trazado 1536" d="M322.738,203.29l-2.3,5.545a3.277,3.277,0,0,1-4.283,1.771L278.3,194.892a3.278,3.278,0,0,1-2-3.4,3.151,3.151,0,0,1,.232-.882l2.3-5.545a3.279,3.279,0,0,1,4.283-1.774h.006L320.976,199a3.27,3.27,0,0,1,1.767,4.275h0Z" transform="translate(-217.282 -166.59)" fill="#eff2f3" opacity="0.57"/>
          <rect id="Rectángulo_852" data-name="Rectángulo 852" width="3.162" height="52.101" transform="translate(46.526 49.418) rotate(-67.46)" fill="#394250"/>
          <rect id="Rectángulo_853" data-name="Rectángulo 853" width="3.162" height="52.101" transform="translate(43.409 56.923) rotate(-67.46)" fill="#394250"/>
          <rect id="Rectángulo_854" data-name="Rectángulo 854" width="3.162" height="52.101" transform="translate(40.288 64.429) rotate(-67.46)" fill="#394250"/>
          <rect id="Rectángulo_855" data-name="Rectángulo 855" width="3.162" height="52.101" transform="translate(37.171 71.935) rotate(-67.46)" fill="#394250"/>
          <rect id="Rectángulo_856" data-name="Rectángulo 856" width="3.162" height="52.101" transform="translate(34.06 79.449) rotate(-67.46)" fill="#394250"/>
          <rect id="Rectángulo_857" data-name="Rectángulo 857" width="3.162" height="52.101" transform="translate(30.945 86.948) rotate(-67.46)" fill="#394250"/>
          <path id="Trazado_1543" data-name="Trazado 1543" d="M303.541,283.568,290.4,315.235a4.765,4.765,0,0,1-6.227,2.577h0L239.03,299.063a20.093,20.093,0,0,1,10.9-6.782c6.614-1.468,14.169.322,19.817-3.4,4.566-2.995,6.8-9.016,11.818-11.167a13.806,13.806,0,0,1,8.108-.483A36.351,36.351,0,0,1,303.541,283.568Z" transform="translate(-217.282 -166.591)" fill="#eff2f3" opacity="0.57"/>
          <path id="Trazado_1545" data-name="Trazado 1545" d="M322.738,203.292l-2.3,5.545a3.277,3.277,0,0,1-4.283,1.771L278.3,194.892a3.275,3.275,0,0,1-2-3.4c1.977,0,4.418,1.687,6.041,2.351q3.961,1.623,7.986,3.046c8.43,2.995,17.685,5.358,26.231,2.686a16.42,16.42,0,0,0,2.9-1.2l1.513.644A3.272,3.272,0,0,1,322.738,203.292Z" transform="translate(-217.282 -166.59)" opacity="0.1" style="isolation: isolate"/>
          <path id="Trazado_1546" data-name="Trazado 1546" d="M322.738,203.29l-2.3,5.545a3.277,3.277,0,0,1-4.283,1.771L278.3,194.892a3.278,3.278,0,0,1-2-3.4,3.151,3.151,0,0,1,.232-.882l2.3-5.545a3.279,3.279,0,0,1,4.283-1.774h.006L320.976,199a3.27,3.27,0,0,1,1.767,4.275h0Z" transform="translate(-217.282 -166.59)" fill="none" stroke="#394250" stroke-miterlimit="10" stroke-width="1"/>
          <path id="Trazado_1551" data-name="Trazado 1551" d="M333.845,270.81s-1.707,10.272,5.113,12.056" transform="translate(-217.282 -166.591)" fill="none" stroke="#78d64b" stroke-linecap="round" stroke-linejoin="round" stroke-width="1"/>
          <path id="Trazado_1552" data-name="Trazado 1552" d="M319.195,305.89s6.331-.425,11.29,2.074" transform="translate(-217.282 -166.591)" fill="none" stroke="#78d64b" stroke-linecap="round" stroke-linejoin="round" stroke-width="1"/>
          <path id="Trazado_1553" data-name="Trazado 1553" d="M311.306,292.964a38.666,38.666,0,0,0-3.587-2.37" transform="translate(-217.282 -166.591)" fill="none" stroke="#78d64b" stroke-linecap="round" stroke-linejoin="round" stroke-width="1"/>
          <path id="Trazado_1554" data-name="Trazado 1554" d="M334.927,211.971a24.516,24.516,0,0,1,7.039.335" transform="translate(-217.282 -166.59)" fill="none" stroke="#78d64b" stroke-linecap="round" stroke-linejoin="round" stroke-width="2"/>
          <line id="Línea_116" data-name="Línea 116" y1="1.919" x2="2.203" transform="translate(119.952 102.313)" fill="none" stroke="#78d64b" stroke-linecap="round" stroke-linejoin="round" stroke-width="2"/>
          <path id="Trazado_1556" data-name="Trazado 1556" d="M348.176,217.291a4.26,4.26,0,0,0,4.412,1.359c2.679-.824,5.049-9.512,5.049-9.512S353.128,215.675,348.176,217.291Z" transform="translate(-217.283 -166.59)" fill="#394250"/>
          <path id="Trazado_1520" data-name="Trazado 1520" d="M348.028,189.347c-1.765,1.391-3.671,2.988-4.379,5.21s-.509,4.695-1.43,6.852c-.644,1.494-.367,3.607-.277,5.184a50.779,50.779,0,0,0,1,7.368c.374,1.81,1.134,2.95,3.046,3.175s3.941-.754,5.564-1.6c2.621-1.352,5.725-5.674,7.277-8.25,2.061-.489,6-.238,5.281-4.18s-3.684-2.029-4.508-.9" transform="translate(-217.282 -166.59)" fill="none" stroke="#394250" stroke-linecap="round" stroke-linejoin="round" stroke-width="1"/>
          <path id="Trazado_1547" data-name="Trazado 1547" d="M352.588,259.648s-9.435,7.007-12.565,9.255c0,0-15.173-9.7-20.557-14.748s-7.728-6.8-8.057-12.513c0,0-7.986.85-8.823-.876a7.462,7.462,0,0,1,3.413-.972s-3.716-1.069-3.722-2.428l7.445-.412s-8.372-1.256-8.3-2.029,10.3-1.971,13.061,0a74.4,74.4,0,0,1,4.65,9.744s10.24,9.19,20.886,11.3l3.864-4.115Z" transform="translate(-217.282 -166.591)" fill="#fff"/>
          <path id="Trazado_1549" data-name="Trazado 1549" d="M352.588,259.275a73.919,73.919,0,0,1-12.539,9.66s-15.695-8.8-23.455-17.756l-.7-.483a10.266,10.266,0,0,1-4.457-9.016h0a12.272,12.272,0,0,1-8.462-.483c-.174-.077-.374-.2-.361-.393a.442.442,0,0,1,.232-.309,6.151,6.151,0,0,1,3.182-.644c1.932-.09,3.729-.644,5.648-.29" transform="translate(-217.282 -166.591)" fill="none" stroke="#394250" stroke-linecap="round" stroke-linejoin="round" stroke-width="1"/>
          <path id="Trazado_1550" data-name="Trazado 1550" d="M312.284,237.3l-2.576-.052-6.949-.129c-.193,0-.451.052-.457.245a.352.352,0,0,0,.109.232,7.1,7.1,0,0,0,2.009,1.494,6.626,6.626,0,0,0,1.288.644" transform="translate(-217.282 -166.591)" fill="none" stroke="#394250" stroke-linecap="round" stroke-linejoin="round" stroke-width="1"/>
          <path id="Trazado_1548" data-name="Trazado 1548" d="M343.887,251.85l-3.864,4.115s-13.557-3.542-20.886-11.3c0,0-3.078-7.728-4.65-9.744s-13.692-.889-13.061,0,7.458,2.312,7.458,2.312" transform="translate(-217.282 -166.59)" fill="none" stroke="#394250" stroke-linecap="round" stroke-linejoin="round" stroke-width="1"/>
          <path id="Trazado_1555" data-name="Trazado 1555" d="M357.643,217.169s7.284,9.544,9.107,16.828c0,0-3.033,17.389-9.107,26.72,0,0-7.542-.2-14.812-10.729a96.154,96.154,0,0,1,10.163-13.357" transform="translate(-217.283 -166.59)" fill="none" stroke="#78d64b" stroke-linecap="round" stroke-linejoin="round" stroke-width="2"/>
          <path id="Trazado_1527" data-name="Trazado 1527" d="M358.829,207.289a31.334,31.334,0,0,0-1.133,6.163,12.876,12.876,0,0,0,.168,4.843c-.985,1.61-3.529,2.537-5.41,2.376a5.882,5.882,0,0,1-2.995-1,3.382,3.382,0,0,1-1.45-2.712" transform="translate(-217.283 -166.59)" fill="none" stroke="#394250" stroke-linecap="round" stroke-linejoin="round" stroke-width="1"/>
        </g>
        <g id="freepik--Device--inject-2" transform="translate(65.482 46.669)">
          <path id="Trazado_1557" data-name="Trazado 1557" d="M284,202.958V363.1a6.518,6.518,0,0,1-6.518,6.518H197.7a6.5,6.5,0,0,1-6.518-6.482V202.958a6.518,6.518,0,0,1,6.518-6.518h79.858A6.518,6.518,0,0,1,284,202.958Z" transform="translate(-191.178 -196.438)" fill="#394250"/>
          <path id="Trazado_1558" data-name="Trazado 1558" d="M286.677,202.958V363.1a6.518,6.518,0,0,1-6.518,6.518H200.3a6.5,6.5,0,0,1-6.472-6.518V202.958a6.518,6.518,0,0,1,6.518-6.518h79.858A6.517,6.517,0,0,1,286.677,202.958Z" transform="translate(-191.178 -196.438)" fill="#394250"/>
          <line id="Línea_117" data-name="Línea 117" x2="21.575" transform="translate(36.038 7.155)" fill="none" stroke="#fff" stroke-linecap="round" stroke-linejoin="round" stroke-width="2"/>
          <path id="Trazado_1559" data-name="Trazado 1559" d="M283.992,202.958V363.1a6.518,6.518,0,0,1-6.518,6.518h-79.78a6.545,6.545,0,0,1-3.948-1.327l69.637-171.85h14.1A6.518,6.518,0,0,1,283.992,202.958Z" transform="translate(-191.178 -196.438)" fill="#fff" opacity="0.1" style="isolation: isolate"/>
          <path id="Trazado_1560" data-name="Trazado 1560" d="M284,202.958V363.1a6.518,6.518,0,0,1-6.518,6.518H197.7a6.5,6.5,0,0,1-6.518-6.482V202.958a6.518,6.518,0,0,1,6.518-6.518h79.858A6.518,6.518,0,0,1,284,202.958Z" transform="translate(-191.178 -196.438)" fill="none" stroke="#394250" stroke-miterlimit="10" stroke-width="1"/>
          <rect id="Rectángulo_858" data-name="Rectángulo 858" width="82.286" height="147.255" rx="12.81" transform="translate(5.318 11.283)" fill="#eff2f3" stroke="#394250" stroke-miterlimit="10" stroke-width="1"/>
          <path id="Trazado_1561" data-name="Trazado 1561" d="M241.223,362.744a3.9,3.9,0,1,1-3.909-3.9h.013a3.864,3.864,0,0,1,3.9,3.828v0Z" transform="translate(-191.178 -196.439)" fill="#394250"/>
          <path id="Trazado_1562" data-name="Trazado 1562" d="M264.24,366.267v-7.046l7.046,3.523Z" transform="translate(-191.179 -196.439)" fill="#394250"/>
          <rect id="Rectángulo_859" data-name="Rectángulo 859" width="6.395" height="6.395" transform="translate(13.233 163.175)" fill="#394250"/>
          <rect id="Rectángulo_885" data-name="Rectángulo 885" width="60.022" height="2.651" transform="translate(15.754 50.521)" fill="#394250"/>
          <path id="Rectángulo_886" data-name="Rectángulo 886" d="M214.473,257.785h44.94c4.165,0,7.541,2.4,7.541,5.35V266.1c0,2.955-3.376,5.35-7.541,5.35h-44.94c-4.165,0-7.541-2.395-7.541-5.35v-2.968C206.932,260.181,210.308,257.785,214.473,257.785Z" transform="translate(-191.178 -196.438)" fill="#fff"/>
          <path id="Rectángulo_887" data-name="Rectángulo 887" d="M214.473,276.955h44.94c4.165,0,7.541,2.4,7.541,5.35v2.968c0,2.955-3.376,5.35-7.541,5.35h-44.94c-4.165,0-7.541-2.4-7.541-5.35V282.3C206.932,279.351,210.308,276.955,214.473,276.955Z" transform="translate(-191.178 -196.439)" fill="#fff"/>
          <path id="Rectángulo_887-2" data-name="Rectángulo 887" d="M214.473,296.367h44.94c4.165,0,7.541,2.395,7.541,5.35v2.968c0,2.955-3.376,5.35-7.541,5.35h-44.94c-4.165,0-7.541-2.395-7.541-5.35v-2.968C206.932,298.762,210.308,296.367,214.473,296.367Z" transform="translate(-191.178 -196.439)" fill="#fff"/>
          <rect id="Rectángulo_927" data-name="Rectángulo 927" width="60.022" height="13.668" rx="2.586" transform="translate(15.754 120.166)" fill="#78d64b"/>
          <rect id="Rectángulo_930" data-name="Rectángulo 930" width="20.006" height="2.489" transform="translate(36.565 33.802)" fill="#394250"/>
          <rect id="Rectángulo_931" data-name="Rectángulo 931" width="39.359" height="2.489" transform="translate(26.889 38.302)" fill="#394250"/>
          <circle id="Elipse_398" data-name="Elipse 398" cx="3" cy="3" r="3" transform="translate(15.518 18.331)" fill="#78d64b"/>
          <path id="Trazado_2221" data-name="Trazado 2221" d="M18.518,21.331h56" fill="none" stroke="#78d64b" stroke-width="1"/>
          <g id="Elipse_400" data-name="Elipse 400" transform="translate(29.518 18.331)" fill="#fff" stroke="#78d64b" stroke-width="1">
            <circle cx="3" cy="3" r="3" stroke="none"/>
            <circle cx="3" cy="3" r="2.5" fill="none"/>
          </g>
          <g id="Elipse_401" data-name="Elipse 401" transform="translate(43.518 18.331)" fill="#fff" stroke="#78d64b" stroke-width="1">
            <circle cx="3" cy="3" r="3" stroke="none"/>
            <circle cx="3" cy="3" r="2.5" fill="none"/>
          </g>
          <g id="Elipse_402" data-name="Elipse 402" transform="translate(57.518 18.331)" fill="#fff" stroke="#78d64b" stroke-width="1">
            <circle cx="3" cy="3" r="3" stroke="none"/>
            <circle cx="3" cy="3" r="2.5" fill="none"/>
          </g>
          <g id="Elipse_403" data-name="Elipse 403" transform="translate(71.518 18.331)" fill="#fff" stroke="#78d64b" stroke-width="1">
            <circle cx="3" cy="3" r="3" stroke="none"/>
            <circle cx="3" cy="3" r="2.5" fill="none"/>
          </g>
        </g>
      </g>
    </g>
    <g id="Grupo_2027" data-name="Grupo 2027" transform="translate(-1.932 -1.932)">
      <circle id="Elipse_396" data-name="Elipse 396" cx="5.025" cy="5.025" r="5.025" transform="translate(227.999 245.191)" fill="#78d64b"/>
      <circle id="Elipse_397" data-name="Elipse 397" cx="3.355" cy="3.355" r="3.355" transform="translate(229.669 246.861)" fill="#fff"/>
    </g>
    <rect id="Rectángulo_885-2" data-name="Rectángulo 885" width="26.114" height="2.651" transform="translate(223.885 322.113)" fill="#fff"/>
  </g>
</svg>
