<svg id="icon-instagram" xmlns="http://www.w3.org/2000/svg" width="31.749" height="31.75" viewBox="0 0 31.749 31.75">
  <path id="Trazado_1315" data-name="Trazado 1315" d="M10.584,15.875a5.291,5.291,0,1,1,5.291,5.292,5.291,5.291,0,0,1-5.291-5.292m-2.861,0a8.152,8.152,0,1,0,8.152-8.152,8.151,8.151,0,0,0-8.152,8.152M22.444,7.4A1.9,1.9,0,1,0,24.35,5.5h0a1.906,1.906,0,0,0-1.9,1.9M9.462,28.8a8.774,8.774,0,0,1-2.948-.546,4.934,4.934,0,0,1-1.826-1.187A4.9,4.9,0,0,1,3.5,25.239a8.766,8.766,0,0,1-.546-2.948c-.077-1.673-.092-2.176-.092-6.415s.017-4.741.092-6.415A8.832,8.832,0,0,1,3.5,6.512,4.934,4.934,0,0,1,4.687,4.686,4.893,4.893,0,0,1,6.513,3.5a8.766,8.766,0,0,1,2.948-.546c1.673-.077,2.176-.092,6.414-.092s4.741.017,6.415.092a8.832,8.832,0,0,1,2.948.546,4.918,4.918,0,0,1,1.826,1.187,4.918,4.918,0,0,1,1.187,1.826A8.766,8.766,0,0,1,28.8,9.46c.077,1.675.092,2.176.092,6.415s-.015,4.741-.092,6.415a8.807,8.807,0,0,1-.546,2.948,5.256,5.256,0,0,1-3.013,3.012,8.766,8.766,0,0,1-2.948.546c-1.673.077-2.176.092-6.415.092s-4.741-.015-6.414-.092M9.33.1A11.641,11.641,0,0,0,5.477.834,7.786,7.786,0,0,0,2.665,2.665,7.756,7.756,0,0,0,.834,5.477,11.644,11.644,0,0,0,.1,9.33C.018,11.023,0,11.564,0,15.875s.018,4.852.1,6.545a11.643,11.643,0,0,0,.737,3.853,7.76,7.76,0,0,0,1.831,2.812,7.805,7.805,0,0,0,2.812,1.831,11.651,11.651,0,0,0,3.853.737c1.694.077,2.234.1,6.545.1s4.852-.018,6.545-.1a11.643,11.643,0,0,0,3.853-.737,8.116,8.116,0,0,0,4.643-4.643,11.611,11.611,0,0,0,.737-3.853c.077-1.694.095-2.234.095-6.545s-.018-4.852-.095-6.545a11.64,11.64,0,0,0-.737-3.853,7.807,7.807,0,0,0-1.831-2.812A7.768,7.768,0,0,0,26.275.834,11.625,11.625,0,0,0,22.421.1C20.729.019,20.187,0,15.876,0S11.024.018,9.33.1" fill="#fff"/>
  <path id="Trazado_1316" data-name="Trazado 1316" d="M10.584,15.875a5.291,5.291,0,1,1,5.291,5.292,5.291,5.291,0,0,1-5.291-5.292m-2.861,0a8.152,8.152,0,1,0,8.152-8.152,8.151,8.151,0,0,0-8.152,8.152M22.444,7.4A1.9,1.9,0,1,0,24.35,5.5h0a1.906,1.906,0,0,0-1.9,1.9M9.462,28.8a8.774,8.774,0,0,1-2.948-.546,4.934,4.934,0,0,1-1.826-1.187A4.9,4.9,0,0,1,3.5,25.239a8.766,8.766,0,0,1-.546-2.948c-.077-1.673-.092-2.176-.092-6.415s.017-4.741.092-6.415A8.832,8.832,0,0,1,3.5,6.512,4.934,4.934,0,0,1,4.687,4.686,4.893,4.893,0,0,1,6.513,3.5a8.766,8.766,0,0,1,2.948-.546c1.673-.077,2.176-.092,6.414-.092s4.741.017,6.415.092a8.832,8.832,0,0,1,2.948.546,4.918,4.918,0,0,1,1.826,1.187,4.918,4.918,0,0,1,1.187,1.826A8.766,8.766,0,0,1,28.8,9.46c.077,1.675.092,2.176.092,6.415s-.015,4.741-.092,6.415a8.807,8.807,0,0,1-.546,2.948,5.256,5.256,0,0,1-3.013,3.012,8.766,8.766,0,0,1-2.948.546c-1.673.077-2.176.092-6.415.092s-4.741-.015-6.414-.092M9.33.1A11.641,11.641,0,0,0,5.477.834,7.786,7.786,0,0,0,2.665,2.665,7.756,7.756,0,0,0,.834,5.477,11.644,11.644,0,0,0,.1,9.33C.018,11.023,0,11.564,0,15.875s.018,4.852.1,6.545a11.643,11.643,0,0,0,.737,3.853,7.76,7.76,0,0,0,1.831,2.812,7.805,7.805,0,0,0,2.812,1.831,11.651,11.651,0,0,0,3.853.737c1.694.077,2.234.1,6.545.1s4.852-.018,6.545-.1a11.643,11.643,0,0,0,3.853-.737,8.116,8.116,0,0,0,4.643-4.643,11.611,11.611,0,0,0,.737-3.853c.077-1.694.095-2.234.095-6.545s-.018-4.852-.095-6.545a11.64,11.64,0,0,0-.737-3.853,7.807,7.807,0,0,0-1.831-2.812A7.768,7.768,0,0,0,26.275.834,11.625,11.625,0,0,0,22.421.1C20.729.019,20.187,0,15.876,0S11.024.018,9.33.1" fill="#fff"/>
</svg>
