<svg id="icon-email" xmlns="http://www.w3.org/2000/svg" width="24" height="24" viewBox="0 0 24 24">
  <rect id="Square" width="24" height="24" fill="none"/>
  <path id="Icon_-_Envelope" data-name="Icon - Envelope" d="M2391.923-2481.99a.677.677,0,0,0-.109-.361.618.618,0,0,0-.584-.333c-3.348.042-6.7-.006-10.043-.024-1.624-.009-3.247-.01-4.87.01q-1.315.016-2.631.054a8.94,8.94,0,0,0-1.989.107.7.7,0,0,0-.509.669c.266,4.455.289,8.914.129,13.373a.7.7,0,0,0,.693.693c3.259.125,6.493.163,9.754.146a83.079,83.079,0,0,0,9.628-.313.709.709,0,0,0,.693-.693C2391.973-2473.1,2392.036-2477.547,2391.923-2481.99Zm-17.583.715q1.208-.03,2.417-.041c1.624-.016,3.249-.012,4.873,0,2.572.016,5.145.044,7.717.034a23.987,23.987,0,0,0-3.087,2.589,25.992,25.992,0,0,0-2.072,2.334,7.6,7.6,0,0,1-1.847,2.139c-1.063.584-2.012-1.019-2.676-1.7q-1.1-1.127-2.25-2.2c-1.2-1.108-2.441-2.158-3.723-3.165C2373.918-2481.276,2374.139-2481.27,2374.34-2481.274Zm7.424,12.233c-3.023.017-6.023-.019-9.04-.123.118-3.727.107-7.454-.069-11.179a58.665,58.665,0,0,1,4.84,4.21c.85.826,1.649,1.694,2.473,2.545a2.464,2.464,0,0,0,2.068.972c1.806-.226,2.946-2.6,4.013-3.824a23.286,23.286,0,0,1,4.522-4c.064,3.72.036,7.441.117,11.161C2387.718-2468.982,2384.748-2469.058,2381.764-2469.041Z" transform="translate(-2371.186 2486.713)" fill="#fff"/>
</svg>
