<svg id="icon-home-active" xmlns="http://www.w3.org/2000/svg" width="19.039" height="21.154" viewBox="0 0 19.039 21.154">
  <g id="Trazado_1157" data-name="Trazado 1157" transform="translate(-4.5 -3)" fill="none" stroke-linecap="round" stroke-linejoin="round">
    <path d="M4.5,10.4,14.019,3l9.519,7.4V22.039a2.115,2.115,0,0,1-2.115,2.115H6.615A2.115,2.115,0,0,1,4.5,22.039Z" stroke="none"/>
    <path d="M 14.01943302154541 6.80058479309082 L 7.500003814697266 11.87125205993652 L 7.500003814697266 21.15429878234863 L 20.53886413574219 21.15429878234863 L 20.53886413574219 11.87125205993652 L 14.01943302154541 6.80058479309082 M 14.01943302154541 2.999998092651367 L 23.53886413574219 10.40399932861328 L 23.53886413574219 22.03886795043945 C 23.53886413574219 23.20718765258789 22.59176254272461 24.15429878234863 21.42343330383301 24.15429878234863 L 6.615432739257813 24.15429878234863 C 5.447113037109375 24.15429878234863 4.500003814697266 23.20718765258789 4.500003814697266 22.03886795043945 L 4.500003814697266 10.40399932861328 L 14.01943302154541 2.999998092651367 Z" stroke="none" fill="#5ba637"/>
  </g>
  <path id="Trazado_1158" data-name="Trazado 1158" d="M13.5,25.288V18h5.553v7.288" transform="translate(-6.757 -6.101)" fill="none" stroke="#5ba637" stroke-linecap="round" stroke-linejoin="round" stroke-width="3"/>
</svg>
