<svg id="icon-phone" xmlns="http://www.w3.org/2000/svg" width="24" height="24" viewBox="0 0 24 24">
  <rect id="Square" width="24" height="24" fill="none"/>
  <path id="Icon_-_Call" data-name="Icon - Call" d="M2397.346-1654.946c-.375-2.319-2.4-5.474-5.168-4.3a10.646,10.646,0,0,0-2.928,2.517,8.824,8.824,0,0,0-2.206,2.693c-.509,1.433.689,2.135,1.528,2.94,1.336,1.282-.512,4.3-1.418,5.264a6.05,6.05,0,0,1-4.03,1.792c-1.418.115-1.827-1.776-3.3-1.984a2.665,2.665,0,0,0-2.065.9,34.007,34.007,0,0,0-2.863,2.79,3.612,3.612,0,0,0-1.348,3.128,4.2,4.2,0,0,0,2.139,2.757c2.19,1.291,5.056,1.11,7.386.322,5.486-1.854,10.55-6.785,13.034-11.956A11.64,11.64,0,0,0,2397.346-1654.946Zm-2.254,5.178a23.125,23.125,0,0,1-10.689,11.338,9.915,9.915,0,0,1-6.326,1.17c-1.155-.234-2.878-.983-2.915-2.363-.029-1.043,1.4-2.14,2.109-2.845.527-.525,1.677-2,2.438-1.893.6.084.849.964,1.234,1.356a1.85,1.85,0,0,0,1.111.552,7.47,7.47,0,0,0,6.238-2.238,8.1,8.1,0,0,0,2.287-5.785,2.263,2.263,0,0,0-1.038-1.9c-.452-.347-1.09-.642-.891-1.257.135-.416.7-.865,1-1.186.654-.7,1.341-1.376,2.037-2.037.49-.465.949-.986,1.674-.966a2.407,2.407,0,0,1,1.871,1.5C2396.292-1654.322,2395.89-1651.792,2395.091-1649.768Z" transform="translate(-2373.501 1659.498)" fill="#fff"/>
</svg>
