<svg xmlns="http://www.w3.org/2000/svg" width="24" height="24" viewBox="0 0 24 24">
  <g id="icon-whatsapp" transform="translate(0)">
    <rect id="Square" width="24" height="24" fill="none"/>
    <path id="Icon_-_Send" data-name="Icon - Send" d="M2539.581-1807.772a161.3,161.3,0,0,0-22.589,8.614.8.8,0,0,0-.367.9c.519,1.73,2.84,1.645,4.292,1.888l7.062,1.182,1.182,7.062c.242,1.447.16,3.773,1.887,4.291a.806.806,0,0,0,.9-.367,161.267,161.267,0,0,0,8.614-22.589A.8.8,0,0,0,2539.581-1807.772Zm-19.021,9.733a15.7,15.7,0,0,1-1.723-.236,151.282,151.282,0,0,1,18.163-7c-2.845,2.878-5.863,5.583-8.623,8.545l-5.216-.873Zm10.51,11.984a14.371,14.371,0,0,1-.2-1.454l-.479-2.859q-.438-2.622-.877-5.244c2.717-2.914,5.684-5.582,8.489-8.409A150.527,150.527,0,0,1,2531.071-1786.055Z" transform="translate(-2516.597 1807.805)" fill="#fff"/>
  </g>
</svg>
