<svg id="icon-email-grey" xmlns="http://www.w3.org/2000/svg" width="22" height="22" viewBox="0 0 22 22">
  <rect id="Square" width="22" height="22" fill="none"/>
  <path id="Icon_-_Envelope" data-name="Icon - Envelope" d="M2391.477-2482.006a.664.664,0,0,0-.106-.353.606.606,0,0,0-.572-.325c-3.276.042-6.552-.005-9.828-.023-1.589-.009-3.177-.011-4.765.01q-1.287.016-2.575.053a8.774,8.774,0,0,0-1.946.1.688.688,0,0,0-.5.655c.26,4.359.284,8.722.127,13.085a.689.689,0,0,0,.678.679c3.188.123,6.354.16,9.545.143a81.413,81.413,0,0,0,9.421-.307.692.692,0,0,0,.678-.678C2391.526-2473.311,2391.588-2477.659,2391.477-2482.006Zm-17.2.7q1.183-.031,2.365-.041c1.589-.016,3.179-.012,4.768,0,2.517.015,5.034.042,7.551.033a23.491,23.491,0,0,0-3.021,2.533,25.586,25.586,0,0,0-2.028,2.283,7.431,7.431,0,0,1-1.808,2.093c-1.04.571-1.968-1-2.618-1.666q-1.075-1.1-2.2-2.148c-1.17-1.085-2.389-2.113-3.643-3.1C2373.859-2481.307,2374.075-2481.3,2374.272-2481.305Zm7.264,11.969c-2.958.016-5.894-.018-8.846-.12.115-3.647.1-7.294-.067-10.938a57.277,57.277,0,0,1,4.735,4.12c.833.808,1.614,1.657,2.42,2.49a2.412,2.412,0,0,0,2.023.951c1.767-.221,2.883-2.547,3.927-3.742a22.777,22.777,0,0,1,4.425-3.915c.062,3.64.036,7.281.115,10.921C2387.363-2469.279,2384.457-2469.352,2381.537-2469.336Z" transform="translate(-2371.186 2485.596)" fill="#e2e3e5"/>
</svg>
