<svg xmlns="http://www.w3.org/2000/svg" width="13.58" height="24" viewBox="0 0 13.58 24">
  <path id="icon-prestamos-active" d="M18,16.96c-3.027-.787-4-1.593-4-2.86,0-1.453,1.34-2.473,3.6-2.473,2.373,0,3.253,1.133,3.333,2.8h2.947a5.308,5.308,0,0,0-4.28-5.08V6.427h-4v2.88c-2.587.567-4.667,2.233-4.667,4.813,0,3.08,2.553,4.613,6.267,5.507,3.34.8,4,1.967,4,3.22,0,.913-.647,2.38-3.6,2.38-2.747,0-3.833-1.233-3.973-2.8h-2.94c.167,2.92,2.347,4.553,4.913,5.107v2.893h4V27.56c2.593-.5,4.667-2,4.667-4.74,0-3.773-3.24-5.067-6.267-5.86Z" transform="translate(-10.688 -6.427)" fill="#5ba637"/>
</svg>
