<svg id="icon-dni" xmlns="http://www.w3.org/2000/svg" width="69.228" height="69.228" viewBox="0 0 69.228 69.228">
  <path id="Trazado_1381" data-name="Trazado 1381" d="M9.831,67.2H3.745a1.719,1.719,0,0,1-1.717-1.717V27.238a1.719,1.719,0,0,1,1.717-1.717h37.23v2.762l-1.61.773a1.014,1.014,0,0,0-.575.914v5.542H32.429a1.014,1.014,0,0,0-1.014,1.014v5.463A1.014,1.014,0,0,0,32.429,43H63.843a1.014,1.014,0,0,0,1.014-1.014V36.526a1.014,1.014,0,0,0-1.014-1.014H44.26l2.812-1.35a1.014,1.014,0,0,0,.575-.914V25.521h6.978a1.014,1.014,0,0,0,0-2.028H47.647v-5a1.014,1.014,0,0,0-.544-.9L39.88,13.822a5.382,5.382,0,0,0-1.52-2.74V1.014a1.014,1.014,0,1,0-2.028,0V9.843a5.361,5.361,0,0,0-3.435,0V1.014a1.014,1.014,0,1,0-2.028,0V11.082a5.381,5.381,0,0,0-1.52,2.74L22.125,17.6a1.014,1.014,0,0,0-.544.9v5H3.745A3.75,3.75,0,0,0,0,27.238V65.482a3.75,3.75,0,0,0,3.745,3.745H9.831a1.014,1.014,0,0,0,0-2.028Zm53-26.224H33.443V37.54H62.829v3.435ZM28.252,23.493V22.108l4.176-2.243a5.366,5.366,0,0,0,4.371,0l4.176,2.243v1.385ZM45.619,32.61l-4.8,2.3V30.608l1.61-.773A1.014,1.014,0,0,0,43,28.921V21.5a1.014,1.014,0,0,0-.534-.893l-3.85-2.068a5.375,5.375,0,0,0,1.252-2.434l5.748,3ZM37.97,14.946a3.357,3.357,0,1,1-3.357-3.357A3.36,3.36,0,0,1,37.97,14.946ZM23.608,19.111l5.748-3a5.375,5.375,0,0,0,1.252,2.434l-3.85,2.068a1.014,1.014,0,0,0-.534.893v1.991H23.608Z" transform="translate(0 0)" fill="#5ba637"/>
  <path id="Trazado_1382" data-name="Trazado 1382" d="M152.143,173.75h-6.125a1.014,1.014,0,1,0,0,2.028h6.125a1.719,1.719,0,0,1,1.717,1.717v38.244a1.719,1.719,0,0,1-1.717,1.717H101.224a1.014,1.014,0,1,0,0,2.028h50.919a3.75,3.75,0,0,0,3.745-3.745V177.5a3.75,3.75,0,0,0-3.745-3.745Z" transform="translate(-86.661 -150.257)" fill="#5ba637"/>
  <path id="Trazado_1383" data-name="Trazado 1383" d="M237.449,353.557h-4.1a1.014,1.014,0,0,0,0,2.028h4.1a1.014,1.014,0,1,0,0-2.028Z" transform="translate(-200.923 -305.753)" fill="#5ba637"/>
  <path id="Trazado_1384" data-name="Trazado 1384" d="M325.916,353.557H304.063a1.014,1.014,0,0,0,0,2.028h21.853a1.014,1.014,0,1,0,0-2.028Z" transform="translate(-262.074 -305.753)" fill="#5ba637"/>
  <path id="Trazado_1385" data-name="Trazado 1385" d="M237.449,395.983h-4.1a1.014,1.014,0,1,0,0,2.028h4.1a1.014,1.014,0,1,0,0-2.028Z" transform="translate(-200.923 -342.442)" fill="#5ba637"/>
  <path id="Trazado_1386" data-name="Trazado 1386" d="M325.916,395.983H304.063a1.014,1.014,0,0,0,0,2.028h21.853a1.014,1.014,0,1,0,0-2.028Z" transform="translate(-262.074 -342.442)" fill="#5ba637"/>
  <path id="Trazado_1387" data-name="Trazado 1387" d="M430.745,464.675h-5.463a1.014,1.014,0,0,0,0,2.028h5.463a1.014,1.014,0,1,0,0-2.028Z" transform="translate(-366.903 -401.846)" fill="#5ba637"/>
  <path id="Trazado_1388" data-name="Trazado 1388" d="M54.373,268.269a1.014,1.014,0,0,0,1.014-1.014v-3.6a1.014,1.014,0,0,0-1.014-1.014H33.34a1.014,1.014,0,0,0-1.014,1.014v27.291c0,.009,0,.017,0,.026a1.014,1.014,0,0,0,1.014,1.014H54.373a1.014,1.014,0,0,0,1.014-1.014h0V271.987a1.014,1.014,0,0,0-2.028,0V284.45a11.589,11.589,0,0,0-5.512-4.3,6.73,6.73,0,1,0-7.982,0,11.59,11.59,0,0,0-5.511,4.3V264.668H53.359v2.587A1.014,1.014,0,0,0,54.373,268.269Zm-15.219,6.47a4.7,4.7,0,1,1,4.7,4.7A4.707,4.707,0,0,1,39.154,274.738Zm4.7,6.73a9.517,9.517,0,0,1,9.449,8.488h-18.9a9.517,9.517,0,0,1,9.449-8.488Z" transform="translate(-27.954 -227.128)" fill="#5ba637"/>
</svg>
