<svg xmlns="http://www.w3.org/2000/svg" width="40" height="40" viewBox="0 0 40 40">
  <g id="icon-user" transform="translate(-172 -457)">
    <g id="Icon_feather-user" data-name="Icon feather-user" transform="translate(175.767 462.273)">
      <path id="Trazado_1159" data-name="Trazado 1159" d="M26,30.5V27.833A5.175,5.175,0,0,0,21,22.5H11a5.175,5.175,0,0,0-5,5.333V30.5" transform="translate(0.233 -5.737)" fill="none" stroke="#7c8a93" stroke-linejoin="round" stroke-width="3"/>
      <g id="Trazado_1160" data-name="Trazado 1160" transform="translate(-1.266 -0.773)" fill="none" stroke-linecap="round" stroke-linejoin="round">
        <path d="M24,10.5a6,6,0,1,1-6-6A6,6,0,0,1,24,10.5Z" stroke="none"/>
        <path d="M 18.00000190734863 7.5 C 16.34579277038574 7.5 15.00000190734863 8.845789909362793 15.00000190734863 10.5 C 15.00000190734863 12.15421009063721 16.34579277038574 13.5 18.00000190734863 13.5 C 19.65421104431152 13.5 21.00000190734863 12.15421009063721 21.00000190734863 10.5 C 21.00000190734863 8.845789909362793 19.65421104431152 7.5 18.00000190734863 7.5 M 18.00000190734863 4.5 C 21.31371307373047 4.5 24.00000190734863 7.18628978729248 24.00000190734863 10.5 C 24.00000190734863 13.81371021270752 21.31371307373047 16.5 18.00000190734863 16.5 C 14.68629264831543 16.5 12.00000190734863 13.81371021270752 12.00000190734863 10.5 C 12.00000190734863 7.18628978729248 14.68629264831543 4.5 18.00000190734863 4.5 Z" stroke="none" fill="#7c8a93"/>
      </g>
    </g>
    <g id="Elipse_409" data-name="Elipse 409" transform="translate(172 457)" fill="none" stroke="#e2e3e5" stroke-width="1">
      <circle cx="20" cy="20" r="20" stroke="none"/>
      <circle cx="20" cy="20" r="19.5" fill="none"/>
    </g>
  </g>
</svg>
