<svg id="icon-whatsapp-green" xmlns="http://www.w3.org/2000/svg" width="28.233" height="28.36" viewBox="0 0 28.233 28.36">
  <path id="Trazado_1324" data-name="Trazado 1324" d="M177.366,139.709a14.059,14.059,0,0,0-22.126,16.957l-1.994,7.282,7.452-1.954a14.052,14.052,0,0,0,6.718,1.711h.006a14.059,14.059,0,0,0,9.944-24Zm-9.944,21.622h0a11.669,11.669,0,0,1-5.947-1.628l-.427-.253-4.422,1.16,1.18-4.31-.278-.442a11.685,11.685,0,1,1,9.9,5.474Zm6.409-8.748c-.351-.176-2.078-1.025-2.4-1.142s-.556-.176-.79.176-.907,1.142-1.112,1.377-.41.264-.761.088a9.594,9.594,0,0,1-2.825-1.743,10.581,10.581,0,0,1-1.954-2.433c-.2-.352-.022-.542.154-.717.158-.157.351-.41.527-.615a2.4,2.4,0,0,0,.351-.586.646.646,0,0,0-.029-.615c-.088-.176-.79-1.9-1.083-2.607-.285-.685-.575-.592-.79-.6s-.439-.012-.673-.012a1.29,1.29,0,0,0-.937.439,3.938,3.938,0,0,0-1.229,2.929,6.829,6.829,0,0,0,1.434,3.632,15.656,15.656,0,0,0,6,5.3,20.211,20.211,0,0,0,2,.74,4.818,4.818,0,0,0,2.212.139,3.618,3.618,0,0,0,2.371-1.67,2.934,2.934,0,0,0,.2-1.67c-.088-.146-.322-.234-.673-.41Z" transform="translate(-153.246 -135.588)" fill="#5ba637"/>
</svg>
