<svg id="icon-send-grey" xmlns="http://www.w3.org/2000/svg" width="20" height="20" viewBox="0 0 20 20">
  <rect id="Square" width="20" height="20" fill="none"/>
  <path id="Icon_-_Send" data-name="Icon - Send" d="M2535.75-1807.777a134.415,134.415,0,0,0-18.824,7.178.67.67,0,0,0-.306.752c.433,1.442,2.367,1.371,3.576,1.573l5.885.985.985,5.885c.2,1.206.134,3.144,1.573,3.576a.672.672,0,0,0,.752-.306,134.411,134.411,0,0,0,7.178-18.824A.671.671,0,0,0,2535.75-1807.777Zm-15.85,8.111a13.122,13.122,0,0,1-1.436-.2,126.074,126.074,0,0,1,15.135-5.834c-2.37,2.4-4.886,4.653-7.186,7.121l-4.347-.728Zm8.759,9.986a11.95,11.95,0,0,1-.164-1.212l-.4-2.383-.731-4.37c2.264-2.429,4.737-4.651,7.074-7.008A125.41,125.41,0,0,1,2528.658-1789.68Z" transform="translate(-2516.597 1807.805)" fill="#e2e3e5"/>
</svg>
