<svg id="logo" xmlns="http://www.w3.org/2000/svg" width="129.586" height="37.365" viewBox="0 0 129.586 37.365">
  <path id="Trazado_1149" data-name="Trazado 1149" d="M240.063,253.932h8.154l5.318,14.763c.658,1.935,1.266,4.072,1.925,6.109h.2c.658-2.036,1.216-4.174,1.874-6.109l5.217-14.763h8.1v33.191h-6.787V274.956c0-3.258.608-8.094.962-11.3h-.2l-2.684,7.891-4.71,12.676h-4.1l-4.71-12.676-2.634-7.891h-.2c.355,3.207.962,8.043.962,11.3v12.166h-6.685Z" transform="translate(-240.063 -250.369)" fill="#78d64b"/>
  <path id="Trazado_1150" data-name="Trazado 1150" d="M470.557,235.938c0-2.291,1.823-3.869,4.305-3.869,2.532,0,4.305,1.578,4.305,3.869s-1.773,3.92-4.305,3.92A3.986,3.986,0,0,1,470.557,235.938Zm.608,7.636h7.445v25.25h-7.445Z" transform="translate(-433.18 -232.069)" fill="#78d64b"/>
  <path id="Trazado_1151" data-name="Trazado 1151" d="M551.446,312.143c0-8.4,6.128-13.236,13.067-13.236a11.059,11.059,0,0,1,7.344,2.7l-3.494,4.836a5.13,5.13,0,0,0-3.393-1.476c-3.6,0-5.875,2.8-5.875,7.178s2.38,7.178,5.622,7.178a7.657,7.657,0,0,0,4.507-1.833l2.938,4.887a12.507,12.507,0,0,1-8.306,3C556.865,325.378,551.446,320.542,551.446,312.143Z" transform="translate(-500.952 -288.013)" fill="#78d64b"/>
  <path id="Trazado_1152" data-name="Trazado 1152" d="M706.357,266.474V238.628H713.8v28.151c0,1.578.709,2.087,1.317,2.087a3.1,3.1,0,0,0,.912-.1l.912,5.549a9.663,9.663,0,0,1-3.748.611C708.079,274.924,706.357,271.564,706.357,266.474Z" transform="translate(-630.743 -237.559)" fill="#78d64b"/>
  <path id="Trazado_1153" data-name="Trazado 1153" d="M791.934,235.938c0-2.291,1.823-3.869,4.3-3.869,2.532,0,4.3,1.578,4.3,3.869s-1.773,3.92-4.3,3.92A3.986,3.986,0,0,1,791.934,235.938Zm.608,7.636h7.445v25.25h-7.445Z" transform="translate(-702.443 -232.069)" fill="#78d64b"/>
  <path id="Trazado_1154" data-name="Trazado 1154" d="M926.543,308.5l.2-.3,7.952-10.029h8.1l-8.813,10.385,9.471,14.865h-8.053l-5.672-9.825Z" transform="translate(-815.224 -287.401)" fill="#b8e99e"/>
  <path id="Trazado_1155" data-name="Trazado 1155" d="M907.39,274.326l-9.9-15.545,9.5-11.191H896.921l-7.8,9.835v-18.8H881.88v35.685h7.243V268.1l2.929-3.318,5.509,9.541Zm-17.378-15.638,7.621-9.612h6.146l-8.129,9.579,9.038,14.185h-6.277l-3.63-6.287-1.842-3.191Z" transform="translate(-777.803 -237.559)" fill="#78d64b"/>
</svg>
