<svg id="logo-white" xmlns="http://www.w3.org/2000/svg" width="103.312" height="29.789" viewBox="0 0 103.312 29.789">
  <path id="Trazado_1149" data-name="Trazado 1149" d="M240.063,253.932h6.5l4.24,11.77c.525,1.542,1.009,3.247,1.534,4.87h.161c.525-1.623.969-3.328,1.494-4.87l4.159-11.77h6.46v26.461H259.2v-9.7c0-2.6.485-6.453.767-9.01h-.161l-2.14,6.291-3.755,10.106h-3.271l-3.755-10.106-2.1-6.291h-.162c.283,2.557.767,6.413.767,9.01v9.7h-5.33Z" transform="translate(-240.063 -251.091)" fill="#fff"/>
  <path id="Trazado_1150" data-name="Trazado 1150" d="M470.557,235.153a3.447,3.447,0,1,1,3.432,3.125A3.147,3.147,0,0,1,470.557,235.153Zm.485,6.088h5.936v20.13h-5.936Z" transform="translate(-440.759 -232.069)" fill="#fff"/>
  <path id="Trazado_1151" data-name="Trazado 1151" d="M551.446,309.459a10.09,10.09,0,0,1,10.417-10.552,8.816,8.816,0,0,1,5.855,2.151l-2.786,3.856a4.09,4.09,0,0,0-2.705-1.177c-2.867,0-4.684,2.232-4.684,5.722s1.9,5.723,4.482,5.723a6.1,6.1,0,0,0,3.593-1.461l2.342,3.9a9.972,9.972,0,0,1-6.622,2.394C555.766,320.011,551.446,316.156,551.446,309.459Z" transform="translate(-511.19 -290.222)" fill="#fff"/>
  <path id="Trazado_1152" data-name="Trazado 1152" d="M706.357,260.828v-22.2h5.935v22.443c0,1.258.565,1.664,1.05,1.664a2.473,2.473,0,0,0,.727-.081l.727,4.424a7.7,7.7,0,0,1-2.988.487C707.73,267.565,706.357,264.886,706.357,260.828Z" transform="translate(-646.074 -237.776)" fill="#fff"/>
  <path id="Trazado_1153" data-name="Trazado 1153" d="M791.934,235.153a3.447,3.447,0,1,1,3.432,3.125A3.147,3.147,0,0,1,791.934,235.153Zm.485,6.088h5.935v20.13h-5.935Z" transform="translate(-720.588 -232.069)" fill="#fff"/>
  <path id="Trazado_1154" data-name="Trazado 1154" d="M926.543,306.41l.161-.239,6.339-8h6.46l-7.026,8.279,7.551,11.851h-6.42l-4.522-7.833Z" transform="translate(-837.795 -289.586)" fill="rgba(255,255,255,0.5)"/>
  <path id="Trazado_1155" data-name="Trazado 1155" d="M902.217,267.088l-7.9-12.393,7.571-8.922h-8.021l-6.217,7.841V238.628H881.88v28.45h5.774v-4.951l2.335-2.645,4.392,7.607Zm-13.854-12.467,6.076-7.663h4.9l-6.481,7.637,7.206,11.309h-5l-4.363-7.556Z" transform="translate(-798.906 -237.776)" fill="#fff"/>
</svg>
