<svg xmlns="http://www.w3.org/2000/svg" xmlns:xlink="http://www.w3.org/1999/xlink" width="1366" height="494" viewBox="0 0 1366 494">
  <defs>
    <clipPath id="clip-path">
      <rect id="Rectángulo_1429" data-name="Rectángulo 1429" width="1366" height="494" transform="translate(-49 -4548)" fill="#fff"/>
    </clipPath>
    <linearGradient id="linear-gradient" x1="0.5" x2="0.5" y2="1" gradientUnits="objectBoundingBox">
      <stop offset="0" stop-color="#78d64b"/>
      <stop offset="1" stop-color="#1583d8"/>
    </linearGradient>
  </defs>
  <g id="page-cover-bg" transform="translate(49 4548)" clip-path="url(#clip-path)">
    <g id="Grupo_2264" data-name="Grupo 2264">
      <path id="Trazado_2565" data-name="Trazado 2565" d="M305.239,1104.719l-.522-.2.037.009.294.1.915.3,2.292.73c1.635.51,3.4,1.033,5.2,1.545,3.617,1.025,7.394,2,11.2,2.9,7.624,1.8,15.382,3.263,23,4.359s15.114,1.792,22.323,2.111c3.609.167,7.129.2,10.562.156s6.786-.175,9.995-.44,6.323-.6,9.3-1.026c2.955-.451,5.778-.984,8.463-1.581s5.17-1.321,7.541-2.063q.869-.3,1.746-.571c.556-.209,1.108-.417,1.666-.614s1.078-.423,1.612-.63,1.072-.406,1.561-.645a57.368,57.368,0,0,0,5.672-2.782,49.685,49.685,0,0,0,4.9-3.077c.373-.278.757-.54,1.137-.806q.531-.442,1.082-.855c.381-.259.708-.583,1.06-.873l.53-.435c.088-.073.181-.14.267-.215l.249-.238q.5-.474,1.021-.919a6.548,6.548,0,0,0,.495-.485l.494-.488.506-.475c.166-.162.316-.348.478-.518q.479-.519.981-1.014l3.213-3.164a95.65,95.65,0,0,1,135.118,135.415q-2.293,2.318-4.61,4.613c-.775.763-1.539,1.534-2.329,2.283l-2.4,2.229-2.408,2.217c-.81.732-1.6,1.482-2.434,2.188q-2.481,2.146-4.985,4.264l-1.253,1.057-1.278,1.028-2.569,2.041c-1.72,1.352-3.428,2.719-5.2,4q-2.639,1.946-5.3,3.86c-1.791,1.243-3.6,2.461-5.406,3.678a241.009,241.009,0,0,1-22.329,13.191,248.605,248.605,0,0,1-23.083,10.6c-1.942.805-3.882,1.523-5.826,2.245s-3.893,1.459-5.835,2.1c-1.944.66-3.891,1.318-5.839,1.958l-5.83,1.782c-7.765,2.276-15.518,4.222-23.193,5.792s-15.279,2.8-22.807,3.77c-7.516.94-14.943,1.6-22.283,2.022s-14.568.577-21.716.547-14.2-.27-21.153-.712c-13.913-.871-27.48-2.432-40.76-4.586s-26.288-4.872-39.2-8.161c-6.461-1.644-12.9-3.43-19.42-5.41-3.27-.995-6.556-2.035-9.95-3.163q-2.536-.841-5.231-1.786l-2.828-1.008-1.572-.577-2.345-.883a93.543,93.543,0,1,1,66.986-174.683Z" transform="translate(-906.761 -5131.722) rotate(-25)" fill="#eff2f3"/>
      <path id="Trazado_2566" data-name="Trazado 2566" d="M-5567.856,9105.832c-307.323,476.367,151.088,846.525,405.776,924.889s603.179,17.037,894.667-156.729c297.135-177.137,373.864-423.658,290.6-646.51s-310.2-421.219-643.246-261.225-402.438-88.348-630.185-55.5S-5567.856,9105.832-5567.856,9105.832Z" transform="translate(8479.737 -11771.305) rotate(21)" fill="url(#linear-gradient)"/>
    </g>
  </g>
</svg>
