<svg xmlns="http://www.w3.org/2000/svg" width="1365.5" height="488.377" viewBox="0 0 1365.5 488.377">
  <g id="posts-single-bg" transform="translate(49 3226.5)">
    <path id="Intersecci贸n_7" data-name="Intersecci贸n 7" d="M204.552,278.826l.572-.276c3.084-1.5,6.077-3.027,8.873-4.622s5.478-3.212,7.991-4.858c2.488-1.657,4.82-3.334,7-5.009s4.127-3.381,5.963-5.056q.661-.637,1.341-1.255c.416-.425.827-.846,1.25-1.26.441-.408.8-.84,1.2-1.252s.8-.821,1.142-1.244a57.564,57.564,0,0,0,3.965-4.918,49.724,49.724,0,0,0,3.137-4.858c.22-.41.458-.81.69-1.211.2-.417.4-.826.62-1.232.236-.4.4-.827.591-1.239l.3-.617c.049-.1.1-.2.151-.309l.124-.32c.168-.428.347-.848.537-1.264a6.73,6.73,0,0,0,.244-.649l.241-.65.257-.644c.081-.218.139-.449.214-.672q.215-.672.461-1.334l1.575-4.225a95.65,95.65,0,0,1,179.688,65.624q-1.1,3.071-2.228,6.129c-.381,1.02-.747,2.04-1.147,3.055l-1.229,3.033-1.246,3.027c-.425,1.005-.823,2.019-1.282,3.012q-1.342,2.993-2.715,5.971l-.689,1.489-.725,1.471-1.466,2.935c-.987,1.952-1.958,3.913-3.023,5.82q-1.57,2.878-3.17,5.738c-1.1,1.883-2.221,3.751-3.345,5.618a241.133,241.133,0,0,1-14.663,21.392,248.9,248.9,0,0,1-16.441,19.36c-1.42,1.551-2.876,3.02-4.332,4.5s-2.912,2.968-4.4,4.37c-1.483,1.42-2.97,2.839-4.465,4.243l-4.531,4.079c-6.076,5.344-12.28,10.384-18.572,15.051s-12.663,9-19.076,13.055c-6.414,4.029-12.869,7.762-19.341,11.251s-12.959,6.68-19.45,9.673-12.984,5.756-19.471,8.294c-12.977,5.09-25.934,9.409-38.88,13.07q-11.113,3.137-22.235,5.677Z" transform="translate(-253.052 -3227)" fill="#eff2f3" stroke="rgba(0,0,0,0)" stroke-miterlimit="10" stroke-width="1"/>
    <path id="Intersecci贸n_8" data-name="Intersecci贸n 8" d="M486.447,1230.514c-51.065-40.044-107.222-100.593-156.332-174.088V936.759h1365v340.3c-79.235,60.108-184.538,104.834-317.257,127.761a1398.638,1398.638,0,0,1-237.642,20.32C886.758,1425.128,646.491,1356.015,486.447,1230.514Z" transform="translate(-378.615 -4163.258)" fill="#eff2f3"/>
  </g>
</svg>
