<svg xmlns="http://www.w3.org/2000/svg" width="587.401" height="556.182" viewBox="0 0 587.401 556.182">
  <path id="posts-last-bg-1" d="M430.883,187.662q14.738-4.374,29.382-8.1c16.31-4.188,32.471-7.657,48.539-10.71q24.091-4.547,47.824-7.636c31.631-4.118,62.788-6.535,93.559-7.5,30.787-.947,61.176-.535,91.608,1.217,15.23.872,30.464,2.074,45.984,3.673,7.779.806,15.616,1.707,23.731,2.76q6.064.782,12.53,1.729l6.792,1.03,3.783.609,5.652.959c116.428,20.488,194.2,131.48,173.713,247.908S882.5,607.8,766.072,587.316l1.261.228-.086-.005-.7-.089-2.189-.279-5.467-.64c-3.894-.431-8.089-.836-12.356-1.2-8.572-.725-17.484-1.271-26.428-1.617-17.909-.715-35.975-.614-53.559.248-17.6.865-34.732,2.573-51.062,5-8.178,1.2-16.1,2.657-23.792,4.262-7.677,1.617-15.167,3.356-22.259,5.352-7.108,1.98-13.942,4.1-20.432,6.363-6.44,2.3-12.549,4.732-18.319,7.245-5.748,2.531-11.036,5.224-16.038,7.926q-1.824,1.046-3.673,2.045c-1.157.714-2.3,1.421-3.473,2.105-1.205.661-2.236,1.422-3.346,2.119s-2.232,1.379-3.224,2.129a131.233,131.233,0,0,0-11.526,8.726,113.692,113.692,0,0,0-9.653,9.049c-.715.787-1.466,1.543-2.2,2.307q-1,1.224-2.058,2.392c-.743.748-1.337,1.617-2,2.425l-1,1.208c-.167.2-.346.392-.506.6l-.454.643q-.914,1.282-1.893,2.51a15.2,15.2,0,0,0-.9,1.3l-.9,1.31-.928,1.289c-.3.437-.559.92-.849,1.372q-.848,1.374-1.76,2.706l-5.837,8.51a220,220,0,0,1-27.583,32.853Z" transform="translate(-430.383 -152.726)" fill="#eff2f3" stroke="rgba(0,0,0,0)" stroke-miterlimit="10" stroke-width="1"/>
</svg>
