<svg xmlns="http://www.w3.org/2000/svg" xmlns:xlink="http://www.w3.org/1999/xlink" width="582.41" height="456.038" viewBox="0 0 582.41 456.038">
  <defs>
    <linearGradient id="linear-gradient" x1="-0.15" y1="0.875" x2="0.947" y2="0.225" gradientUnits="objectBoundingBox">
      <stop offset="0" stop-color="#78d64b"/>
      <stop offset="1" stop-color="#1583d8"/>
    </linearGradient>
  </defs>
  <path id="posts-last-bg-2" d="M8967.1,2366.5c13.406-94.458,91.225-170.048,190.236-177l-1.234.082.081-.017.679-.079,2.115-.25,5.274-.678c3.752-.5,7.778-1.106,11.861-1.762,8.2-1.327,16.686-2.9,25.149-4.66,16.952-3.517,33.86-7.833,50.14-12.75,16.295-4.925,31.953-10.528,46.69-16.624,7.385-3.034,14.471-6.254,21.306-9.555,6.816-3.309,13.429-6.689,19.61-10.219,6.2-3.517,12.109-7.1,17.663-10.738,5.5-3.663,10.657-7.367,15.478-11.07,4.8-3.717,9.122-7.477,13.179-11.179q1.466-1.407,2.965-2.774c.918-.94,1.829-1.871,2.765-2.784.975-.9,1.762-1.856,2.641-2.769.863-.918,1.77-1.814,2.524-2.75a126.64,126.64,0,0,0,8.763-10.872,109.517,109.517,0,0,0,6.933-10.738c.487-.9,1.015-1.787,1.526-2.675q.65-1.381,1.369-2.722c.524-.876.876-1.829,1.309-2.742l.656-1.364c.108-.23.232-.45.334-.681l.274-.71c.371-.945.768-1.874,1.188-2.8a15.106,15.106,0,0,0,.539-1.43l.532-1.44.569-1.423c.181-.48.31-.992.473-1.485q.475-1.485,1.02-2.948l3.482-9.34a210.94,210.94,0,0,1,123.244-123.865V2366.5Z" transform="translate(-8966.528 -1910.962)" stroke="rgba(0,0,0,0)" stroke-miterlimit="10" stroke-width="1" fill="url(#linear-gradient)"/>
</svg>
