<svg xmlns="http://www.w3.org/2000/svg" xmlns:xlink="http://www.w3.org/1999/xlink" width="457.524" height="396.783" viewBox="0 0 457.524 396.783">
  <defs>
    <linearGradient id="linear-gradient" x1="-0.15" y1="0.875" x2="0.947" y2="0.225" gradientUnits="objectBoundingBox">
      <stop offset="0" stop-color="#ffb300"/>
      <stop offset="1" stop-color="#78d64b"/>
    </linearGradient>
  </defs>
  <path id="posts-related-bg" d="M110.283,545.5q-.576-4.519-.9-9.129A159.21,159.21,0,0,1,257.039,366.395l-.95.063.063-.012.522-.062,1.63-.193,4.061-.522c2.888-.39,5.989-.852,9.133-1.358,6.316-1.02,12.847-2.228,19.363-3.587,13.054-2.707,26.073-6.031,38.609-9.817s24.6-8.107,35.951-12.8c5.687-2.336,11.141-4.814,16.4-7.357s10.342-5.152,15.1-7.869c4.775-2.708,9.325-5.467,13.6-8.268,4.234-2.821,8.2-5.674,11.916-8.525,3.694-2.861,7.025-5.756,10.149-8.607q1.127-1.084,2.282-2.137c.707-.724,1.408-1.44,2.128-2.145.751-.694,1.358-1.428,2.034-2.131s1.363-1.4,1.944-2.117a97.738,97.738,0,0,0,6.747-8.371,84.525,84.525,0,0,0,5.339-8.269c.374-.7.779-1.377,1.174-2.06q.5-1.065,1.055-2.1c.4-.674.673-1.409,1.008-2.111l.5-1.051c.084-.176.178-.346.257-.524l.211-.546c.286-.727.591-1.443.914-2.153a11.2,11.2,0,0,0,.415-1.1l.41-1.108.438-1.1c.139-.37.238-.764.365-1.143q.365-1.145.784-2.271l2.681-7.191A162.516,162.516,0,0,1,565.5,149.905V545.5Z" transform="translate(-108.475 -149.217)" stroke="rgba(0,0,0,0)" stroke-miterlimit="10" stroke-width="1" fill="url(#linear-gradient)"/>
</svg>
