<svg xmlns="http://www.w3.org/2000/svg" xmlns:xlink="http://www.w3.org/1999/xlink" width="493.981" height="574.313" viewBox="0 0 493.981 574.313">
  <defs>
    <linearGradient id="linear-gradient" x1="-0.15" y1="0.875" x2="0.947" y2="0.225" gradientUnits="objectBoundingBox">
      <stop offset="0" stop-color="#ffb300"/>
      <stop offset="1" stop-color="#78d64b"/>
    </linearGradient>
  </defs>
  <path id="posts-featured" d="M565.257,679.181c-1.852-.014-3.7-.007-5.552-.056l-5.567-.2-5.566-.229c-1.855-.095-3.708-.14-5.564-.3q-5.567-.4-11.13-.868l-2.78-.235-2.776-.3-5.549-.636c-3.7-.443-7.4-.854-11.068-1.447q-5.516-.834-11.021-1.73c-3.651-.661-7.292-1.368-10.932-2.08A410.153,410.153,0,0,1,445,660.1a422.588,422.588,0,0,1-40.534-15.026c-3.307-1.368-6.505-2.84-9.715-4.309s-6.442-2.93-9.55-4.494q-4.7-2.318-9.384-4.671l-9.16-4.872c-12.085-6.606-23.756-13.594-34.882-20.941q-16.662-11.034-31.986-22.91-15.264-11.871-29.251-24.383c-8.819-7.829-17.189-15.842-25.288-23.963v-428.6a159.259,159.259,0,0,1,149.531,94.392l-.383-.872.032.055.237.471.738,1.465,1.879,3.637c1.354,2.581,2.849,5.336,4.4,8.118,3.118,5.587,6.488,11.31,9.995,16.969,7.009,11.341,14.585,22.439,22.43,32.923s16.033,20.347,24.324,29.406c4.141,4.545,8.336,8.823,12.524,12.9,4.19,4.061,8.378,7.956,12.559,11.5,4.178,3.56,8.327,6.893,12.422,9.953q6.147,4.521,12.086,8.283c3.952,2.492,7.812,4.632,11.559,6.592q1.4.689,2.788,1.414c.922.418,1.835.831,2.743,1.266.909.468,1.807.788,2.7,1.183s1.778.8,2.654,1.1a97.836,97.836,0,0,0,10.174,3.478,84.5,84.5,0,0,0,9.6,2.188c.783.114,1.562.262,2.338.4q1.172.108,2.331.274c.771.148,1.553.151,2.327.226l1.16.114c.194.019.386.049.581.062l.586.013q1.171.03,2.335.123a4.593,4.593,0,0,0,.739.016c.147,0,.294-.008.44,0l1.181.007,1.18.037c.4,0,.8-.038,1.2-.048q1.2-.049,2.4-.04l7.674.06A162.8,162.8,0,0,1,738.229,517.659c-.7,89.133-73.026,160.976-161.874,161.519q-2.936.016-5.872.016Q567.869,679.195,565.257,679.181Z" transform="translate(-244.754 -105.382)" stroke="rgba(0,0,0,0)" stroke-miterlimit="10" stroke-width="1" fill="url(#linear-gradient)"/>
</svg>
