<svg xmlns="http://www.w3.org/2000/svg" width="168" height="168" viewBox="0 0 168 168">
  <g id="Grupo_2256" data-name="Grupo 2256" transform="translate(-599 -2843)">
    <g id="Rectángulo_765" data-name="Rectángulo 765" transform="translate(599 2843)" fill="rgba(107,213,225,0.1)" stroke="#6bd5e1" stroke-width="3">
      <rect width="168" height="168" rx="84" stroke="none"/>
      <rect x="1.5" y="1.5" width="165" height="165" rx="82.5" fill="none"/>
    </g>
    <g id="_007-museum" data-name="007-museum" transform="translate(647 2891)">
      <path id="Trazado_1389" data-name="Trazado 1389" d="M35.595,5.2a4.171,4.171,0,1,0,4.171,4.171A4.176,4.176,0,0,0,35.595,5.2Zm0,6.257A2.086,2.086,0,1,1,37.68,9.369,2.088,2.088,0,0,1,35.595,11.454Zm35.593,4.919a1.05,1.05,0,0,0-.64-.945L36.567.66a2.439,2.439,0,0,0-1.944,0L.642,15.428A1.053,1.053,0,0,0,0,16.4v3.409a3.828,3.828,0,0,0,3.824,3.824h.821a3.953,3.953,0,0,0,4.393,5.731V59.1A2.248,2.248,0,0,0,6.4,61.253v1.976H3.825A3.828,3.828,0,0,0,0,67.052v2.728a1.74,1.74,0,0,0,1.738,1.738H69.451a1.74,1.74,0,0,0,1.738-1.738V67.052a3.828,3.828,0,0,0-3.824-3.824H64.793V61.253A2.24,2.24,0,0,0,62.151,59.1V29.368a3.959,3.959,0,0,0,4.393-5.731h.821a3.828,3.828,0,0,0,3.824-3.824V16.4c0-.009,0-.007,0-.031ZM8.135,27.391a1.877,1.877,0,0,1,0-3.754H19.4a1.877,1.877,0,1,1-1.844,2.247,1.043,1.043,0,0,0-2.046.4,3.932,3.932,0,0,0,.9,1.826v18a1.043,1.043,0,0,0,2.086,0V29.368a3.959,3.959,0,0,0,4.393-5.731h3.589a3.953,3.953,0,0,0,4.393,5.731V59.1a2.247,2.247,0,0,0-2.642,2.155v1.976H21.135V61.253A2.24,2.24,0,0,0,18.493,59.1V50.979a1.043,1.043,0,1,0-2.086,0V59.1H11.124V28.113a3.931,3.931,0,0,0,.9-1.826,1.043,1.043,0,0,0-2.046-.4,1.877,1.877,0,0,1-1.84,1.507Zm36.58-3.754H48.3A3.953,3.953,0,0,0,52.7,29.368V59.1a2.247,2.247,0,0,0-2.642,2.155v1.976H42.964V61.253A2.24,2.24,0,0,0,40.322,59.1V29.368a3.959,3.959,0,0,0,4.393-5.731ZM40.878,61.253v1.976H30.311V61.253a.07.07,0,0,1,.07-.07H40.809A.07.07,0,0,1,40.878,61.253Zm.348-33.862a1.877,1.877,0,0,1-1.84-1.507,1.043,1.043,0,0,0-2.046.4,3.932,3.932,0,0,0,.9,1.826V59.1H32.953V28.113a3.931,3.931,0,0,0,.9-1.826,1.043,1.043,0,0,0-2.046-.4,1.877,1.877,0,1,1-1.844-2.247H41.23a1.877,1.877,0,0,1,0,3.754ZM8.482,61.253a.07.07,0,0,1,.07-.07H18.98a.07.07,0,0,1,.07.07v1.976H8.482Zm58.883,4.062A1.74,1.74,0,0,1,69.1,67.052v2.381H2.087V67.052a1.74,1.74,0,0,1,1.738-1.738Zm-4.727-4.131a.07.07,0,0,1,.07.07v1.976H52.14V61.253a.07.07,0,0,1,.07-.07Zm.417-33.793a1.877,1.877,0,0,1-1.84-1.507,1.043,1.043,0,0,0-2.046.4,3.932,3.932,0,0,0,.9,1.826V59.1H54.782V28.113a3.931,3.931,0,0,0,.9-1.826,1.043,1.043,0,0,0-2.046-.4,1.877,1.877,0,1,1-1.844-2.247h11.27a1.877,1.877,0,0,1,0,3.754ZM69.1,19.813a1.74,1.74,0,0,1-1.738,1.738H3.825a1.74,1.74,0,0,1-1.738-1.738V17.433H50.776a1.043,1.043,0,1,0,0-2.086H6.06l29.4-12.775a.349.349,0,0,1,.279,0l29.4,12.775H55.642a1.043,1.043,0,1,0,0,2.086H69.1v2.381Z" transform="translate(-0.001 -0.458)" fill="#6bd5e1"/>
    </g>
  </g>
</svg>
