<svg xmlns="http://www.w3.org/2000/svg" width="164.763" height="706.964" viewBox="0 0 164.763 706.964">
  <path id="Intersección_5" data-name="Intersección 5" d="M92.718,681.876A157,157,0,0,1,75.5,460.524l4.812-5.623q.755-.88,1.548-1.723c.26-.284.547-.553.794-.842l.72-.882.743-.864a10.892,10.892,0,0,0,.736-.866q.671-.906,1.388-1.778l.362-.434c.114-.15.213-.31.322-.463l.651-.917c.436-.61.928-1.182,1.309-1.836q.614-.95,1.275-1.87c.392-.652.777-1.312,1.189-1.954a81.717,81.717,0,0,0,4.478-8.368,94.094,94.094,0,0,0,3.906-9.606c.336-.827.59-1.738.877-2.629s.611-1.755.846-2.712c.257-.937.535-1.863.814-2.8q.348-1.466.735-2.923c.943-3.968,1.828-8.132,2.515-12.584.669-4.464,1.219-9.148,1.618-14.037.364-4.917.563-10.045.616-15.337s-.12-10.8-.424-16.416-.777-11.387-1.463-17.275c-1.347-11.766-3.344-23.953-6.013-36.308S93.9,274.6,90.081,262.325c-1.9-6.132-3.934-12.2-6.026-18.009-1.044-2.889-2.1-5.72-3.125-8.339l-1.459-3.669-.6-1.464-.192-.47-.02-.059.391.832A153.647,153.647,0,0,1,201.541,13.64V719.4q-3.441.15-6.884.15A156.3,156.3,0,0,1,92.718,681.876Z" transform="translate(-37.278 -13.083)" fill="#eff2f3" stroke="rgba(0,0,0,0)" stroke-miterlimit="10" stroke-width="1"/>
</svg>
