<svg xmlns="http://www.w3.org/2000/svg" width="168" height="168" viewBox="0 0 168 168">
  <g id="Grupo_2257" data-name="Grupo 2257" transform="translate(-967 -2843)">
    <g id="Rectángulo_766" data-name="Rectángulo 766" transform="translate(967 2843)" fill="rgba(255,179,0,0.1)" stroke="#ffb300" stroke-width="3">
      <rect width="168" height="168" rx="84" stroke="none"/>
      <rect x="1.5" y="1.5" width="165" height="165" rx="82.5" fill="none"/>
    </g>
    <g id="_005-smartphone-1" data-name="005-smartphone-1" transform="translate(1019 2892)">
      <path id="Trazado_1374" data-name="Trazado 1374" d="M46.724,82.184H33.234A3.468,3.468,0,0,1,29.77,78.72V74.927a4.1,4.1,0,0,0,.93.11,4.152,4.152,0,0,0,1.129-.156V78.72a1.407,1.407,0,0,0,1.405,1.405H46.454a1.029,1.029,0,0,0,0-2.059H33.888v-4.53l.021-.025a4.128,4.128,0,0,0-.331-5.558,4.118,4.118,0,0,0,1.417-6.815,4.121,4.121,0,0,0,1.146-7.057l-2.253-1.83V32.059h4.558l.03.093a2.581,2.581,0,0,0,2.469,1.807H48.9a2.581,2.581,0,0,0,2.469-1.807l.03-.093h4.09V46.343a1.029,1.029,0,1,0,2.059,0V31.405A1.407,1.407,0,0,0,56.142,30H51.121a1.674,1.674,0,0,0-1.6,1.172l-.113.357a.53.53,0,0,1-.507.371H40.944a.53.53,0,0,1-.507-.371l-.113-.357A1.673,1.673,0,0,0,38.723,30H33.234a1.407,1.407,0,0,0-1.405,1.405v19.18a4.089,4.089,0,0,0-2.059-.8V39.312a1.029,1.029,0,0,0-2.058-.01,4.123,4.123,0,0,0-4.7,6.751l4.7,3.813v.251A4.123,4.123,0,0,0,26.5,56.851a4.124,4.124,0,0,0-1.413,6.819,4.12,4.12,0,0,0-1.147,7.056l3.775,3.066V78.72a5.529,5.529,0,0,0,5.523,5.523h13.49a1.029,1.029,0,0,0,0-2.059ZM24.314,44.455a2.064,2.064,0,1,1,2.6-3.2l.8.646v5.318Zm3.453,8.138a2.051,2.051,0,0,1,1.389-.752,2.093,2.093,0,0,1,.217-.011,2.049,2.049,0,0,1,1.3.462l4.173,3.388a2.064,2.064,0,1,1-2.6,3.2L28.068,55.5a2.064,2.064,0,0,1-.3-2.9ZM26.35,59.408a2.06,2.06,0,0,1,2.849-.341l1.744,1.416c.02.016.041.029.061.045L33.426,62.5a2.064,2.064,0,1,1-2.6,3.2l-4.173-3.388A2.067,2.067,0,0,1,26.35,59.408Zm-1.868,8.329a2.063,2.063,0,0,1,3.292-1.862L29.526,67.3c.02.016.041.03.062.046L32.01,69.31a2.064,2.064,0,1,1-2.6,3.2l-4.173-3.388A2.05,2.05,0,0,1,24.482,67.737Z" transform="translate(-21.492 -25.883)" fill="#ffb300"/>
      <path id="Trazado_1375" data-name="Trazado 1375" d="M67.841,10.072a1.029,1.029,0,0,0,1.029-1.029V5.523a3.468,3.468,0,0,1,3.464-3.464H95.243a3.468,3.468,0,0,1,3.464,3.464V24.517a1.029,1.029,0,1,0,2.059,0V5.523A5.529,5.529,0,0,0,95.243,0H72.335a5.529,5.529,0,0,0-5.523,5.523v3.52A1.029,1.029,0,0,0,67.841,10.072Z" transform="translate(-60.592 0)" fill="#ffb300"/>
      <path id="Trazado_1376" data-name="Trazado 1376" d="M429.912,442.169l-7.022-8.261a1.029,1.029,0,0,0-1.568,1.333l7.023,8.261a1.029,1.029,0,1,0,1.568-1.333Z" transform="translate(-366.235 -374.043)" fill="#ffb300"/>
      <path id="Trazado_1377" data-name="Trazado 1377" d="M235.979,208.161a1.029,1.029,0,0,0-.653-.39,8.83,8.83,0,0,1-7.2-6.9l-.379-1.848a8.779,8.779,0,0,1,.973-6.116l5.092-8.933a3.276,3.276,0,0,0-.263-3.648l-4.769-6.118a4.756,4.756,0,0,1,.166-6.041l.255-.292a.533.533,0,0,1,.395-.184.526.526,0,0,1,.4.169l4.551,4.829a1.029,1.029,0,0,0,1.5-1.412l-4.551-4.828a2.6,2.6,0,0,0-3.846.074l-.255.292a6.818,6.818,0,0,0-.238,8.659l4.769,6.118a1.224,1.224,0,0,1,.1,1.363l-5.092,8.933a10.837,10.837,0,0,0-1.2,7.55l.379,1.847a10.9,10.9,0,0,0,8.479,8.448l1.982,2.586a1.029,1.029,0,1,0,1.634-1.252Z" transform="translate(-197.506 -142.896)" fill="#ffb300"/>
      <path id="Trazado_1378" data-name="Trazado 1378" d="M322.637,249.808a1.457,1.457,0,0,1-.347-.943v-5.3a14.448,14.448,0,0,0-3.948-9.946l-5.305-5.629a1.029,1.029,0,1,0-1.5,1.412l5.305,5.629a12.4,12.4,0,0,1,3.388,8.534v5.3a3.518,3.518,0,0,0,.837,2.276l2.656,3.125a1.029,1.029,0,1,0,1.569-1.333Z" transform="translate(-271.489 -196.421)" fill="#ffb300"/>
      <path id="Trazado_1379" data-name="Trazado 1379" d="M162.114,81.718a4.788,4.788,0,1,0,2.239,9.018l1.58,1.58a1.029,1.029,0,0,0,1.456-1.456L165.926,89.4a4.785,4.785,0,0,0-3.812-7.679Zm-2.729,4.788a2.729,2.729,0,1,1,2.729,2.729A2.732,2.732,0,0,1,159.385,86.506Z" transform="translate(-138.683 -70.502)" fill="#ffb300"/>
      <path id="Trazado_1380" data-name="Trazado 1380" d="M146.127,293.205h-8.051a.3.3,0,0,1-.3-.3v-4.4a.3.3,0,0,1,.3-.3h10.333a1.029,1.029,0,0,0,0-2.059H138.076a2.363,2.363,0,0,0-2.36,2.36v4.4a2.363,2.363,0,0,0,2.36,2.36h8.051a1.029,1.029,0,1,0,0-2.059Z" transform="translate(-120.039 -246.867)" fill="#ffb300"/>
    </g>
  </g>
</svg>
